<?xml version="1.0" encoding="UTF-8" standalone="no"?><svg xmlns="http://www.w3.org/2000/svg" xmlns:xlink="http://www.w3.org/1999/xlink" contentScriptType="application/ecmascript" contentStyleType="text/css" height="86px" preserveAspectRatio="none" style="width:835px;height:86px;" version="1.1" viewBox="0 0 835 86" width="835px" zoomAndPan="magnify"><defs/><g><text fill="#000000" font-family="sans-serif" font-size="12" lengthAdjust="spacingAndGlyphs" textLength="31" x="7" y="18.1387">Rank</text><text fill="#000000" font-family="sans-serif" font-size="12" lengthAdjust="spacingAndGlyphs" textLength="21" x="40" y="18.1387">File</text><text fill="#000000" font-family="sans-serif" font-size="12" lengthAdjust="spacingAndGlyphs" textLength="32" x="65" y="18.1387">Page</text><text fill="#000000" font-family="sans-serif" font-size="12" lengthAdjust="spacingAndGlyphs" textLength="44" x="99" y="18.1387">Phrase</text><text fill="#000000" font-family="sans-serif" font-size="12" lengthAdjust="spacingAndGlyphs" textLength="58" x="199" y="18.1387">Due date</text><text fill="#000000" font-family="sans-serif" font-size="12" lengthAdjust="spacingAndGlyphs" textLength="12" x="273" y="18.1387">1.</text><text fill="#000000" font-family="sans-serif" font-size="12" lengthAdjust="spacingAndGlyphs" textLength="55" x="289" y="18.1387">of review</text><text fill="#000000" font-family="sans-serif" font-size="12" lengthAdjust="spacingAndGlyphs" textLength="12" x="346" y="18.1387">1.</text><text fill="#000000" font-family="sans-serif" font-size="12" lengthAdjust="spacingAndGlyphs" textLength="140" x="362" y="18.1387">of consecutive correct</text><text fill="#000000" font-family="sans-serif" font-size="12" lengthAdjust="spacingAndGlyphs" textLength="49" x="504" y="18.1387">e-factor</text><text fill="#000000" font-family="sans-serif" font-size="12" lengthAdjust="spacingAndGlyphs" textLength="8" x="7" y="34.1074">0</text><text fill="#000000" font-family="sans-serif" font-size="12" lengthAdjust="spacingAndGlyphs" textLength="23" x="40" y="34.1074">abc</text><text fill="#000000" font-family="sans-serif" font-size="12" lengthAdjust="spacingAndGlyphs" textLength="8" x="65" y="34.1074">1</text><text fill="#000000" font-family="sans-serif" font-size="12" lengthAdjust="spacingAndGlyphs" textLength="89" x="99" y="34.1074">some keyword</text><text fill="#000000" font-family="sans-serif" font-size="12" lengthAdjust="spacingAndGlyphs" textLength="72" x="199" y="34.1074">2018-05-22</text><text fill="#000000" font-family="sans-serif" font-size="12" lengthAdjust="spacingAndGlyphs" textLength="8" x="273" y="34.1074">5</text><text fill="#000000" font-family="sans-serif" font-size="12" lengthAdjust="spacingAndGlyphs" textLength="8" x="346" y="34.1074">3</text><text fill="#000000" font-family="sans-serif" font-size="12" lengthAdjust="spacingAndGlyphs" textLength="20" x="504" y="34.1074">2.4</text><text fill="#000000" font-family="sans-serif" font-size="12" lengthAdjust="spacingAndGlyphs" textLength="8" x="7" y="50.0762">0</text><text fill="#000000" font-family="sans-serif" font-size="12" lengthAdjust="spacingAndGlyphs" textLength="23" x="40" y="50.0762">abc</text><text fill="#000000" font-family="sans-serif" font-size="12" lengthAdjust="spacingAndGlyphs" textLength="8" x="65" y="50.0762">2</text><text fill="#000000" font-family="sans-serif" font-size="12" lengthAdjust="spacingAndGlyphs" textLength="98" x="99" y="50.0762">another phrase</text><text fill="#000000" font-family="sans-serif" font-size="12" lengthAdjust="spacingAndGlyphs" textLength="72" x="199" y="50.0762">2018-05-22</text><text fill="#000000" font-family="sans-serif" font-size="12" lengthAdjust="spacingAndGlyphs" textLength="8" x="273" y="50.0762">8</text><text fill="#000000" font-family="sans-serif" font-size="12" lengthAdjust="spacingAndGlyphs" textLength="8" x="346" y="50.0762">2</text><text fill="#000000" font-family="sans-serif" font-size="12" lengthAdjust="spacingAndGlyphs" textLength="20" x="504" y="50.0762">0.4</text><line style="stroke: #000000; stroke-width: 1.0;" x1="6" x2="39" y1="6" y2="6"/><line style="stroke: #000000; stroke-width: 1.0;" x1="39" x2="64" y1="6" y2="6"/><line style="stroke: #000000; stroke-width: 1.0;" x1="64" x2="98" y1="6" y2="6"/><line style="stroke: #000000; stroke-width: 1.0;" x1="98" x2="198" y1="6" y2="6"/><line style="stroke: #000000; stroke-width: 1.0;" x1="198" x2="272" y1="6" y2="6"/><line style="stroke: #000000; stroke-width: 1.0;" x1="272" x2="345" y1="6" y2="6"/><line style="stroke: #000000; stroke-width: 1.0;" x1="345" x2="503" y1="6" y2="6"/><line style="stroke: #000000; stroke-width: 1.0;" x1="503" x2="554" y1="6" y2="6"/><line style="stroke: #000000; stroke-width: 1.0;" x1="6" x2="39" y1="53.9063" y2="53.9063"/><line style="stroke: #000000; stroke-width: 1.0;" x1="39" x2="64" y1="53.9063" y2="53.9063"/><line style="stroke: #000000; stroke-width: 1.0;" x1="64" x2="98" y1="53.9063" y2="53.9063"/><line style="stroke: #000000; stroke-width: 1.0;" x1="98" x2="198" y1="53.9063" y2="53.9063"/><line style="stroke: #000000; stroke-width: 1.0;" x1="198" x2="272" y1="53.9063" y2="53.9063"/><line style="stroke: #000000; stroke-width: 1.0;" x1="272" x2="345" y1="53.9063" y2="53.9063"/><line style="stroke: #000000; stroke-width: 1.0;" x1="345" x2="503" y1="53.9063" y2="53.9063"/><line style="stroke: #000000; stroke-width: 1.0;" x1="503" x2="554" y1="53.9063" y2="53.9063"/><line style="stroke: #000000; stroke-width: 1.0;" x1="6" x2="39" y1="37.9375" y2="37.9375"/><line style="stroke: #000000; stroke-width: 1.0;" x1="39" x2="64" y1="37.9375" y2="37.9375"/><line style="stroke: #000000; stroke-width: 1.0;" x1="64" x2="98" y1="37.9375" y2="37.9375"/><line style="stroke: #000000; stroke-width: 1.0;" x1="98" x2="198" y1="37.9375" y2="37.9375"/><line style="stroke: #000000; stroke-width: 1.0;" x1="198" x2="272" y1="37.9375" y2="37.9375"/><line style="stroke: #000000; stroke-width: 1.0;" x1="272" x2="345" y1="37.9375" y2="37.9375"/><line style="stroke: #000000; stroke-width: 1.0;" x1="345" x2="503" y1="37.9375" y2="37.9375"/><line style="stroke: #000000; stroke-width: 1.0;" x1="503" x2="554" y1="37.9375" y2="37.9375"/><line style="stroke: #000000; stroke-width: 1.0;" x1="6" x2="39" y1="21.9688" y2="21.9688"/><line style="stroke: #000000; stroke-width: 1.0;" x1="39" x2="64" y1="21.9688" y2="21.9688"/><line style="stroke: #000000; stroke-width: 1.0;" x1="64" x2="98" y1="21.9688" y2="21.9688"/><line style="stroke: #000000; stroke-width: 1.0;" x1="98" x2="198" y1="21.9688" y2="21.9688"/><line style="stroke: #000000; stroke-width: 1.0;" x1="198" x2="272" y1="21.9688" y2="21.9688"/><line style="stroke: #000000; stroke-width: 1.0;" x1="272" x2="345" y1="21.9688" y2="21.9688"/><line style="stroke: #000000; stroke-width: 1.0;" x1="345" x2="503" y1="21.9688" y2="21.9688"/><line style="stroke: #000000; stroke-width: 1.0;" x1="503" x2="554" y1="21.9688" y2="21.9688"/><line style="stroke: #000000; stroke-width: 1.0;" x1="6" x2="6" y1="6" y2="21.9688"/><line style="stroke: #000000; stroke-width: 1.0;" x1="39" x2="39" y1="6" y2="21.9688"/><line style="stroke: #000000; stroke-width: 1.0;" x1="64" x2="64" y1="6" y2="21.9688"/><line style="stroke: #000000; stroke-width: 1.0;" x1="98" x2="98" y1="6" y2="21.9688"/><line style="stroke: #000000; stroke-width: 1.0;" x1="198" x2="198" y1="6" y2="21.9688"/><line style="stroke: #000000; stroke-width: 1.0;" x1="272" x2="272" y1="6" y2="21.9688"/><line style="stroke: #000000; stroke-width: 1.0;" x1="345" x2="345" y1="6" y2="21.9688"/><line style="stroke: #000000; stroke-width: 1.0;" x1="503" x2="503" y1="6" y2="21.9688"/><line style="stroke: #000000; stroke-width: 1.0;" x1="554" x2="554" y1="6" y2="21.9688"/><line style="stroke: #000000; stroke-width: 1.0;" x1="6" x2="6" y1="37.9375" y2="53.9063"/><line style="stroke: #000000; stroke-width: 1.0;" x1="39" x2="39" y1="37.9375" y2="53.9063"/><line style="stroke: #000000; stroke-width: 1.0;" x1="64" x2="64" y1="37.9375" y2="53.9063"/><line style="stroke: #000000; stroke-width: 1.0;" x1="98" x2="98" y1="37.9375" y2="53.9063"/><line style="stroke: #000000; stroke-width: 1.0;" x1="198" x2="198" y1="37.9375" y2="53.9063"/><line style="stroke: #000000; stroke-width: 1.0;" x1="272" x2="272" y1="37.9375" y2="53.9063"/><line style="stroke: #000000; stroke-width: 1.0;" x1="345" x2="345" y1="37.9375" y2="53.9063"/><line style="stroke: #000000; stroke-width: 1.0;" x1="503" x2="503" y1="37.9375" y2="53.9063"/><line style="stroke: #000000; stroke-width: 1.0;" x1="554" x2="554" y1="37.9375" y2="53.9063"/><line style="stroke: #000000; stroke-width: 1.0;" x1="6" x2="6" y1="21.9688" y2="37.9375"/><line style="stroke: #000000; stroke-width: 1.0;" x1="39" x2="39" y1="21.9688" y2="37.9375"/><line style="stroke: #000000; stroke-width: 1.0;" x1="64" x2="64" y1="21.9688" y2="37.9375"/><line style="stroke: #000000; stroke-width: 1.0;" x1="98" x2="98" y1="21.9688" y2="37.9375"/><line style="stroke: #000000; stroke-width: 1.0;" x1="198" x2="198" y1="21.9688" y2="37.9375"/><line style="stroke: #000000; stroke-width: 1.0;" x1="272" x2="272" y1="21.9688" y2="37.9375"/><line style="stroke: #000000; stroke-width: 1.0;" x1="345" x2="345" y1="21.9688" y2="37.9375"/><line style="stroke: #000000; stroke-width: 1.0;" x1="503" x2="503" y1="21.9688" y2="37.9375"/><line style="stroke: #000000; stroke-width: 1.0;" x1="554" x2="554" y1="21.9688" y2="37.9375"/><rect fill="#EEEEEE" height="17.9688" rx="5" ry="5" style="stroke: #000000; stroke-width: 2.5;" width="52" x="8.5" y="58.4063"/><text fill="#000000" font-family="sans-serif" font-size="12" lengthAdjust="spacingAndGlyphs" textLength="24" x="22.5" y="71.5449">Edit</text><rect fill="#EEEEEE" height="17.9688" rx="5" ry="5" style="stroke: #000000; stroke-width: 2.5;" width="84" x="558.5" y="58.4063"/><text fill="#000000" font-family="sans-serif" font-size="12" lengthAdjust="spacingAndGlyphs" textLength="58" x="571.5" y="71.5449">New card</text><rect fill="#EEEEEE" height="17.9688" rx="5" ry="5" style="stroke: #000000; stroke-width: 2.5;" width="108" x="649.5" y="58.4063"/><text fill="#000000" font-family="sans-serif" font-size="12" lengthAdjust="spacingAndGlyphs" textLength="68" x="669.5" y="71.5449">Update list</text><rect fill="#EEEEEE" height="17.9688" rx="5" ry="5" style="stroke: #000000; stroke-width: 2.5;" width="60" x="764.5" y="58.4063"/><text fill="#000000" font-family="sans-serif" font-size="12" lengthAdjust="spacingAndGlyphs" textLength="32" x="778.5" y="71.5449">Clear</text><line style="stroke: #000000; stroke-width: 1.0;" x1="5" x2="555" y1="5" y2="5"/><line style="stroke: #000000; stroke-width: 1.0;" x1="646" x2="761" y1="79.875" y2="79.875"/><line style="stroke: #000000; stroke-width: 1.0;" x1="555" x2="646" y1="5" y2="5"/><line style="stroke: #000000; stroke-width: 1.0;" x1="761" x2="828" y1="79.875" y2="79.875"/><line style="stroke: #000000; stroke-width: 1.0;" x1="646" x2="761" y1="5" y2="5"/><line style="stroke: #000000; stroke-width: 1.0;" x1="761" x2="828" y1="5" y2="5"/><line style="stroke: #000000; stroke-width: 1.0;" x1="5" x2="555" y1="79.875" y2="79.875"/><line style="stroke: #000000; stroke-width: 1.0;" x1="555" x2="646" y1="79.875" y2="79.875"/><line style="stroke: #000000; stroke-width: 1.0;" x1="5" x2="5" y1="5" y2="54.9063"/><line style="stroke: #000000; stroke-width: 1.0;" x1="828" x2="828" y1="54.9063" y2="79.875"/><line style="stroke: #000000; stroke-width: 1.0;" x1="828" x2="828" y1="5" y2="54.9063"/><line style="stroke: #000000; stroke-width: 1.0;" x1="5" x2="5" y1="54.9063" y2="79.875"/></g></svg>