<?xml version="1.0" encoding="UTF-8" standalone="no"?><svg xmlns="http://www.w3.org/2000/svg" xmlns:xlink="http://www.w3.org/1999/xlink" contentScriptType="application/ecmascript" contentStyleType="text/css" height="208px" preserveAspectRatio="none" style="width:346px;height:208px;" version="1.1" viewBox="0 0 346 208" width="346px" zoomAndPan="magnify"><defs/><g><text fill="#000000" font-family="sans-serif" font-size="12" lengthAdjust="spacingAndGlyphs" textLength="56" x="6" y="17.1387">Progress</text><text fill="#000000" font-family="sans-serif" font-size="12" lengthAdjust="spacingAndGlyphs" textLength="66" x="85" y="18.1387">[xxxxx 40%</text><line style="stroke: #000000; stroke-width: 1.0;" x1="83" x2="190" y1="20.9688" y2="20.9688"/><line style="stroke: #000000; stroke-width: 1.0;" x1="83" x2="83" y1="17.9688" y2="19.9688"/><line style="stroke: #000000; stroke-width: 1.0;" x1="190" x2="190" y1="17.9688" y2="19.9688"/><line style="stroke: #AAAAAA; stroke-width: 1.0;" x1="6" x2="80" y1="28.4688" y2="28.4688"/><line style="stroke: #AAAAAA; stroke-width: 1.0;" x1="6" x2="80" y1="30.4688" y2="30.4688"/><text fill="#000000" font-family="sans-serif" font-size="12" lengthAdjust="spacingAndGlyphs" textLength="33" x="6" y="45.1074">Front</text><line style="stroke: #AAAAAA; stroke-width: 1.0;" x1="6" x2="80" y1="53.4375" y2="53.4375"/><text fill="#000000" font-family="sans-serif" font-size="12" lengthAdjust="spacingAndGlyphs" textLength="30" x="6" y="69.0762">Back</text><line style="stroke: #AAAAAA; stroke-width: 1.0;" x1="6" x2="80" y1="77.4063" y2="77.4063"/><text fill="#000000" font-family="sans-serif" font-size="12" lengthAdjust="spacingAndGlyphs" textLength="73" x="6" y="93.0449">Explanation</text><line style="stroke: #AAAAAA; stroke-width: 1.0;" x1="6" x2="80" y1="100.375" y2="100.375"/><line style="stroke: #AAAAAA; stroke-width: 1.0;" x1="6" x2="80" y1="102.375" y2="102.375"/><text fill="#000000" font-family="sans-serif" font-size="12" lengthAdjust="spacingAndGlyphs" textLength="28" x="6" y="117.0137">Next</text><rect fill="#EEEEEE" height="17.9688" rx="5" ry="5" style="stroke: #000000; stroke-width: 2.5;" width="52" x="84.5" y="109.375"/><text fill="#000000" font-family="sans-serif" font-size="12" lengthAdjust="spacingAndGlyphs" textLength="21" x="100" y="122.5137">Flip</text><rect fill="#EEEEEE" height="17.9688" rx="5" ry="5" style="stroke: #000000; stroke-width: 2.5;" width="52" x="143.5" y="109.375"/><text fill="#000000" font-family="sans-serif" font-size="12" lengthAdjust="spacingAndGlyphs" textLength="24" x="157.5" y="122.5137">Edit</text><rect fill="#EEEEEE" height="17.9688" rx="5" ry="5" style="stroke: #000000; stroke-width: 2.5;" width="132" x="202.5" y="109.375"/><text fill="#000000" font-family="sans-serif" font-size="12" lengthAdjust="spacingAndGlyphs" textLength="86" x="225.5" y="122.5137">Edit duplicate</text><line style="stroke: #AAAAAA; stroke-width: 1.0; stroke-dasharray: 1.0,2.0;" x1="6" x2="80" y1="136.3438" y2="136.3438"/><text fill="#000000" font-family="sans-serif" font-size="12" lengthAdjust="spacingAndGlyphs" textLength="52" x="6" y="151.9824">Difficulty</text><rect fill="#EEEEEE" height="17.9688" rx="5" ry="5" style="stroke: #000000; stroke-width: 2.5;" width="60" x="84.5" y="144.3438"/><text fill="#000000" font-family="sans-serif" font-size="12" lengthAdjust="spacingAndGlyphs" textLength="35" x="97" y="157.4824">Again</text><rect fill="#EEEEEE" height="17.9688" rx="5" ry="5" style="stroke: #000000; stroke-width: 2.5;" width="52" x="151.5" y="144.3438"/><text fill="#000000" font-family="sans-serif" font-size="12" lengthAdjust="spacingAndGlyphs" textLength="30" x="162.5" y="157.4824">Hard</text><rect fill="#EEEEEE" height="17.9688" rx="5" ry="5" style="stroke: #000000; stroke-width: 2.5;" width="52" x="210.5" y="144.3438"/><text fill="#000000" font-family="sans-serif" font-size="12" lengthAdjust="spacingAndGlyphs" textLength="33" x="220" y="157.4824">Good</text><rect fill="#EEEEEE" height="17.9688" rx="5" ry="5" style="stroke: #000000; stroke-width: 2.5;" width="52" x="269.5" y="144.3438"/><text fill="#000000" font-family="sans-serif" font-size="12" lengthAdjust="spacingAndGlyphs" textLength="29" x="281" y="157.4824">Easy</text><line style="stroke: #AAAAAA; stroke-width: 1.0; stroke-dasharray: 1.0,2.0;" x1="6" x2="80" y1="171.3125" y2="171.3125"/><text fill="#000000" font-family="sans-serif" font-size="12" lengthAdjust="spacingAndGlyphs" textLength="60" x="6" y="186.9512">Hide card</text><rect fill="#EEEEEE" height="17.9688" rx="5" ry="5" style="stroke: #000000; stroke-width: 2.5;" width="156" x="84.5" y="179.3125"/><text fill="#000000" font-family="sans-serif" font-size="12" lengthAdjust="spacingAndGlyphs" textLength="130" x="97.5" y="192.4512">Suspend/Unsuspend</text><line style="stroke: #000000; stroke-width: 1.0;" x1="5" x2="80" y1="5" y2="5"/><line style="stroke: #000000; stroke-width: 1.0;" x1="80" x2="339" y1="5" y2="5"/><line style="stroke: #000000; stroke-width: 1.0;" x1="5" x2="80" y1="201.7813" y2="201.7813"/><line style="stroke: #000000; stroke-width: 1.0;" x1="80" x2="339" y1="201.7813" y2="201.7813"/><line style="stroke: #000000; stroke-width: 1.0;" x1="5" x2="5" y1="5" y2="24.9688"/><line style="stroke: #000000; stroke-width: 1.0;" x1="339" x2="339" y1="5" y2="24.9688"/><line style="stroke: #000000; stroke-width: 1.0;" x1="5" x2="5" y1="166.8125" y2="174.8125"/><line style="stroke: #000000; stroke-width: 1.0;" x1="339" x2="339" y1="166.8125" y2="174.8125"/><line style="stroke: #000000; stroke-width: 1.0;" x1="5" x2="5" y1="96.875" y2="104.875"/><line style="stroke: #000000; stroke-width: 1.0;" x1="339" x2="339" y1="96.875" y2="104.875"/><line style="stroke: #000000; stroke-width: 1.0;" x1="5" x2="5" y1="48.9375" y2="56.9375"/><line style="stroke: #000000; stroke-width: 1.0;" x1="339" x2="339" y1="48.9375" y2="56.9375"/><line style="stroke: #000000; stroke-width: 1.0;" x1="5" x2="5" y1="139.8438" y2="166.8125"/><line style="stroke: #000000; stroke-width: 1.0;" x1="339" x2="339" y1="139.8438" y2="166.8125"/><line style="stroke: #000000; stroke-width: 1.0;" x1="5" x2="5" y1="80.9063" y2="96.875"/><line style="stroke: #000000; stroke-width: 1.0;" x1="339" x2="339" y1="80.9063" y2="96.875"/><line style="stroke: #000000; stroke-width: 1.0;" x1="5" x2="5" y1="32.9688" y2="48.9375"/><line style="stroke: #000000; stroke-width: 1.0;" x1="339" x2="339" y1="32.9688" y2="48.9375"/><line style="stroke: #000000; stroke-width: 1.0;" x1="5" x2="5" y1="131.8438" y2="139.8438"/><line style="stroke: #000000; stroke-width: 1.0;" x1="339" x2="339" y1="131.8438" y2="139.8438"/><line style="stroke: #000000; stroke-width: 1.0;" x1="5" x2="5" y1="72.9063" y2="80.9063"/><line style="stroke: #000000; stroke-width: 1.0;" x1="339" x2="339" y1="72.9063" y2="80.9063"/><line style="stroke: #000000; stroke-width: 1.0;" x1="5" x2="5" y1="24.9688" y2="32.9688"/><line style="stroke: #000000; stroke-width: 1.0;" x1="339" x2="339" y1="24.9688" y2="32.9688"/><line style="stroke: #000000; stroke-width: 1.0;" x1="5" x2="5" y1="174.8125" y2="201.7813"/><line style="stroke: #000000; stroke-width: 1.0;" x1="339" x2="339" y1="174.8125" y2="201.7813"/><line style="stroke: #000000; stroke-width: 1.0;" x1="5" x2="5" y1="104.875" y2="131.8438"/><line style="stroke: #000000; stroke-width: 1.0;" x1="339" x2="339" y1="104.875" y2="131.8438"/><line style="stroke: #000000; stroke-width: 1.0;" x1="5" x2="5" y1="56.9375" y2="72.9063"/><line style="stroke: #000000; stroke-width: 1.0;" x1="339" x2="339" y1="56.9375" y2="72.9063"/></g></svg>