<?xml version="1.0" encoding="UTF-8" standalone="no"?><svg xmlns="http://www.w3.org/2000/svg" xmlns:xlink="http://www.w3.org/1999/xlink" contentScriptType="application/ecmascript" contentStyleType="text/css" height="267px" preserveAspectRatio="none" style="width:697px;height:267px;" version="1.1" viewBox="0 0 697 267" width="697px" zoomAndPan="magnify"><defs/><g><text fill="#000000" font-family="sans-serif" font-size="12" lengthAdjust="spacingAndGlyphs" textLength="33" x="8" y="19.1387">Front</text><text fill="#000000" font-family="sans-serif" font-size="12" lengthAdjust="spacingAndGlyphs" textLength="62" x="126" y="20.1387">Question?</text><line style="stroke: #000000; stroke-width: 1.0;" x1="124" x2="199" y1="22.9688" y2="22.9688"/><line style="stroke: #000000; stroke-width: 1.0;" x1="124" x2="124" y1="19.9688" y2="21.9688"/><line style="stroke: #000000; stroke-width: 1.0;" x1="199" x2="199" y1="19.9688" y2="21.9688"/><text fill="#000000" font-family="sans-serif" font-size="12" lengthAdjust="spacingAndGlyphs" textLength="60" x="368" y="19.1387">text entry</text><text fill="#000000" font-family="sans-serif" font-size="12" lengthAdjust="spacingAndGlyphs" textLength="30" x="8" y="39.1074">Back</text><text fill="#000000" font-family="sans-serif" font-size="12" lengthAdjust="spacingAndGlyphs" textLength="49" x="126" y="40.1074">Answer.</text><line style="stroke: #000000; stroke-width: 1.0;" x1="124" x2="183" y1="42.9375" y2="42.9375"/><line style="stroke: #000000; stroke-width: 1.0;" x1="124" x2="124" y1="39.9375" y2="41.9375"/><line style="stroke: #000000; stroke-width: 1.0;" x1="183" x2="183" y1="39.9375" y2="41.9375"/><text fill="#000000" font-family="sans-serif" font-size="12" lengthAdjust="spacingAndGlyphs" textLength="60" x="368" y="39.1074">text entry</text><text fill="#000000" font-family="sans-serif" font-size="12" lengthAdjust="spacingAndGlyphs" textLength="73" x="8" y="59.0762">Explanation</text><text fill="#000000" font-family="sans-serif" font-size="12" lengthAdjust="spacingAndGlyphs" textLength="31" x="126" y="60.0762">Why?</text><line style="stroke: #000000; stroke-width: 1.0;" x1="124" x2="159" y1="62.9063" y2="62.9063"/><line style="stroke: #000000; stroke-width: 1.0;" x1="124" x2="124" y1="59.9063" y2="61.9063"/><line style="stroke: #000000; stroke-width: 1.0;" x1="159" x2="159" y1="59.9063" y2="61.9063"/><text fill="#000000" font-family="sans-serif" font-size="12" lengthAdjust="spacingAndGlyphs" textLength="60" x="368" y="59.0762">text entry</text><text fill="#000000" font-family="sans-serif" font-size="12" lengthAdjust="spacingAndGlyphs" textLength="30" x="8" y="79.0449">Tags</text><text fill="#000000" font-family="sans-serif" font-size="12" lengthAdjust="spacingAndGlyphs" textLength="138" x="126" y="80.0449">anatomy::back s1::m1</text><line style="stroke: #000000; stroke-width: 1.0;" x1="124" x2="287" y1="82.875" y2="82.875"/><line style="stroke: #000000; stroke-width: 1.0;" x1="124" x2="124" y1="79.875" y2="81.875"/><line style="stroke: #000000; stroke-width: 1.0;" x1="287" x2="287" y1="79.875" y2="81.875"/><text fill="#000000" font-family="sans-serif" font-size="12" lengthAdjust="spacingAndGlyphs" textLength="43" x="8" y="99.0137">Priority</text><text fill="#000000" font-family="sans-serif" font-size="12" lengthAdjust="spacingAndGlyphs" textLength="22" x="126" y="100.0137">0 ↕</text><line style="stroke: #000000; stroke-width: 1.0;" x1="124" x2="151" y1="102.8438" y2="102.8438"/><line style="stroke: #000000; stroke-width: 1.0;" x1="124" x2="124" y1="99.8438" y2="101.8438"/><line style="stroke: #000000; stroke-width: 1.0;" x1="151" x2="151" y1="99.8438" y2="101.8438"/><text fill="#000000" font-family="sans-serif" font-size="12" lengthAdjust="spacingAndGlyphs" textLength="87" x="8" y="118.9824">Scheduled for</text><text fill="#000000" font-family="sans-serif" font-size="12" lengthAdjust="spacingAndGlyphs" textLength="72" x="126" y="119.9824">2018-05-22</text><line style="stroke: #000000; stroke-width: 1.0;" x1="124" x2="207" y1="122.8125" y2="122.8125"/><line style="stroke: #000000; stroke-width: 1.0;" x1="124" x2="124" y1="119.8125" y2="121.8125"/><line style="stroke: #000000; stroke-width: 1.0;" x1="207" x2="207" y1="119.8125" y2="121.8125"/><text fill="#000000" font-family="sans-serif" font-size="12" lengthAdjust="spacingAndGlyphs" textLength="110" x="368" y="118.9824">(calendar widget)</text><text fill="#000000" font-family="sans-serif" font-size="12" lengthAdjust="spacingAndGlyphs" textLength="64" x="8" y="138.9512">Document</text><line style="stroke: #000000; stroke-width: 1.0;" x1="122" x2="122" y1="134.7969" y2="134.7969"/><line style="stroke: #000000; stroke-width: 1.0;" x1="122" x2="122" y1="134.7969" y2="134.7969"/><line style="stroke: #000000; stroke-width: 1.0;" x1="122" x2="122" y1="134.7969" y2="134.7969"/><line style="stroke: #000000; stroke-width: 1.0;" x1="122" x2="122" y1="134.7969" y2="134.7969"/><rect fill="#FFFFFF" height="13.9688" style="stroke: #FFFFFF; stroke-width: 1.0;" width="46" x="128" y="127.8125"/><text fill="#000000" font-family="sans-serif" font-size="12" lengthAdjust="spacingAndGlyphs" textLength="46" x="128" y="138.9512">Name^</text><text fill="#000000" font-family="sans-serif" font-size="12" lengthAdjust="spacingAndGlyphs" textLength="319" x="368" y="138.9512">(choose from the ones in the document collection)</text><text fill="#000000" font-family="sans-serif" font-size="12" lengthAdjust="spacingAndGlyphs" textLength="32" x="8" y="161.9043">Page</text><rect fill="#EEEEEE" height="16.9688" style="stroke: #000000; stroke-width: 1.0;" width="64" x="123" y="151.7656"/><text fill="#000000" font-family="sans-serif" font-size="12" lengthAdjust="spacingAndGlyphs" textLength="49" x="125" y="164.9043">Number</text><line style="stroke: #000000; stroke-width: 1.0;" x1="176" x2="176" y1="151.7656" y2="168.7344"/><polygon fill="#000000" points="179,157.7656,185,157.7656,182,163.7344" style="stroke: #000000; stroke-width: 1.0;"/><text fill="#000000" font-family="sans-serif" font-size="12" lengthAdjust="spacingAndGlyphs" textLength="276" x="368" y="161.9043">(use the number of pages in the document)</text><text fill="#000000" font-family="sans-serif" font-size="12" lengthAdjust="spacingAndGlyphs" textLength="71" x="8" y="183.873">Cloze regex</text><text fill="#000000" font-family="sans-serif" font-size="12" lengthAdjust="spacingAndGlyphs" textLength="33" x="126" y="184.873">qr/.../</text><line style="stroke: #000000; stroke-width: 1.0;" x1="124" x2="183" y1="187.7031" y2="187.7031"/><line style="stroke: #000000; stroke-width: 1.0;" x1="124" x2="124" y1="184.7031" y2="186.7031"/><line style="stroke: #000000; stroke-width: 1.0;" x1="183" x2="183" y1="184.7031" y2="186.7031"/><text fill="#000000" font-family="sans-serif" font-size="12" lengthAdjust="spacingAndGlyphs" textLength="178" x="187" y="184.873">number of matches on page</text><text fill="#000000" font-family="sans-serif" font-size="12" lengthAdjust="spacingAndGlyphs" textLength="114" x="368" y="183.873">(search the page)</text><text fill="#000000" font-family="sans-serif" font-size="12" lengthAdjust="spacingAndGlyphs" textLength="53" x="8" y="203.8418">Matches</text><text fill="#000000" font-family="sans-serif" font-size="12" lengthAdjust="spacingAndGlyphs" textLength="0" x="130" y="204.8418"/><line style="stroke: #000000; stroke-width: 1.0;" x1="124" x2="131" y1="207.6719" y2="207.6719"/><line style="stroke: #000000; stroke-width: 1.0;" x1="124" x2="124" y1="204.6719" y2="206.6719"/><line style="stroke: #000000; stroke-width: 1.0;" x1="131" x2="131" y1="204.6719" y2="206.6719"/><text fill="#000000" font-family="sans-serif" font-size="12" lengthAdjust="spacingAndGlyphs" textLength="89" x="368" y="203.8418">(blank use all)</text><rect fill="#EEEEEE" height="16.9688" style="stroke: #000000; stroke-width: 1.0;" width="111" x="8" y="212.6719"/><text fill="#000000" font-family="sans-serif" font-size="12" lengthAdjust="spacingAndGlyphs" textLength="78" x="10" y="225.8105">Overlap type</text><line style="stroke: #000000; stroke-width: 1.0;" x1="108" x2="108" y1="212.6719" y2="229.6406"/><polygon fill="#000000" points="111,218.6719,117,218.6719,114,224.6406" style="stroke: #000000; stroke-width: 1.0;"/><rect fill="#EEEEEE" height="17.9688" rx="5" ry="5" style="stroke: #000000; stroke-width: 2.5;" width="52" x="9.5" y="238.1406"/><text fill="#000000" font-family="sans-serif" font-size="12" lengthAdjust="spacingAndGlyphs" textLength="30" x="20.5" y="251.2793">Save</text><rect fill="#EEEEEE" height="17.9688" rx="5" ry="5" style="stroke: #000000; stroke-width: 2.5;" width="60" x="68.5" y="238.1406"/><text fill="#000000" font-family="sans-serif" font-size="12" lengthAdjust="spacingAndGlyphs" textLength="36" x="80.5" y="251.2793">Reset</text><line style="stroke: #000000; stroke-width: 1.0;" x1="5" x2="690" y1="5" y2="5"/><line style="stroke: #000000; stroke-width: 1.0;" x1="5" x2="690" y1="260.6094" y2="260.6094"/><line style="stroke: #000000; stroke-width: 1.0;" x1="5" x2="5" y1="5" y2="233.6406"/><line style="stroke: #000000; stroke-width: 1.0;" x1="690" x2="690" y1="233.6406" y2="260.6094"/><line style="stroke: #000000; stroke-width: 1.0;" x1="690" x2="690" y1="5" y2="233.6406"/><line style="stroke: #000000; stroke-width: 1.0;" x1="5" x2="5" y1="233.6406" y2="260.6094"/></g></svg>