<?xml version="1.0" encoding="UTF-8" standalone="no"?><svg xmlns="http://www.w3.org/2000/svg" xmlns:xlink="http://www.w3.org/1999/xlink" contentScriptType="application/ecmascript" contentStyleType="text/css" height="237px" preserveAspectRatio="none" style="width:482px;height:237px;" version="1.1" viewBox="0 0 482 237" width="482px" zoomAndPan="magnify"><defs/><g><text fill="#000000" font-family="sans-serif" font-size="12" lengthAdjust="spacingAndGlyphs" textLength="93" x="6" y="17.1387">Generate deck</text><text fill="#000000" font-family="sans-serif" font-size="12" lengthAdjust="spacingAndGlyphs" textLength="47" x="102" y="18.1387">Method</text><text fill="#000000" font-family="sans-serif" font-size="12" lengthAdjust="spacingAndGlyphs" textLength="67" x="229" y="19.1387">Sequential</text><ellipse cx="216" cy="14.9844" fill="none" rx="5" ry="5" style="stroke: #000000; stroke-width: 1.5;"/><ellipse cx="216" cy="14.9844" fill="#000000" rx="2" ry="2" style="stroke: #000000; stroke-width: 1.5;"/><text fill="#000000" font-family="sans-serif" font-size="12" lengthAdjust="spacingAndGlyphs" textLength="51" x="318" y="19.1387">Random</text><ellipse cx="305" cy="14.9844" fill="none" rx="5" ry="5" style="stroke: #000000; stroke-width: 1.5;"/><text fill="#000000" font-family="sans-serif" font-size="12" lengthAdjust="spacingAndGlyphs" textLength="24" x="391" y="19.1387">SRS</text><ellipse cx="378" cy="14.9844" fill="none" rx="5" ry="5" style="stroke: #000000; stroke-width: 1.5;"/><text fill="#000000" font-family="sans-serif" font-size="12" lengthAdjust="spacingAndGlyphs" textLength="70" x="102" y="36.1074">Tag search</text><text fill="#000000" font-family="sans-serif" font-size="12" lengthAdjust="spacingAndGlyphs" textLength="154" x="212" y="37.1074">anatomy -anatomy::back</text><line style="stroke: #000000; stroke-width: 1.0;" x1="210" x2="389" y1="39.9375" y2="39.9375"/><line style="stroke: #000000; stroke-width: 1.0;" x1="210" x2="210" y1="36.9375" y2="38.9375"/><line style="stroke: #000000; stroke-width: 1.0;" x1="389" x2="389" y1="36.9375" y2="38.9375"/><rect fill="#EEEEEE" height="17.9688" rx="5" ry="5" style="stroke: #000000; stroke-width: 2.5;" width="60" x="395.5" y="28.4688"/><text fill="#000000" font-family="sans-serif" font-size="12" lengthAdjust="spacingAndGlyphs" textLength="32" x="409.5" y="41.6074">Clear</text><text fill="#000000" font-family="sans-serif" font-size="12" lengthAdjust="spacingAndGlyphs" textLength="104" x="102" y="63.0762">Number of cards</text><text fill="#000000" font-family="sans-serif" font-size="12" lengthAdjust="spacingAndGlyphs" textLength="46" x="212" y="64.0762">2000 ↕</text><line style="stroke: #000000; stroke-width: 1.0;" x1="210" x2="261" y1="66.9063" y2="66.9063"/><line style="stroke: #000000; stroke-width: 1.0;" x1="210" x2="210" y1="63.9063" y2="65.9063"/><line style="stroke: #000000; stroke-width: 1.0;" x1="261" x2="261" y1="63.9063" y2="65.9063"/><text fill="#000000" font-family="sans-serif" font-size="12" lengthAdjust="spacingAndGlyphs" textLength="73" x="265" y="64.0762">/ 5000 total</text><text fill="#000000" font-family="sans-serif" font-size="12" lengthAdjust="spacingAndGlyphs" textLength="49" x="105" y="83.0449">100% ↔</text><line style="stroke: #000000; stroke-width: 1.0;" x1="103" x2="155" y1="85.875" y2="85.875"/><line style="stroke: #000000; stroke-width: 1.0;" x1="103" x2="103" y1="82.875" y2="84.875"/><line style="stroke: #000000; stroke-width: 1.0;" x1="155" x2="155" y1="82.875" y2="84.875"/><rect fill="#EEEEEE" height="17.9688" rx="5" ry="5" style="stroke: #000000; stroke-width: 2.5;" width="260" x="210.5" y="74.4063"/><text fill="#000000" font-family="sans-serif" font-size="12" lengthAdjust="spacingAndGlyphs" textLength="192" x="244.5" y="87.5449">Set number of cards % of total</text><text fill="#000000" font-family="sans-serif" font-size="12" lengthAdjust="spacingAndGlyphs" textLength="75" x="102" y="108.0137">SRS options</text><text fill="#000000" font-family="sans-serif" font-size="12" lengthAdjust="spacingAndGlyphs" textLength="90" x="209" y="109.0137">Steps minutes</text><text fill="#000000" font-family="sans-serif" font-size="12" lengthAdjust="spacingAndGlyphs" textLength="28" x="377" y="109.0137">1 10</text><line style="stroke: #000000; stroke-width: 1.0;" x1="375" x2="410" y1="111.8438" y2="111.8438"/><line style="stroke: #000000; stroke-width: 1.0;" x1="375" x2="375" y1="108.8438" y2="110.8438"/><line style="stroke: #000000; stroke-width: 1.0;" x1="410" x2="410" y1="108.8438" y2="110.8438"/><text fill="#000000" font-family="sans-serif" font-size="12" lengthAdjust="spacingAndGlyphs" textLength="163" x="209" y="126.9824">Graduating interval (days)</text><text fill="#000000" font-family="sans-serif" font-size="12" lengthAdjust="spacingAndGlyphs" textLength="8" x="377" y="126.9824">1</text><line style="stroke: #000000; stroke-width: 1.0;" x1="375" x2="386" y1="129.8125" y2="129.8125"/><line style="stroke: #000000; stroke-width: 1.0;" x1="375" x2="375" y1="126.8125" y2="128.8125"/><line style="stroke: #000000; stroke-width: 1.0;" x1="386" x2="386" y1="126.8125" y2="128.8125"/><text fill="#000000" font-family="sans-serif" font-size="12" lengthAdjust="spacingAndGlyphs" textLength="122" x="209" y="144.9512">Easy interval (days)</text><text fill="#000000" font-family="sans-serif" font-size="12" lengthAdjust="spacingAndGlyphs" textLength="8" x="377" y="144.9512">4</text><line style="stroke: #000000; stroke-width: 1.0;" x1="375" x2="386" y1="147.7813" y2="147.7813"/><line style="stroke: #000000; stroke-width: 1.0;" x1="375" x2="375" y1="144.7813" y2="146.7813"/><line style="stroke: #000000; stroke-width: 1.0;" x1="386" x2="386" y1="144.7813" y2="146.7813"/><text fill="#000000" font-family="sans-serif" font-size="12" lengthAdjust="spacingAndGlyphs" textLength="100" x="209" y="162.9199">Interval modifier</text><text fill="#000000" font-family="sans-serif" font-size="12" lengthAdjust="spacingAndGlyphs" textLength="49" x="377" y="162.9199">100% ↔</text><line style="stroke: #000000; stroke-width: 1.0;" x1="375" x2="427" y1="165.75" y2="165.75"/><line style="stroke: #000000; stroke-width: 1.0;" x1="375" x2="375" y1="162.75" y2="164.75"/><line style="stroke: #000000; stroke-width: 1.0;" x1="427" x2="427" y1="162.75" y2="164.75"/><rect fill="#EEEEEE" height="17.9688" rx="5" ry="5" style="stroke: #000000; stroke-width: 2.5;" width="84" x="104.5" y="173.25"/><text fill="#000000" font-family="sans-serif" font-size="12" lengthAdjust="spacingAndGlyphs" textLength="59" x="117" y="186.3887">Generate</text><line style="stroke: #AAAAAA; stroke-width: 1.0;" x1="6" x2="100" y1="199.2188" y2="199.2188"/><line style="stroke: #AAAAAA; stroke-width: 1.0;" x1="6" x2="100" y1="201.2188" y2="201.2188"/><text fill="#000000" font-family="sans-serif" font-size="12" lengthAdjust="spacingAndGlyphs" textLength="42" x="6" y="215.8574">Review</text><rect fill="#EEEEEE" height="17.9688" rx="5" ry="5" style="stroke: #000000; stroke-width: 2.5;" width="124" x="104.5" y="208.2188"/><text fill="#000000" font-family="sans-serif" font-size="12" lengthAdjust="spacingAndGlyphs" textLength="82" x="125.5" y="221.3574">Start / Pause</text><line style="stroke: #000000; stroke-width: 1.0;" x1="5" x2="100" y1="5" y2="5"/><line style="stroke: #000000; stroke-width: 1.0;" x1="100" x2="475" y1="5" y2="5"/><line style="stroke: #000000; stroke-width: 1.0;" x1="5" x2="100" y1="230.6875" y2="230.6875"/><line style="stroke: #000000; stroke-width: 1.0;" x1="100" x2="475" y1="230.6875" y2="230.6875"/><line style="stroke: #000000; stroke-width: 1.0;" x1="5" x2="5" y1="5" y2="195.7188"/><line style="stroke: #000000; stroke-width: 1.0;" x1="475" x2="475" y1="203.7188" y2="230.6875"/><line style="stroke: #000000; stroke-width: 1.0;" x1="475" x2="475" y1="195.7188" y2="203.7188"/><line style="stroke: #000000; stroke-width: 1.0;" x1="475" x2="475" y1="5" y2="195.7188"/><line style="stroke: #000000; stroke-width: 1.0;" x1="5" x2="5" y1="203.7188" y2="230.6875"/><line style="stroke: #000000; stroke-width: 1.0;" x1="5" x2="5" y1="195.7188" y2="203.7188"/></g></svg>