<?xml version="1.0" encoding="UTF-8" standalone="no"?><svg xmlns="http://www.w3.org/2000/svg" xmlns:xlink="http://www.w3.org/1999/xlink" contentScriptType="application/ecmascript" contentStyleType="text/css" height="390px" preserveAspectRatio="none" style="width:962px;height:390px;" version="1.1" viewBox="0 0 962 390" width="962px" zoomAndPan="magnify"><defs><filter height="300%" id="f190sf0sykxafq" width="300%" x="-1" y="-1"><feGaussianBlur result="blurOut" stdDeviation="2.0"/><feColorMatrix in="blurOut" result="blurOut2" type="matrix" values="0 0 0 0 0 0 0 0 0 0 0 0 0 0 0 0 0 0 .4 0"/><feOffset dx="4.0" dy="4.0" in="blurOut2" result="blurOut3"/><feBlend in="SourceGraphic" in2="blurOut3" mode="normal"/></filter></defs><g><!--class Document--><rect fill="#FEFECE" filter="url(#f190sf0sykxafq)" height="60.8047" id="Document" style="stroke: #A80036; stroke-width: 1.5;" width="108" x="58" y="20.5"/><ellipse cx="78.4" cy="36.5" fill="#ADD1B2" rx="11" ry="11" style="stroke: #A80036; stroke-width: 1.0;"/><path d="M81.3688,42.1406 Q80.7906,42.4375 80.15,42.5781 Q79.5094,42.7344 78.8063,42.7344 Q76.3063,42.7344 74.9781,41.0938 Q73.6656,39.4375 73.6656,36.3125 Q73.6656,33.1875 74.9781,31.5313 Q76.3063,29.875 78.8063,29.875 Q79.5094,29.875 80.15,30.0313 Q80.8063,30.1875 81.3688,30.4844 L81.3688,33.2031 Q80.7438,32.625 80.15,32.3594 Q79.5563,32.0781 78.9313,32.0781 Q77.5875,32.0781 76.9,33.1563 Q76.2125,34.2188 76.2125,36.3125 Q76.2125,38.4063 76.9,39.4844 Q77.5875,40.5469 78.9313,40.5469 Q79.5563,40.5469 80.15,40.2813 Q80.7438,40 81.3688,39.4219 L81.3688,42.1406 Z "/><text fill="#000000" font-family="sans-serif" font-size="12" lengthAdjust="spacingAndGlyphs" textLength="64" x="93.6" y="40.6543">Document</text><line style="stroke: #A80036; stroke-width: 1.5;" x1="59" x2="165" y1="52.5" y2="52.5"/><line style="stroke: #A80036; stroke-width: 1.5;" x1="59" x2="165" y1="60.5" y2="60.5"/><text fill="#000000" font-family="sans-serif" font-size="11" lengthAdjust="spacingAndGlyphs" textLength="96" x="64" y="74.7104">Page get_page();</text><!--class Page--><rect fill="#FEFECE" filter="url(#f190sf0sykxafq)" height="60.8047" id="Page" style="stroke: #A80036; stroke-width: 1.5;" width="212" x="6" y="177.5"/><ellipse cx="91.75" cy="193.5" fill="#ADD1B2" rx="11" ry="11" style="stroke: #A80036; stroke-width: 1.0;"/><path d="M94.7188,199.1406 Q94.1406,199.4375 93.5,199.5781 Q92.8594,199.7344 92.1563,199.7344 Q89.6563,199.7344 88.3281,198.0938 Q87.0156,196.4375 87.0156,193.3125 Q87.0156,190.1875 88.3281,188.5313 Q89.6563,186.875 92.1563,186.875 Q92.8594,186.875 93.5,187.0313 Q94.1563,187.1875 94.7188,187.4844 L94.7188,190.2031 Q94.0938,189.625 93.5,189.3594 Q92.9063,189.0781 92.2813,189.0781 Q90.9375,189.0781 90.25,190.1563 Q89.5625,191.2188 89.5625,193.3125 Q89.5625,195.4063 90.25,196.4844 Q90.9375,197.5469 92.2813,197.5469 Q92.9063,197.5469 93.5,197.2813 Q94.0938,197 94.7188,196.4219 L94.7188,199.1406 Z "/><text fill="#000000" font-family="sans-serif" font-size="12" lengthAdjust="spacingAndGlyphs" textLength="32" x="112.25" y="197.6543">Page</text><line style="stroke: #A80036; stroke-width: 1.5;" x1="7" x2="217" y1="209.5" y2="209.5"/><text fill="#000000" font-family="sans-serif" font-size="11" lengthAdjust="spacingAndGlyphs" textLength="200" x="12" y="223.7104">Transformation @transformations;</text><line style="stroke: #A80036; stroke-width: 1.5;" x1="7" x2="217" y1="230.3047" y2="230.3047"/><!--class View--><rect fill="#FEFECE" filter="url(#f190sf0sykxafq)" height="86.4141" id="View" style="stroke: #A80036; stroke-width: 1.5;" width="212" x="330" y="8"/><ellipse cx="417.75" cy="24" fill="#ADD1B2" rx="11" ry="11" style="stroke: #A80036; stroke-width: 1.0;"/><path d="M420.7188,29.6406 Q420.1406,29.9375 419.5,30.0781 Q418.8594,30.2344 418.1563,30.2344 Q415.6563,30.2344 414.3281,28.5938 Q413.0156,26.9375 413.0156,23.8125 Q413.0156,20.6875 414.3281,19.0313 Q415.6563,17.375 418.1563,17.375 Q418.8594,17.375 419.5,17.5313 Q420.1563,17.6875 420.7188,17.9844 L420.7188,20.7031 Q420.0938,20.125 419.5,19.8594 Q418.9063,19.5781 418.2813,19.5781 Q416.9375,19.5781 416.25,20.6563 Q415.5625,21.7188 415.5625,23.8125 Q415.5625,25.9063 416.25,26.9844 Q416.9375,28.0469 418.2813,28.0469 Q418.9063,28.0469 419.5,27.7813 Q420.0938,27.5 420.7188,26.9219 L420.7188,29.6406 Z "/><text fill="#000000" font-family="sans-serif" font-size="12" lengthAdjust="spacingAndGlyphs" textLength="28" x="438.25" y="28.1543">View</text><line style="stroke: #A80036; stroke-width: 1.5;" x1="331" x2="541" y1="40" y2="40"/><text fill="#000000" font-family="sans-serif" font-size="11" lengthAdjust="spacingAndGlyphs" textLength="200" x="336" y="54.2104">Transformation @transformations;</text><text fill="#000000" font-family="sans-serif" font-size="11" lengthAdjust="spacingAndGlyphs" textLength="79" x="336" y="67.0151">Layout layout;</text><text fill="#000000" font-family="sans-serif" font-size="11" lengthAdjust="spacingAndGlyphs" textLength="138" x="336" y="79.8198">PageRenderer renderer;</text><line style="stroke: #A80036; stroke-width: 1.5;" x1="331" x2="541" y1="86.4141" y2="86.4141"/><!--class Layout--><rect fill="#FEFECE" filter="url(#f190sf0sykxafq)" height="73.6094" id="Layout" style="stroke: #A80036; stroke-width: 1.5;" width="366" x="253" y="171"/><ellipse cx="411.25" cy="187" fill="#ADD1B2" rx="11" ry="11" style="stroke: #A80036; stroke-width: 1.0;"/><path d="M414.2188,192.6406 Q413.6406,192.9375 413,193.0781 Q412.3594,193.2344 411.6563,193.2344 Q409.1563,193.2344 407.8281,191.5938 Q406.5156,189.9375 406.5156,186.8125 Q406.5156,183.6875 407.8281,182.0313 Q409.1563,180.375 411.6563,180.375 Q412.3594,180.375 413,180.5313 Q413.6563,180.6875 414.2188,180.9844 L414.2188,183.7031 Q413.5938,183.125 413,182.8594 Q412.4063,182.5781 411.7813,182.5781 Q410.4375,182.5781 409.75,183.6563 Q409.0625,184.7188 409.0625,186.8125 Q409.0625,188.9063 409.75,189.9844 Q410.4375,191.0469 411.7813,191.0469 Q412.4063,191.0469 413,190.7813 Q413.5938,190.5 414.2188,189.9219 L414.2188,192.6406 Z "/><text fill="#000000" font-family="sans-serif" font-size="12" lengthAdjust="spacingAndGlyphs" textLength="41" x="431.75" y="191.1543">Layout</text><line style="stroke: #A80036; stroke-width: 1.5;" x1="254" x2="618" y1="203" y2="203"/><text fill="#000000" font-family="sans-serif" font-size="11" lengthAdjust="spacingAndGlyphs" textLength="165" x="259" y="217.2104">PositiveInt number_of_items;</text><line style="stroke: #A80036; stroke-width: 1.5;" x1="254" x2="618" y1="223.8047" y2="223.8047"/><text fill="#000000" font-family="sans-serif" font-size="11" lengthAdjust="spacingAndGlyphs" textLength="354" x="259" y="238.0151">GlobalBoundingBox nth_bounding_box( PositiveInt item_num );</text><!--class Grid--><rect fill="#FEFECE" filter="url(#f190sf0sykxafq)" height="73.6094" id="Grid" style="stroke: #A80036; stroke-width: 1.5;" width="170" x="351" y="306"/><ellipse cx="419.25" cy="322" fill="#ADD1B2" rx="11" ry="11" style="stroke: #A80036; stroke-width: 1.0;"/><path d="M422.2188,327.6406 Q421.6406,327.9375 421,328.0781 Q420.3594,328.2344 419.6563,328.2344 Q417.1563,328.2344 415.8281,326.5938 Q414.5156,324.9375 414.5156,321.8125 Q414.5156,318.6875 415.8281,317.0313 Q417.1563,315.375 419.6563,315.375 Q420.3594,315.375 421,315.5313 Q421.6563,315.6875 422.2188,315.9844 L422.2188,318.7031 Q421.5938,318.125 421,317.8594 Q420.4063,317.5781 419.7813,317.5781 Q418.4375,317.5781 417.75,318.6563 Q417.0625,319.7188 417.0625,321.8125 Q417.0625,323.9063 417.75,324.9844 Q418.4375,326.0469 419.7813,326.0469 Q420.4063,326.0469 421,325.7813 Q421.5938,325.5 422.2188,324.9219 L422.2188,327.6406 Z "/><text fill="#000000" font-family="sans-serif" font-size="12" lengthAdjust="spacingAndGlyphs" textLength="25" x="439.75" y="326.1543">Grid</text><line style="stroke: #A80036; stroke-width: 1.5;" x1="352" x2="520" y1="338" y2="338"/><text fill="#000000" font-family="sans-serif" font-size="11" lengthAdjust="spacingAndGlyphs" textLength="138" x="357" y="352.2104">Maybe[PositiveInt] rows;</text><text fill="#000000" font-family="sans-serif" font-size="11" lengthAdjust="spacingAndGlyphs" textLength="158" x="357" y="365.0151">Maybe[PositiveInt] columns;</text><line style="stroke: #A80036; stroke-width: 1.5;" x1="352" x2="520" y1="371.6094" y2="371.6094"/><!--class PageRenderer--><rect fill="#FEFECE" filter="url(#f190sf0sykxafq)" height="60.8047" id="PageRenderer" style="stroke: #A80036; stroke-width: 1.5;" width="374" x="577" y="20.5"/><ellipse cx="714.75" cy="36.5" fill="#ADD1B2" rx="11" ry="11" style="stroke: #A80036; stroke-width: 1.0;"/><path d="M717.7188,42.1406 Q717.1406,42.4375 716.5,42.5781 Q715.8594,42.7344 715.1563,42.7344 Q712.6563,42.7344 711.3281,41.0938 Q710.0156,39.4375 710.0156,36.3125 Q710.0156,33.1875 711.3281,31.5313 Q712.6563,29.875 715.1563,29.875 Q715.8594,29.875 716.5,30.0313 Q717.1563,30.1875 717.7188,30.4844 L717.7188,33.2031 Q717.0938,32.625 716.5,32.3594 Q715.9063,32.0781 715.2813,32.0781 Q713.9375,32.0781 713.25,33.1563 Q712.5625,34.2188 712.5625,36.3125 Q712.5625,38.4063 713.25,39.4844 Q713.9375,40.5469 715.2813,40.5469 Q715.9063,40.5469 716.5,40.2813 Q717.0938,40 717.7188,39.4219 L717.7188,42.1406 Z "/><text fill="#000000" font-family="sans-serif" font-size="12" lengthAdjust="spacingAndGlyphs" textLength="90" x="735.25" y="40.6543">PageRenderer</text><line style="stroke: #A80036; stroke-width: 1.5;" x1="578" x2="950" y1="52.5" y2="52.5"/><line style="stroke: #A80036; stroke-width: 1.5;" x1="578" x2="950" y1="60.5" y2="60.5"/><text fill="#000000" font-family="sans-serif" font-size="11" lengthAdjust="spacingAndGlyphs" textLength="362" x="583" y="74.7104">CairoSurface render_cairo_surface( Page p, Transformation t );</text><!--link Document to Page--><path d="M112,94.553 C112,120.825 112,153.874 112,177.327 " fill="none" id="Document-Page" style="stroke: #A80036; stroke-width: 1.0;"/><polygon fill="#A80036" points="112,81.519,108,87.519,112,93.519,116,87.519,112,81.519" style="stroke: #A80036; stroke-width: 1.0;"/><text fill="#000000" font-family="sans-serif" font-size="13" lengthAdjust="spacingAndGlyphs" textLength="54" x="113" y="137.0669">contains</text><text fill="#000000" font-family="sans-serif" font-size="13" lengthAdjust="spacingAndGlyphs" textLength="36" x="72.2875" y="166.5546">many</text><!--link View to Layout--><path d="M436,107.433 C436,128.486 436,151.909 436,170.745 " fill="none" id="View-Layout" style="stroke: #A80036; stroke-width: 1.0;"/><polygon fill="#A80036" points="436,94.354,432,100.354,436,106.354,440,100.354,436,94.354" style="stroke: #A80036; stroke-width: 1.0;"/><text fill="#000000" font-family="sans-serif" font-size="13" lengthAdjust="spacingAndGlyphs" textLength="8" x="427.2875" y="159.8865">1</text><!--link Layout to Grid--><path d="M436,265.806 C436,279.325 436,293.3898 436,305.7011 " fill="none" id="Layout-Grid" style="stroke: #A80036; stroke-width: 1.0;"/><polygon fill="none" points="429,265.343,436,245.343,443,265.343,429,265.343" style="stroke: #A80036; stroke-width: 1.0;"/><!--
@startuml
Document *- - "many" Page: contains

View *- - "1" Layout

class Layout {
    PositiveInt number_of_items;

    GlobalBoundingBox nth_bounding_box( PositiveInt item_num );
}
class Grid extends Layout {
    Maybe[PositiveInt] rows;
    Maybe[PositiveInt] columns;
}

class Document {
    Page get_page();
}

class Page {
    Transformation @transformations;

}

class View {
    Transformation @transformations;
    Layout layout;
    PageRenderer renderer;
}

class PageRenderer {
    CairoSurface render_cairo_surface( Page p, Transformation t );
}
@enduml

PlantUML version 1.2018.06(Mon May 21 10:34:53 GMT 2018)
(GPL source distribution)
Java Runtime: OpenJDK Runtime Environment
JVM: OpenJDK 64-Bit Server VM
Java Version: 11.0.2+9
Operating System: Linux
OS Version: 4.15.0-1028-gcp
Default Encoding: UTF-8
Language: en
Country: US
--></g></svg>