<?xml version="1.0" encoding="UTF-8" standalone="no"?><svg xmlns="http://www.w3.org/2000/svg" xmlns:xlink="http://www.w3.org/1999/xlink" contentScriptType="application/ecmascript" contentStyleType="text/css" height="513px" preserveAspectRatio="none" style="width:1238px;height:513px;" version="1.1" viewBox="0 0 1238 513" width="1238px" zoomAndPan="magnify"><defs><filter height="300%" id="f1rhyhu2tory58" width="300%" x="-1" y="-1"><feGaussianBlur result="blurOut" stdDeviation="2.0"/><feColorMatrix in="blurOut" result="blurOut2" type="matrix" values="0 0 0 0 0 0 0 0 0 0 0 0 0 0 0 0 0 0 .4 0"/><feOffset dx="4.0" dy="4.0" in="blurOut2" result="blurOut3"/><feBlend in="SourceGraphic" in2="blurOut3" mode="normal"/></filter></defs><g><!--cluster Render--><polygon fill="#FFFFFF" filter="url(#f1rhyhu2tory58)" points="22,43,85,43,92,65.2969,248,65.2969,248,169,22,169,22,43" style="stroke: #000000; stroke-width: 2.0;"/><line style="stroke: #000000; stroke-width: 2.0;" x1="22" x2="92" y1="65.2969" y2="65.2969"/><text fill="#000000" font-family="sans-serif" font-size="14" font-weight="bold" lengthAdjust="spacingAndGlyphs" textLength="57" x="26" y="57.9951">Render</text><!--cluster Layout--><polygon fill="#FFFFFF" filter="url(#f1rhyhu2tory58)" points="272,24,331,24,338,46.2969,650,46.2969,650,188,272,188,272,24" style="stroke: #000000; stroke-width: 2.0;"/><line style="stroke: #000000; stroke-width: 2.0;" x1="272" x2="338" y1="46.2969" y2="46.2969"/><text fill="#000000" font-family="sans-serif" font-size="14" font-weight="bold" lengthAdjust="spacingAndGlyphs" textLength="53" x="276" y="38.9951">Layout</text><!--cluster View::HighLevel--><polygon fill="#FFFFFF" filter="url(#f1rhyhu2tory58)" points="674,30,808,30,815,52.2969,1231,52.2969,1231,506,674,506,674,30" style="stroke: #000000; stroke-width: 2.0;"/><line style="stroke: #000000; stroke-width: 2.0;" x1="674" x2="815" y1="52.2969" y2="52.2969"/><text fill="#000000" font-family="sans-serif" font-size="14" font-weight="bold" lengthAdjust="spacingAndGlyphs" textLength="128" x="678" y="44.9951">View::HighLevel</text><!--class Render::Context--><rect fill="#FEFECE" filter="url(#f1rhyhu2tory58)" height="73.6094" id="Render::Context" style="stroke: #A80036; stroke-width: 1.5;" width="193" x="38.75" y="79"/><ellipse cx="80.75" cy="95" fill="#ADD1B2" rx="11" ry="11" style="stroke: #A80036; stroke-width: 1.0;"/><path d="M83.7188,100.6406 Q83.1406,100.9375 82.5,101.0859 Q81.8594,101.2344 81.1563,101.2344 Q78.6563,101.2344 77.3359,99.5859 Q76.0156,97.9375 76.0156,94.8125 Q76.0156,91.6875 77.3359,90.0313 Q78.6563,88.375 81.1563,88.375 Q81.8594,88.375 82.5078,88.5313 Q83.1563,88.6875 83.7188,88.9844 L83.7188,91.7031 Q83.0938,91.125 82.5,90.8516 Q81.9063,90.5781 81.2813,90.5781 Q79.9375,90.5781 79.25,91.6484 Q78.5625,92.7188 78.5625,94.8125 Q78.5625,96.9063 79.25,97.9766 Q79.9375,99.0469 81.2813,99.0469 Q81.9063,99.0469 82.5,98.7734 Q83.0938,98.5 83.7188,97.9219 L83.7188,100.6406 Z "/><text fill="#000000" font-family="sans-serif" font-size="12" lengthAdjust="spacingAndGlyphs" textLength="101" x="100.75" y="99.1543">Render::Context</text><line style="stroke: #A80036; stroke-width: 1.5;" x1="39.75" x2="230.75" y1="111" y2="111"/><text fill="#000000" font-family="sans-serif" font-size="11" lengthAdjust="spacingAndGlyphs" textLength="181" x="44.75" y="125.2104">BoundingRect viewport_bounds;</text><text fill="#000000" font-family="sans-serif" font-size="11" lengthAdjust="spacingAndGlyphs" textLength="74" x="44.75" y="138.0151">ZoomType z;</text><line style="stroke: #A80036; stroke-width: 1.5;" x1="39.75" x2="230.75" y1="144.6094" y2="144.6094"/><!--class Layout::Grid--><rect fill="#FEFECE" filter="url(#f1rhyhu2tory58)" height="112.0234" id="Layout::Grid" style="stroke: #A80036; stroke-width: 1.5;" width="193" x="440.75" y="60"/><ellipse cx="496" cy="76" fill="#ADD1B2" rx="11" ry="11" style="stroke: #A80036; stroke-width: 1.0;"/><path d="M498.9688,81.6406 Q498.3906,81.9375 497.75,82.0859 Q497.1094,82.2344 496.4063,82.2344 Q493.9063,82.2344 492.5859,80.5859 Q491.2656,78.9375 491.2656,75.8125 Q491.2656,72.6875 492.5859,71.0313 Q493.9063,69.375 496.4063,69.375 Q497.1094,69.375 497.7578,69.5313 Q498.4063,69.6875 498.9688,69.9844 L498.9688,72.7031 Q498.3438,72.125 497.75,71.8516 Q497.1563,71.5781 496.5313,71.5781 Q495.1875,71.5781 494.5,72.6484 Q493.8125,73.7188 493.8125,75.8125 Q493.8125,77.9063 494.5,78.9766 Q495.1875,80.0469 496.5313,80.0469 Q497.1563,80.0469 497.75,79.7734 Q498.3438,79.5 498.9688,78.9219 L498.9688,81.6406 Z "/><text fill="#000000" font-family="sans-serif" font-size="12" lengthAdjust="spacingAndGlyphs" textLength="74" x="516.5" y="80.1543">Layout::Grid</text><line style="stroke: #A80036; stroke-width: 1.5;" x1="441.75" x2="632.75" y1="92" y2="92"/><text fill="#000000" font-family="sans-serif" font-size="11" lengthAdjust="spacingAndGlyphs" textLength="83" x="446.75" y="106.2104">GridOptions g;</text><text fill="#000000" font-family="sans-serif" font-size="11" lengthAdjust="spacingAndGlyphs" textLength="105" x="446.75" y="119.0151">Layout::Context lc;</text><text fill="#000000" font-family="sans-serif" font-size="11" lengthAdjust="spacingAndGlyphs" textLength="119" x="446.75" y="131.8198">Layout @sublayouts;</text><text fill="#000000" font-family="sans-serif" font-size="11" lengthAdjust="spacingAndGlyphs" textLength="127" x="446.75" y="144.6245">BoundingRect bounds;</text><line style="stroke: #A80036; stroke-width: 1.5;" x1="441.75" x2="632.75" y1="151.2188" y2="151.2188"/><text fill="#000000" font-family="sans-serif" font-size="11" lengthAdjust="spacingAndGlyphs" textLength="181" x="446.75" y="165.4292">SizeRequest get_size_request();</text><!--class Layout::Page--><rect fill="#FEFECE" filter="url(#f1rhyhu2tory58)" height="73.6094" id="Layout::Page" style="stroke: #A80036; stroke-width: 1.5;" width="117" x="288.75" y="79"/><ellipse cx="305.55" cy="95" fill="#ADD1B2" rx="11" ry="11" style="stroke: #A80036; stroke-width: 1.0;"/><path d="M308.5188,100.6406 Q307.9406,100.9375 307.3,101.0859 Q306.6594,101.2344 305.9563,101.2344 Q303.4563,101.2344 302.1359,99.5859 Q300.8156,97.9375 300.8156,94.8125 Q300.8156,91.6875 302.1359,90.0313 Q303.4563,88.375 305.9563,88.375 Q306.6594,88.375 307.3078,88.5313 Q307.9563,88.6875 308.5188,88.9844 L308.5188,91.7031 Q307.8938,91.125 307.3,90.8516 Q306.7063,90.5781 306.0813,90.5781 Q304.7375,90.5781 304.05,91.6484 Q303.3625,92.7188 303.3625,94.8125 Q303.3625,96.9063 304.05,97.9766 Q304.7375,99.0469 306.0813,99.0469 Q306.7063,99.0469 307.3,98.7734 Q307.8938,98.5 308.5188,97.9219 L308.5188,100.6406 Z "/><text fill="#000000" font-family="sans-serif" font-size="12" lengthAdjust="spacingAndGlyphs" textLength="81" x="319.95" y="99.1543">Layout::Page</text><line style="stroke: #A80036; stroke-width: 1.5;" x1="289.75" x2="404.75" y1="111" y2="111"/><text fill="#000000" font-family="sans-serif" font-size="11" lengthAdjust="spacingAndGlyphs" textLength="43" x="294.75" y="125.2104">Page p;</text><text fill="#000000" font-family="sans-serif" font-size="11" lengthAdjust="spacingAndGlyphs" textLength="105" x="294.75" y="138.0151">Layout::Context lc;</text><line style="stroke: #A80036; stroke-width: 1.5;" x1="289.75" x2="404.75" y1="144.6094" y2="144.6094"/><!--class ViewOptions--><rect fill="#FEFECE" filter="url(#f1rhyhu2tory58)" height="99.2188" id="ViewOptions" style="stroke: #A80036; stroke-width: 1.5;" width="108" x="925" y="66.5"/><ellipse cx="940" cy="82.5" fill="#ADD1B2" rx="11" ry="11" style="stroke: #A80036; stroke-width: 1.0;"/><path d="M942.9688,88.1406 Q942.3906,88.4375 941.75,88.5859 Q941.1094,88.7344 940.4063,88.7344 Q937.9063,88.7344 936.5859,87.0859 Q935.2656,85.4375 935.2656,82.3125 Q935.2656,79.1875 936.5859,77.5313 Q937.9063,75.875 940.4063,75.875 Q941.1094,75.875 941.7578,76.0313 Q942.4063,76.1875 942.9688,76.4844 L942.9688,79.2031 Q942.3438,78.625 941.75,78.3516 Q941.1563,78.0781 940.5313,78.0781 Q939.1875,78.0781 938.5,79.1484 Q937.8125,80.2188 937.8125,82.3125 Q937.8125,84.4063 938.5,85.4766 Q939.1875,86.5469 940.5313,86.5469 Q941.1563,86.5469 941.75,86.2734 Q942.3438,86 942.9688,85.4219 L942.9688,88.1406 Z "/><text fill="#000000" font-family="sans-serif" font-size="12" lengthAdjust="spacingAndGlyphs" textLength="76" x="954" y="86.6543">ViewOptions</text><line style="stroke: #A80036; stroke-width: 1.5;" x1="926" x2="1032" y1="98.5" y2="98.5"/><text fill="#000000" font-family="sans-serif" font-size="11" lengthAdjust="spacingAndGlyphs" textLength="72" x="931" y="112.7104">Document d;</text><text fill="#000000" font-family="sans-serif" font-size="11" lengthAdjust="spacingAndGlyphs" textLength="83" x="931" y="125.5151">GridOptions g;</text><text fill="#000000" font-family="sans-serif" font-size="11" lengthAdjust="spacingAndGlyphs" textLength="91" x="931" y="138.3198">ZoomOptions z;</text><text fill="#000000" font-family="sans-serif" font-size="11" lengthAdjust="spacingAndGlyphs" textLength="94" x="931" y="151.1245">OffsetOptions o;</text><line style="stroke: #A80036; stroke-width: 1.5;" x1="926" x2="1032" y1="157.7188" y2="157.7188"/><!--class GridOptions--><rect fill="#FEFECE" filter="url(#f1rhyhu2tory58)" height="73.6094" id="GridOptions" style="stroke: #A80036; stroke-width: 1.5;" width="170" x="690" y="252"/><ellipse cx="734.25" cy="268" fill="#ADD1B2" rx="11" ry="11" style="stroke: #A80036; stroke-width: 1.0;"/><path d="M737.2188,273.6406 Q736.6406,273.9375 736,274.0859 Q735.3594,274.2344 734.6563,274.2344 Q732.1563,274.2344 730.8359,272.5859 Q729.5156,270.9375 729.5156,267.8125 Q729.5156,264.6875 730.8359,263.0313 Q732.1563,261.375 734.6563,261.375 Q735.3594,261.375 736.0078,261.5313 Q736.6563,261.6875 737.2188,261.9844 L737.2188,264.7031 Q736.5938,264.125 736,263.8516 Q735.4063,263.5781 734.7813,263.5781 Q733.4375,263.5781 732.75,264.6484 Q732.0625,265.7188 732.0625,267.8125 Q732.0625,269.9063 732.75,270.9766 Q733.4375,272.0469 734.7813,272.0469 Q735.4063,272.0469 736,271.7734 Q736.5938,271.5 737.2188,270.9219 L737.2188,273.6406 Z "/><text fill="#000000" font-family="sans-serif" font-size="12" lengthAdjust="spacingAndGlyphs" textLength="73" x="754.75" y="272.1543">GridOptions</text><line style="stroke: #A80036; stroke-width: 1.5;" x1="691" x2="859" y1="284" y2="284"/><text fill="#000000" font-family="sans-serif" font-size="11" lengthAdjust="spacingAndGlyphs" textLength="138" x="696" y="298.2104">Maybe[PositiveInt] rows;</text><text fill="#000000" font-family="sans-serif" font-size="11" lengthAdjust="spacingAndGlyphs" textLength="158" x="696" y="311.0151">Maybe[PositiveInt] columns;</text><line style="stroke: #A80036; stroke-width: 1.5;" x1="691" x2="859" y1="317.6094" y2="317.6094"/><!--class ZoomOptions--><rect fill="#FEFECE" filter="url(#f1rhyhu2tory58)" height="73.6094" id="ZoomOptions" style="stroke: #A80036; stroke-width: 1.5;" width="167" x="895.75" y="252"/><ellipse cx="933.7" cy="268" fill="#ADD1B2" rx="11" ry="11" style="stroke: #A80036; stroke-width: 1.0;"/><path d="M936.6688,273.6406 Q936.0906,273.9375 935.45,274.0859 Q934.8094,274.2344 934.1063,274.2344 Q931.6063,274.2344 930.2859,272.5859 Q928.9656,270.9375 928.9656,267.8125 Q928.9656,264.6875 930.2859,263.0313 Q931.6063,261.375 934.1063,261.375 Q934.8094,261.375 935.4578,261.5313 Q936.1063,261.6875 936.6688,261.9844 L936.6688,264.7031 Q936.0438,264.125 935.45,263.8516 Q934.8563,263.5781 934.2313,263.5781 Q932.8875,263.5781 932.2,264.6484 Q931.5125,265.7188 931.5125,267.8125 Q931.5125,269.9063 932.2,270.9766 Q932.8875,272.0469 934.2313,272.0469 Q934.8563,272.0469 935.45,271.7734 Q936.0438,271.5 936.6688,270.9219 L936.6688,273.6406 Z "/><text fill="#000000" font-family="sans-serif" font-size="12" lengthAdjust="spacingAndGlyphs" textLength="84" x="952.8" y="272.1543">ZoomOptions</text><line style="stroke: #A80036; stroke-width: 1.5;" x1="896.75" x2="1061.75" y1="284" y2="284"/><text fill="#000000" font-family="sans-serif" font-size="11" lengthAdjust="spacingAndGlyphs" textLength="74" x="915.75" y="298.2104">ZoomType z;</text><rect fill="none" height="6" style="stroke: #C82930; stroke-width: 1.0;" width="6" x="903.75" y="305.707"/><text fill="#000000" font-family="sans-serif" font-size="11" lengthAdjust="spacingAndGlyphs" textLength="141" x="915.75" y="311.0151">Float _zoom_percentage;</text><line style="stroke: #A80036; stroke-width: 1.5;" x1="896.75" x2="1061.75" y1="317.6094" y2="317.6094"/><!--class OffsetOptions--><rect fill="#FEFECE" filter="url(#f1rhyhu2tory58)" height="48" id="OffsetOptions" style="stroke: #A80036; stroke-width: 1.5;" width="117" x="1097.75" y="265"/><ellipse cx="1112.75" cy="281" fill="#ADD1B2" rx="11" ry="11" style="stroke: #A80036; stroke-width: 1.0;"/><path d="M1115.7188,286.6406 Q1115.1406,286.9375 1114.5,287.0859 Q1113.8594,287.2344 1113.1563,287.2344 Q1110.6563,287.2344 1109.3359,285.5859 Q1108.0156,283.9375 1108.0156,280.8125 Q1108.0156,277.6875 1109.3359,276.0313 Q1110.6563,274.375 1113.1563,274.375 Q1113.8594,274.375 1114.5078,274.5313 Q1115.1563,274.6875 1115.7188,274.9844 L1115.7188,277.7031 Q1115.0938,277.125 1114.5,276.8516 Q1113.9063,276.5781 1113.2813,276.5781 Q1111.9375,276.5781 1111.25,277.6484 Q1110.5625,278.7188 1110.5625,280.8125 Q1110.5625,282.9063 1111.25,283.9766 Q1111.9375,285.0469 1113.2813,285.0469 Q1113.9063,285.0469 1114.5,284.7734 Q1115.0938,284.5 1115.7188,283.9219 L1115.7188,286.6406 Z "/><text fill="#000000" font-family="sans-serif" font-size="12" lengthAdjust="spacingAndGlyphs" textLength="85" x="1126.75" y="285.1543">OffsetOptions</text><line style="stroke: #A80036; stroke-width: 1.5;" x1="1098.75" x2="1213.75" y1="297" y2="297"/><line style="stroke: #A80036; stroke-width: 1.5;" x1="1098.75" x2="1213.75" y1="305" y2="305"/><!--class ZoomType--><rect fill="#FEFECE" filter="url(#f1rhyhu2tory58)" height="86.4141" id="ZoomType" style="stroke: #A80036; stroke-width: 1.5;" width="97" x="930.75" y="404"/><ellipse cx="945.75" cy="420" fill="#EB937F" rx="11" ry="11" style="stroke: #A80036; stroke-width: 1.0;"/><path d="M949.8594,426 L942.1406,426 L942.1406,413.6094 L949.8594,413.6094 L949.8594,415.7656 L944.5938,415.7656 L944.5938,418.4375 L949.3594,418.4375 L949.3594,420.5938 L944.5938,420.5938 L944.5938,423.8438 L949.8594,423.8438 L949.8594,426 Z "/><text fill="#000000" font-family="sans-serif" font-size="12" lengthAdjust="spacingAndGlyphs" textLength="65" x="959.75" y="424.1543">ZoomType</text><line style="stroke: #A80036; stroke-width: 1.5;" x1="931.75" x2="1026.75" y1="436" y2="436"/><text fill="#000000" font-family="sans-serif" font-size="11" lengthAdjust="spacingAndGlyphs" textLength="78" x="936.75" y="450.2104">PERCENTAGE;</text><text fill="#000000" font-family="sans-serif" font-size="11" lengthAdjust="spacingAndGlyphs" textLength="61" x="936.75" y="463.0151">FIT_WIDTH;</text><text fill="#000000" font-family="sans-serif" font-size="11" lengthAdjust="spacingAndGlyphs" textLength="68" x="936.75" y="475.8198">FIT_HEIGHT;</text><line style="stroke: #A80036; stroke-width: 1.5;" x1="931.75" x2="1026.75" y1="482.4141" y2="482.4141"/><!--link ViewOptions to GridOptions--><path d="M914.846,170.776 C883.314,197.207 846.159,228.352 818.075,251.893 " fill="none" id="ViewOptions-GridOptions" style="stroke: #A80036; stroke-width: 1.0;"/><polygon fill="#A80036" points="924.867,162.376,917.6991,163.1644,915.67,170.0841,922.8379,169.2957,924.867,162.376" style="stroke: #A80036; stroke-width: 1.0;"/><text fill="#000000" font-family="sans-serif" font-size="13" lengthAdjust="spacingAndGlyphs" textLength="54" x="872" y="217.0669">contains</text><text fill="#000000" font-family="sans-serif" font-size="13" lengthAdjust="spacingAndGlyphs" textLength="8" x="814.9052" y="241.0164">1</text><!--link ViewOptions to ZoomOptions--><path d="M979,178.815 C979,203.328 979,230.66 979,251.846 " fill="none" id="ViewOptions-ZoomOptions" style="stroke: #A80036; stroke-width: 1.0;"/><polygon fill="#A80036" points="979,165.544,975,171.544,979,177.544,983,171.544,979,165.544" style="stroke: #A80036; stroke-width: 1.0;"/><text fill="#000000" font-family="sans-serif" font-size="13" lengthAdjust="spacingAndGlyphs" textLength="54" x="980" y="217.0669">contains</text><text fill="#000000" font-family="sans-serif" font-size="13" lengthAdjust="spacingAndGlyphs" textLength="8" x="969.1961" y="240.9622">1</text><!--link ViewOptions to OffsetOptions--><path d="M1038.95,174.922 C1070.87,205.759 1108.34,241.957 1132.12,264.933 " fill="none" id="ViewOptions-OffsetOptions" style="stroke: #A80036; stroke-width: 1.0;"/><polygon fill="#A80036" points="1029.25,165.544,1030.7871,172.5894,1037.8817,173.8803,1036.3446,166.8349,1029.25,165.544" style="stroke: #A80036; stroke-width: 1.0;"/><text fill="#000000" font-family="sans-serif" font-size="13" lengthAdjust="spacingAndGlyphs" textLength="54" x="1084" y="217.0669">contains</text><text fill="#000000" font-family="sans-serif" font-size="13" lengthAdjust="spacingAndGlyphs" textLength="8" x="1116.7478" y="253.8904">1</text><!--link ZoomOptions to ZoomType--><path d="M979,339.305 C979,360.08 979,384.012 979,403.938 " fill="none" id="ZoomOptions-ZoomType" style="stroke: #A80036; stroke-width: 1.0;"/><polygon fill="#A80036" points="979,326.182,975,332.182,979,338.182,983,332.182,979,326.182" style="stroke: #A80036; stroke-width: 1.0;"/><text fill="#000000" font-family="sans-serif" font-size="13" lengthAdjust="spacingAndGlyphs" textLength="54" x="980" y="369.0669">contains</text><text fill="#000000" font-family="sans-serif" font-size="13" lengthAdjust="spacingAndGlyphs" textLength="8" x="969.2945" y="393.0574">1</text><!--
@startuml
' ./uml-7fac5de6e6395f18adc08b62c7543494242bcc23.svg
package Render {
    class Render::Context
}

class Render::Context {
    BoundingRect viewport_bounds;
    ZoomType z;
}

package Layout {
    class Layout::Grid
    class Layout::Page
}

class Layout::Grid {
    GridOptions g;

    Layout::Context lc;

    Layout @sublayouts;

    BoundingRect bounds;

    SizeRequest get_size_request();
}

class Layout::Page {
    Page p;

    Layout::Context lc;
}

package View::HighLevel {
    ViewOptions *- - "1" GridOptions: contains
    ViewOptions *- - "1" ZoomOptions: contains
    ViewOptions *- - "1" OffsetOptions: contains
    ZoomOptions *- - "1" ZoomType: contains
}

class ViewOptions {
    Document d;
    GridOptions g;
    ZoomOptions z;
    OffsetOptions o;
}

class ZoomOptions {
    ZoomType z;
    -Float _zoom_percentage;
}

enum ZoomType {
    PERCENTAGE;
    FIT_WIDTH;
    FIT_HEIGHT;
}

class GridOptions {
    Maybe[PositiveInt] rows;
    Maybe[PositiveInt] columns;
}
@enduml

PlantUML version 1.2017.12(Wed Apr 26 16:06:36 GMT 2017)
(GPL source distribution)
Java Runtime: Java(TM) SE Runtime Environment
JVM: Java HotSpot(TM) 64-Bit Server VM
Java Version: 1.8.0_111-b14
Operating System: Linux
OS Version: 4.4.0-51-generic
Default Encoding: UTF-8
Language: en
Country: US
--></g></svg>