<?xml version="1.0" encoding="UTF-8" standalone="no"?><svg xmlns="http://www.w3.org/2000/svg" xmlns:xlink="http://www.w3.org/1999/xlink" contentScriptType="application/ecmascript" contentStyleType="text/css" height="499px" preserveAspectRatio="none" style="width:586px;height:499px;" version="1.1" viewBox="0 0 586 499" width="586px" zoomAndPan="magnify"><defs><filter height="300%" id="f1nkvckwe4yhxr" width="300%" x="-1" y="-1"><feGaussianBlur result="blurOut" stdDeviation="2.0"/><feColorMatrix in="blurOut" result="blurOut2" type="matrix" values="0 0 0 0 0 0 0 0 0 0 0 0 0 0 0 0 0 0 .4 0"/><feOffset dx="4.0" dy="4.0" in="blurOut2" result="blurOut3"/><feBlend in="SourceGraphic" in2="blurOut3" mode="normal"/></filter></defs><g><!--cluster View::HighLevel--><polygon fill="#FFFFFF" filter="url(#f1nkvckwe4yhxr)" points="22,24,156,24,163,46.2969,579,46.2969,579,492,22,492,22,24" style="stroke: #000000; stroke-width: 2.0;"/><line style="stroke: #000000; stroke-width: 2.0;" x1="22" x2="163" y1="46.2969" y2="46.2969"/><text fill="#000000" font-family="sans-serif" font-size="14" font-weight="bold" lengthAdjust="spacingAndGlyphs" textLength="128" x="26" y="38.9951">View::HighLevel</text><!--class ViewOptions--><rect fill="#FEFECE" filter="url(#f1nkvckwe4yhxr)" height="99.2188" id="ViewOptions" style="stroke: #A80036; stroke-width: 1.5;" width="108" x="273" y="60.5"/><ellipse cx="288" cy="76.5" fill="#ADD1B2" rx="11" ry="11" style="stroke: #A80036; stroke-width: 1.0;"/><path d="M290.9688,82.1406 Q290.3906,82.4375 289.75,82.5859 Q289.1094,82.7344 288.4063,82.7344 Q285.9063,82.7344 284.5859,81.0859 Q283.2656,79.4375 283.2656,76.3125 Q283.2656,73.1875 284.5859,71.5313 Q285.9063,69.875 288.4063,69.875 Q289.1094,69.875 289.7578,70.0313 Q290.4063,70.1875 290.9688,70.4844 L290.9688,73.2031 Q290.3438,72.625 289.75,72.3516 Q289.1563,72.0781 288.5313,72.0781 Q287.1875,72.0781 286.5,73.1484 Q285.8125,74.2188 285.8125,76.3125 Q285.8125,78.4063 286.5,79.4766 Q287.1875,80.5469 288.5313,80.5469 Q289.1563,80.5469 289.75,80.2734 Q290.3438,80 290.9688,79.4219 L290.9688,82.1406 Z "/><text fill="#000000" font-family="sans-serif" font-size="12" lengthAdjust="spacingAndGlyphs" textLength="76" x="302" y="80.6543">ViewOptions</text><line style="stroke: #A80036; stroke-width: 1.5;" x1="274" x2="380" y1="92.5" y2="92.5"/><text fill="#000000" font-family="sans-serif" font-size="11" lengthAdjust="spacingAndGlyphs" textLength="72" x="279" y="106.7104">Document d;</text><text fill="#000000" font-family="sans-serif" font-size="11" lengthAdjust="spacingAndGlyphs" textLength="83" x="279" y="119.5151">GridOptions g;</text><text fill="#000000" font-family="sans-serif" font-size="11" lengthAdjust="spacingAndGlyphs" textLength="91" x="279" y="132.3198">ZoomOptions z;</text><text fill="#000000" font-family="sans-serif" font-size="11" lengthAdjust="spacingAndGlyphs" textLength="94" x="279" y="145.1245">OffsetOptions o;</text><line style="stroke: #A80036; stroke-width: 1.5;" x1="274" x2="380" y1="151.7188" y2="151.7188"/><!--class GridOptions--><rect fill="#FEFECE" filter="url(#f1nkvckwe4yhxr)" height="73.6094" id="GridOptions" style="stroke: #A80036; stroke-width: 1.5;" width="170" x="38" y="238"/><ellipse cx="82.25" cy="254" fill="#ADD1B2" rx="11" ry="11" style="stroke: #A80036; stroke-width: 1.0;"/><path d="M85.2188,259.6406 Q84.6406,259.9375 84,260.0859 Q83.3594,260.2344 82.6563,260.2344 Q80.1563,260.2344 78.8359,258.5859 Q77.5156,256.9375 77.5156,253.8125 Q77.5156,250.6875 78.8359,249.0313 Q80.1563,247.375 82.6563,247.375 Q83.3594,247.375 84.0078,247.5313 Q84.6563,247.6875 85.2188,247.9844 L85.2188,250.7031 Q84.5938,250.125 84,249.8516 Q83.4063,249.5781 82.7813,249.5781 Q81.4375,249.5781 80.75,250.6484 Q80.0625,251.7188 80.0625,253.8125 Q80.0625,255.9063 80.75,256.9766 Q81.4375,258.0469 82.7813,258.0469 Q83.4063,258.0469 84,257.7734 Q84.5938,257.5 85.2188,256.9219 L85.2188,259.6406 Z "/><text fill="#000000" font-family="sans-serif" font-size="12" lengthAdjust="spacingAndGlyphs" textLength="73" x="102.75" y="258.1543">GridOptions</text><line style="stroke: #A80036; stroke-width: 1.5;" x1="39" x2="207" y1="270" y2="270"/><text fill="#000000" font-family="sans-serif" font-size="11" lengthAdjust="spacingAndGlyphs" textLength="138" x="44" y="284.2104">Maybe[PositiveInt] rows;</text><text fill="#000000" font-family="sans-serif" font-size="11" lengthAdjust="spacingAndGlyphs" textLength="158" x="44" y="297.0151">Maybe[PositiveInt] columns;</text><line style="stroke: #A80036; stroke-width: 1.5;" x1="39" x2="207" y1="303.6094" y2="303.6094"/><!--class ZoomOptions--><rect fill="#FEFECE" filter="url(#f1nkvckwe4yhxr)" height="73.6094" id="ZoomOptions" style="stroke: #A80036; stroke-width: 1.5;" width="167" x="243.75" y="238"/><ellipse cx="281.7" cy="254" fill="#ADD1B2" rx="11" ry="11" style="stroke: #A80036; stroke-width: 1.0;"/><path d="M284.6688,259.6406 Q284.0906,259.9375 283.45,260.0859 Q282.8094,260.2344 282.1063,260.2344 Q279.6063,260.2344 278.2859,258.5859 Q276.9656,256.9375 276.9656,253.8125 Q276.9656,250.6875 278.2859,249.0313 Q279.6063,247.375 282.1063,247.375 Q282.8094,247.375 283.4578,247.5313 Q284.1063,247.6875 284.6688,247.9844 L284.6688,250.7031 Q284.0438,250.125 283.45,249.8516 Q282.8563,249.5781 282.2313,249.5781 Q280.8875,249.5781 280.2,250.6484 Q279.5125,251.7188 279.5125,253.8125 Q279.5125,255.9063 280.2,256.9766 Q280.8875,258.0469 282.2313,258.0469 Q282.8563,258.0469 283.45,257.7734 Q284.0438,257.5 284.6688,256.9219 L284.6688,259.6406 Z "/><text fill="#000000" font-family="sans-serif" font-size="12" lengthAdjust="spacingAndGlyphs" textLength="84" x="300.8" y="258.1543">ZoomOptions</text><line style="stroke: #A80036; stroke-width: 1.5;" x1="244.75" x2="409.75" y1="270" y2="270"/><text fill="#000000" font-family="sans-serif" font-size="11" lengthAdjust="spacingAndGlyphs" textLength="74" x="263.75" y="284.2104">ZoomType z;</text><rect fill="none" height="6" style="stroke: #C82930; stroke-width: 1.0;" width="6" x="251.75" y="291.707"/><text fill="#000000" font-family="sans-serif" font-size="11" lengthAdjust="spacingAndGlyphs" textLength="141" x="263.75" y="297.0151">Float _zoom_percentage;</text><line style="stroke: #A80036; stroke-width: 1.5;" x1="244.75" x2="409.75" y1="303.6094" y2="303.6094"/><!--class OffsetOptions--><rect fill="#FEFECE" filter="url(#f1nkvckwe4yhxr)" height="48" id="OffsetOptions" style="stroke: #A80036; stroke-width: 1.5;" width="117" x="445.75" y="251"/><ellipse cx="460.75" cy="267" fill="#ADD1B2" rx="11" ry="11" style="stroke: #A80036; stroke-width: 1.0;"/><path d="M463.7188,272.6406 Q463.1406,272.9375 462.5,273.0859 Q461.8594,273.2344 461.1563,273.2344 Q458.6563,273.2344 457.3359,271.5859 Q456.0156,269.9375 456.0156,266.8125 Q456.0156,263.6875 457.3359,262.0313 Q458.6563,260.375 461.1563,260.375 Q461.8594,260.375 462.5078,260.5313 Q463.1563,260.6875 463.7188,260.9844 L463.7188,263.7031 Q463.0938,263.125 462.5,262.8516 Q461.9063,262.5781 461.2813,262.5781 Q459.9375,262.5781 459.25,263.6484 Q458.5625,264.7188 458.5625,266.8125 Q458.5625,268.9063 459.25,269.9766 Q459.9375,271.0469 461.2813,271.0469 Q461.9063,271.0469 462.5,270.7734 Q463.0938,270.5 463.7188,269.9219 L463.7188,272.6406 Z "/><text fill="#000000" font-family="sans-serif" font-size="12" lengthAdjust="spacingAndGlyphs" textLength="85" x="474.75" y="271.1543">OffsetOptions</text><line style="stroke: #A80036; stroke-width: 1.5;" x1="446.75" x2="561.75" y1="283" y2="283"/><line style="stroke: #A80036; stroke-width: 1.5;" x1="446.75" x2="561.75" y1="291" y2="291"/><!--class ZoomType--><rect fill="#FEFECE" filter="url(#f1nkvckwe4yhxr)" height="86.4141" id="ZoomType" style="stroke: #A80036; stroke-width: 1.5;" width="97" x="278.75" y="390"/><ellipse cx="293.75" cy="406" fill="#EB937F" rx="11" ry="11" style="stroke: #A80036; stroke-width: 1.0;"/><path d="M297.8594,412 L290.1406,412 L290.1406,399.6094 L297.8594,399.6094 L297.8594,401.7656 L292.5938,401.7656 L292.5938,404.4375 L297.3594,404.4375 L297.3594,406.5938 L292.5938,406.5938 L292.5938,409.8438 L297.8594,409.8438 L297.8594,412 Z "/><text fill="#000000" font-family="sans-serif" font-size="12" lengthAdjust="spacingAndGlyphs" textLength="65" x="307.75" y="410.1543">ZoomType</text><line style="stroke: #A80036; stroke-width: 1.5;" x1="279.75" x2="374.75" y1="422" y2="422"/><text fill="#000000" font-family="sans-serif" font-size="11" lengthAdjust="spacingAndGlyphs" textLength="78" x="284.75" y="436.2104">PERCENTAGE;</text><text fill="#000000" font-family="sans-serif" font-size="11" lengthAdjust="spacingAndGlyphs" textLength="61" x="284.75" y="449.0151">FIT_WIDTH;</text><text fill="#000000" font-family="sans-serif" font-size="11" lengthAdjust="spacingAndGlyphs" textLength="68" x="284.75" y="461.8198">FIT_HEIGHT;</text><line style="stroke: #A80036; stroke-width: 1.5;" x1="279.75" x2="374.75" y1="468.4141" y2="468.4141"/><!--link ViewOptions to GridOptions--><path d="M262.662,162.407 C231.911,186.978 195.847,215.794 168.07,237.989 " fill="none" id="ViewOptions-GridOptions" style="stroke: #A80036; stroke-width: 1.0;"/><polygon fill="#A80036" points="272.867,154.253,265.6826,154.8728,263.4914,161.7429,270.6759,161.1231,272.867,154.253" style="stroke: #A80036; stroke-width: 1.0;"/><text fill="#000000" font-family="sans-serif" font-size="13" lengthAdjust="spacingAndGlyphs" textLength="54" x="226" y="203.0669">contains</text><text fill="#000000" font-family="sans-serif" font-size="13" lengthAdjust="spacingAndGlyphs" textLength="8" x="165.4562" y="226.8443">1</text><!--link ViewOptions to ZoomOptions--><path d="M327,173.19 C327,195.032 327,218.836 327,237.827 " fill="none" id="ViewOptions-ZoomOptions" style="stroke: #A80036; stroke-width: 1.0;"/><polygon fill="#A80036" points="327,159.905,323,165.905,327,171.905,331,165.905,327,159.905" style="stroke: #A80036; stroke-width: 1.0;"/><text fill="#000000" font-family="sans-serif" font-size="13" lengthAdjust="spacingAndGlyphs" textLength="54" x="328" y="203.0669">contains</text><text fill="#000000" font-family="sans-serif" font-size="13" lengthAdjust="spacingAndGlyphs" textLength="8" x="317.1961" y="226.9403">1</text><!--link ViewOptions to OffsetOptions--><path d="M389.913,168.937 C420.672,197.263 455.942,229.744 479.024,251 " fill="none" id="ViewOptions-OffsetOptions" style="stroke: #A80036; stroke-width: 1.0;"/><polygon fill="#A80036" points="380.106,159.905,381.8097,166.912,388.9329,168.0343,387.2292,161.0274,380.106,159.905" style="stroke: #A80036; stroke-width: 1.0;"/><text fill="#000000" font-family="sans-serif" font-size="13" lengthAdjust="spacingAndGlyphs" textLength="54" x="432" y="203.0669">contains</text><text fill="#000000" font-family="sans-serif" font-size="13" lengthAdjust="spacingAndGlyphs" textLength="8" x="463.4121" y="239.972">1</text><!--link ZoomOptions to ZoomType--><path d="M327,325.305 C327,346.08 327,370.012 327,389.938 " fill="none" id="ZoomOptions-ZoomType" style="stroke: #A80036; stroke-width: 1.0;"/><polygon fill="#A80036" points="327,312.182,323,318.182,327,324.182,331,318.182,327,312.182" style="stroke: #A80036; stroke-width: 1.0;"/><text fill="#000000" font-family="sans-serif" font-size="13" lengthAdjust="spacingAndGlyphs" textLength="54" x="328" y="355.0669">contains</text><text fill="#000000" font-family="sans-serif" font-size="13" lengthAdjust="spacingAndGlyphs" textLength="8" x="317.2945" y="379.0574">1</text><!--
@startuml
' ./uml-8e1a920961635f1a8c917c51226875197c606076.svg
package View::HighLevel {
    ViewOptions *- - "1" GridOptions: contains
    ViewOptions *- - "1" ZoomOptions: contains
    ViewOptions *- - "1" OffsetOptions: contains
    ZoomOptions *- - "1" ZoomType: contains
}

class ViewOptions {
    Document d;
    GridOptions g;
    ZoomOptions z;
    OffsetOptions o;
}

class ZoomOptions {
    ZoomType z;
    -Float _zoom_percentage;
}

enum ZoomType {
    PERCENTAGE;
    FIT_WIDTH;
    FIT_HEIGHT;
}

class GridOptions {
    Maybe[PositiveInt] rows;
    Maybe[PositiveInt] columns;
}
@enduml

PlantUML version 1.2017.12(Wed Apr 26 16:06:36 GMT 2017)
(GPL source distribution)
Java Runtime: Java(TM) SE Runtime Environment
JVM: Java HotSpot(TM) 64-Bit Server VM
Java Version: 1.8.0_111-b14
Operating System: Linux
OS Version: 4.4.0-51-generic
Default Encoding: UTF-8
Language: en
Country: US
--></g></svg>