<?xml version="1.0" encoding="UTF-8" standalone="no"?><svg xmlns="http://www.w3.org/2000/svg" xmlns:xlink="http://www.w3.org/1999/xlink" contentScriptType="application/ecmascript" contentStyleType="text/css" height="390px" preserveAspectRatio="none" style="width:960px;height:390px;" version="1.1" viewBox="0 0 960 390" width="960px" zoomAndPan="magnify"><defs><filter height="300%" id="fbqhe631qdi3m" width="300%" x="-1" y="-1"><feGaussianBlur result="blurOut" stdDeviation="2.0"/><feColorMatrix in="blurOut" result="blurOut2" type="matrix" values="0 0 0 0 0 0 0 0 0 0 0 0 0 0 0 0 0 0 .4 0"/><feOffset dx="4.0" dy="4.0" in="blurOut2" result="blurOut3"/><feBlend in="SourceGraphic" in2="blurOut3" mode="normal"/></filter></defs><g><!--class Document--><rect fill="#FEFECE" filter="url(#fbqhe631qdi3m)" height="60.8047" id="Document" style="stroke: #A80036; stroke-width: 1.5;" width="108" x="57.5" y="20.5"/><ellipse cx="77.9" cy="36.5" fill="#ADD1B2" rx="11" ry="11" style="stroke: #A80036; stroke-width: 1.0;"/><path d="M80.8688,42.1406 Q80.2906,42.4375 79.65,42.5859 Q79.0094,42.7344 78.3063,42.7344 Q75.8063,42.7344 74.4859,41.0859 Q73.1656,39.4375 73.1656,36.3125 Q73.1656,33.1875 74.4859,31.5313 Q75.8063,29.875 78.3063,29.875 Q79.0094,29.875 79.6578,30.0313 Q80.3063,30.1875 80.8688,30.4844 L80.8688,33.2031 Q80.2438,32.625 79.65,32.3516 Q79.0563,32.0781 78.4313,32.0781 Q77.0875,32.0781 76.4,33.1484 Q75.7125,34.2188 75.7125,36.3125 Q75.7125,38.4063 76.4,39.4766 Q77.0875,40.5469 78.4313,40.5469 Q79.0563,40.5469 79.65,40.2734 Q80.2438,40 80.8688,39.4219 L80.8688,42.1406 Z "/><text fill="#000000" font-family="sans-serif" font-size="12" lengthAdjust="spacingAndGlyphs" textLength="64" x="93.1" y="40.6543">Document</text><line style="stroke: #A80036; stroke-width: 1.5;" x1="58.5" x2="164.5" y1="52.5" y2="52.5"/><line style="stroke: #A80036; stroke-width: 1.5;" x1="58.5" x2="164.5" y1="60.5" y2="60.5"/><text fill="#000000" font-family="sans-serif" font-size="11" lengthAdjust="spacingAndGlyphs" textLength="96" x="63.5" y="74.7104">Page get_page();</text><!--class Page--><rect fill="#FEFECE" filter="url(#fbqhe631qdi3m)" height="60.8047" id="Page" style="stroke: #A80036; stroke-width: 1.5;" width="212" x="6" y="178.5"/><ellipse cx="91.75" cy="194.5" fill="#ADD1B2" rx="11" ry="11" style="stroke: #A80036; stroke-width: 1.0;"/><path d="M94.7188,200.1406 Q94.1406,200.4375 93.5,200.5859 Q92.8594,200.7344 92.1563,200.7344 Q89.6563,200.7344 88.3359,199.0859 Q87.0156,197.4375 87.0156,194.3125 Q87.0156,191.1875 88.3359,189.5313 Q89.6563,187.875 92.1563,187.875 Q92.8594,187.875 93.5078,188.0313 Q94.1563,188.1875 94.7188,188.4844 L94.7188,191.2031 Q94.0938,190.625 93.5,190.3516 Q92.9063,190.0781 92.2813,190.0781 Q90.9375,190.0781 90.25,191.1484 Q89.5625,192.2188 89.5625,194.3125 Q89.5625,196.4063 90.25,197.4766 Q90.9375,198.5469 92.2813,198.5469 Q92.9063,198.5469 93.5,198.2734 Q94.0938,198 94.7188,197.4219 L94.7188,200.1406 Z "/><text fill="#000000" font-family="sans-serif" font-size="12" lengthAdjust="spacingAndGlyphs" textLength="32" x="112.25" y="198.6543">Page</text><line style="stroke: #A80036; stroke-width: 1.5;" x1="7" x2="217" y1="210.5" y2="210.5"/><text fill="#000000" font-family="sans-serif" font-size="11" lengthAdjust="spacingAndGlyphs" textLength="200" x="12" y="224.7104">Transformation @transformations;</text><line style="stroke: #A80036; stroke-width: 1.5;" x1="7" x2="217" y1="231.3047" y2="231.3047"/><!--class View--><rect fill="#FEFECE" filter="url(#fbqhe631qdi3m)" height="86.4141" id="View" style="stroke: #A80036; stroke-width: 1.5;" width="212" x="330" y="8"/><ellipse cx="417.75" cy="24" fill="#ADD1B2" rx="11" ry="11" style="stroke: #A80036; stroke-width: 1.0;"/><path d="M420.7188,29.6406 Q420.1406,29.9375 419.5,30.0859 Q418.8594,30.2344 418.1563,30.2344 Q415.6563,30.2344 414.3359,28.5859 Q413.0156,26.9375 413.0156,23.8125 Q413.0156,20.6875 414.3359,19.0313 Q415.6563,17.375 418.1563,17.375 Q418.8594,17.375 419.5078,17.5313 Q420.1563,17.6875 420.7188,17.9844 L420.7188,20.7031 Q420.0938,20.125 419.5,19.8516 Q418.9063,19.5781 418.2813,19.5781 Q416.9375,19.5781 416.25,20.6484 Q415.5625,21.7188 415.5625,23.8125 Q415.5625,25.9063 416.25,26.9766 Q416.9375,28.0469 418.2813,28.0469 Q418.9063,28.0469 419.5,27.7734 Q420.0938,27.5 420.7188,26.9219 L420.7188,29.6406 Z "/><text fill="#000000" font-family="sans-serif" font-size="12" lengthAdjust="spacingAndGlyphs" textLength="28" x="438.25" y="28.1543">View</text><line style="stroke: #A80036; stroke-width: 1.5;" x1="331" x2="541" y1="40" y2="40"/><text fill="#000000" font-family="sans-serif" font-size="11" lengthAdjust="spacingAndGlyphs" textLength="200" x="336" y="54.2104">Transformation @transformations;</text><text fill="#000000" font-family="sans-serif" font-size="11" lengthAdjust="spacingAndGlyphs" textLength="79" x="336" y="67.0151">Layout layout;</text><text fill="#000000" font-family="sans-serif" font-size="11" lengthAdjust="spacingAndGlyphs" textLength="138" x="336" y="79.8198">PageRenderer renderer;</text><line style="stroke: #A80036; stroke-width: 1.5;" x1="331" x2="541" y1="86.4141" y2="86.4141"/><!--class Layout--><rect fill="#FEFECE" filter="url(#fbqhe631qdi3m)" height="73.6094" id="Layout" style="stroke: #A80036; stroke-width: 1.5;" width="366" x="252.5" y="172"/><ellipse cx="410.75" cy="188" fill="#ADD1B2" rx="11" ry="11" style="stroke: #A80036; stroke-width: 1.0;"/><path d="M413.7188,193.6406 Q413.1406,193.9375 412.5,194.0859 Q411.8594,194.2344 411.1563,194.2344 Q408.6563,194.2344 407.3359,192.5859 Q406.0156,190.9375 406.0156,187.8125 Q406.0156,184.6875 407.3359,183.0313 Q408.6563,181.375 411.1563,181.375 Q411.8594,181.375 412.5078,181.5313 Q413.1563,181.6875 413.7188,181.9844 L413.7188,184.7031 Q413.0938,184.125 412.5,183.8516 Q411.9063,183.5781 411.2813,183.5781 Q409.9375,183.5781 409.25,184.6484 Q408.5625,185.7188 408.5625,187.8125 Q408.5625,189.9063 409.25,190.9766 Q409.9375,192.0469 411.2813,192.0469 Q411.9063,192.0469 412.5,191.7734 Q413.0938,191.5 413.7188,190.9219 L413.7188,193.6406 Z "/><text fill="#000000" font-family="sans-serif" font-size="12" lengthAdjust="spacingAndGlyphs" textLength="41" x="431.25" y="192.1543">Layout</text><line style="stroke: #A80036; stroke-width: 1.5;" x1="253.5" x2="617.5" y1="204" y2="204"/><text fill="#000000" font-family="sans-serif" font-size="11" lengthAdjust="spacingAndGlyphs" textLength="165" x="258.5" y="218.2104">PositiveInt number_of_items;</text><line style="stroke: #A80036; stroke-width: 1.5;" x1="253.5" x2="617.5" y1="224.8047" y2="224.8047"/><text fill="#000000" font-family="sans-serif" font-size="11" lengthAdjust="spacingAndGlyphs" textLength="354" x="258.5" y="239.0151">GlobalBoundingBox nth_bounding_box( PositiveInt item_num );</text><!--class Grid--><rect fill="#FEFECE" filter="url(#fbqhe631qdi3m)" height="73.6094" id="Grid" style="stroke: #A80036; stroke-width: 1.5;" width="170" x="350.5" y="308"/><ellipse cx="418.75" cy="324" fill="#ADD1B2" rx="11" ry="11" style="stroke: #A80036; stroke-width: 1.0;"/><path d="M421.7188,329.6406 Q421.1406,329.9375 420.5,330.0859 Q419.8594,330.2344 419.1563,330.2344 Q416.6563,330.2344 415.3359,328.5859 Q414.0156,326.9375 414.0156,323.8125 Q414.0156,320.6875 415.3359,319.0313 Q416.6563,317.375 419.1563,317.375 Q419.8594,317.375 420.5078,317.5313 Q421.1563,317.6875 421.7188,317.9844 L421.7188,320.7031 Q421.0938,320.125 420.5,319.8516 Q419.9063,319.5781 419.2813,319.5781 Q417.9375,319.5781 417.25,320.6484 Q416.5625,321.7188 416.5625,323.8125 Q416.5625,325.9063 417.25,326.9766 Q417.9375,328.0469 419.2813,328.0469 Q419.9063,328.0469 420.5,327.7734 Q421.0938,327.5 421.7188,326.9219 L421.7188,329.6406 Z "/><text fill="#000000" font-family="sans-serif" font-size="12" lengthAdjust="spacingAndGlyphs" textLength="25" x="439.25" y="328.1543">Grid</text><line style="stroke: #A80036; stroke-width: 1.5;" x1="351.5" x2="519.5" y1="340" y2="340"/><text fill="#000000" font-family="sans-serif" font-size="11" lengthAdjust="spacingAndGlyphs" textLength="138" x="356.5" y="354.2104">Maybe[PositiveInt] rows;</text><text fill="#000000" font-family="sans-serif" font-size="11" lengthAdjust="spacingAndGlyphs" textLength="158" x="356.5" y="367.0151">Maybe[PositiveInt] columns;</text><line style="stroke: #A80036; stroke-width: 1.5;" x1="351.5" x2="519.5" y1="373.6094" y2="373.6094"/><!--class PageRenderer--><rect fill="#FEFECE" filter="url(#fbqhe631qdi3m)" height="60.8047" id="PageRenderer" style="stroke: #A80036; stroke-width: 1.5;" width="374" x="577" y="20.5"/><ellipse cx="714.75" cy="36.5" fill="#ADD1B2" rx="11" ry="11" style="stroke: #A80036; stroke-width: 1.0;"/><path d="M717.7188,42.1406 Q717.1406,42.4375 716.5,42.5859 Q715.8594,42.7344 715.1563,42.7344 Q712.6563,42.7344 711.3359,41.0859 Q710.0156,39.4375 710.0156,36.3125 Q710.0156,33.1875 711.3359,31.5313 Q712.6563,29.875 715.1563,29.875 Q715.8594,29.875 716.5078,30.0313 Q717.1563,30.1875 717.7188,30.4844 L717.7188,33.2031 Q717.0938,32.625 716.5,32.3516 Q715.9063,32.0781 715.2813,32.0781 Q713.9375,32.0781 713.25,33.1484 Q712.5625,34.2188 712.5625,36.3125 Q712.5625,38.4063 713.25,39.4766 Q713.9375,40.5469 715.2813,40.5469 Q715.9063,40.5469 716.5,40.2734 Q717.0938,40 717.7188,39.4219 L717.7188,42.1406 Z "/><text fill="#000000" font-family="sans-serif" font-size="12" lengthAdjust="spacingAndGlyphs" textLength="90" x="735.25" y="40.6543">PageRenderer</text><line style="stroke: #A80036; stroke-width: 1.5;" x1="578" x2="950" y1="52.5" y2="52.5"/><line style="stroke: #A80036; stroke-width: 1.5;" x1="578" x2="950" y1="60.5" y2="60.5"/><text fill="#000000" font-family="sans-serif" font-size="11" lengthAdjust="spacingAndGlyphs" textLength="362" x="583" y="74.7104">CairoSurface render_cairo_surface( Page p, Transformation t );</text><!--link Document to Page--><path d="M111.5,94.872 C111.5,121.405 111.5,154.794 111.5,178.401 " fill="none" id="Document-Page" style="stroke: #A80036; stroke-width: 1.0;"/><polygon fill="#A80036" points="111.5,81.71,107.5,87.71,111.5,93.71,115.5,87.71,111.5,81.71" style="stroke: #A80036; stroke-width: 1.0;"/><text fill="#000000" font-family="sans-serif" font-size="13" lengthAdjust="spacingAndGlyphs" textLength="54" x="112.5" y="137.0669">contains</text><text fill="#000000" font-family="sans-serif" font-size="13" lengthAdjust="spacingAndGlyphs" textLength="36" x="71.0266" y="167.5326">many</text><!--link View to Layout--><path d="M435.5,107.493 C435.5,128.881 435.5,152.739 435.5,171.841 " fill="none" id="View-Layout" style="stroke: #A80036; stroke-width: 1.0;"/><polygon fill="#A80036" points="435.5,94.216,431.5,100.216,435.5,106.216,439.5,100.216,435.5,94.216" style="stroke: #A80036; stroke-width: 1.0;"/><text fill="#000000" font-family="sans-serif" font-size="13" lengthAdjust="spacingAndGlyphs" textLength="8" x="425.7344" y="160.9564">1</text><!--link Layout to Grid--><path d="M435.5,266.593 C435.5,280.511 435.5,295.044 435.5,307.7087 " fill="none" id="Layout-Grid" style="stroke: #A80036; stroke-width: 1.0;"/><polygon fill="none" points="428.5,266.262,435.5,246.262,442.5,266.262,428.5,266.262" style="stroke: #A80036; stroke-width: 1.0;"/><!--
@startuml
' ./uml-b925a69734a4a417779bb7999a7f8e1341335419.svg
Document *- - "many" Page: contains

View *- - "1" Layout

class Layout {
    PositiveInt number_of_items;

    GlobalBoundingBox nth_bounding_box( PositiveInt item_num );
}
class Grid extends Layout {
    Maybe[PositiveInt] rows;
    Maybe[PositiveInt] columns;
}

class Document {
    Page get_page();
}

class Page {
    Transformation @transformations;

}

class View {
    Transformation @transformations;
    Layout layout;
    PageRenderer renderer;
}

class PageRenderer {
    CairoSurface render_cairo_surface( Page p, Transformation t );
}
@enduml

PlantUML version 1.2017.12(Wed Apr 26 16:06:36 GMT 2017)
(GPL source distribution)
Java Runtime: Java(TM) SE Runtime Environment
JVM: Java HotSpot(TM) 64-Bit Server VM
Java Version: 1.8.0_131-b11
Operating System: Linux
OS Version: 4.11.6-041106-generic
Default Encoding: UTF-8
Language: en
Country: US
--></g></svg>