<?xml version="1.0" encoding="UTF-8" standalone="no"?><svg xmlns="http://www.w3.org/2000/svg" xmlns:xlink="http://www.w3.org/1999/xlink" contentScriptType="application/ecmascript" contentStyleType="text/css" height="550px" preserveAspectRatio="none" style="width:1404px;height:550px;" version="1.1" viewBox="0 0 1404 550" width="1404px" zoomAndPan="magnify"><defs><filter height="300%" id="favylu7yh462s" width="300%" x="-1" y="-1"><feGaussianBlur result="blurOut" stdDeviation="2.0"/><feColorMatrix in="blurOut" result="blurOut2" type="matrix" values="0 0 0 0 0 0 0 0 0 0 0 0 0 0 0 0 0 0 .4 0"/><feOffset dx="4.0" dy="4.0" in="blurOut2" result="blurOut3"/><feBlend in="SourceGraphic" in2="blurOut3" mode="normal"/></filter></defs><g><!--cluster Geometry--><polygon fill="#FFFFFF" filter="url(#favylu7yh462s)" points="333,401,417,401,424,423.2969,801,423.2969,801,538,333,538,333,401" style="stroke: #000000; stroke-width: 1.5;"/><line style="stroke: #000000; stroke-width: 1.5;" x1="333" x2="424" y1="423.2969" y2="423.2969"/><text fill="#000000" font-family="sans-serif" font-size="14" font-weight="bold" lengthAdjust="spacingAndGlyphs" textLength="78" x="337" y="415.9951">Geometry</text><!--cluster Render--><polygon fill="#FFFFFF" filter="url(#favylu7yh462s)" points="470,221,533,221,540,243.2969,760,243.2969,760,346,470,346,470,221" style="stroke: #000000; stroke-width: 1.5;"/><line style="stroke: #000000; stroke-width: 1.5;" x1="470" x2="540" y1="243.2969" y2="243.2969"/><text fill="#000000" font-family="sans-serif" font-size="14" font-weight="bold" lengthAdjust="spacingAndGlyphs" textLength="57" x="474" y="235.9951">Render</text><!--cluster Layout--><polygon fill="#FFFFFF" filter="url(#favylu7yh462s)" points="22,36.5,81,36.5,88,58.7969,396,58.7969,396,352,22,352,22,36.5" style="stroke: #000000; stroke-width: 1.5;"/><line style="stroke: #000000; stroke-width: 1.5;" x1="22" x2="88" y1="58.7969" y2="58.7969"/><text fill="#000000" font-family="sans-serif" font-size="14" font-weight="bold" lengthAdjust="spacingAndGlyphs" textLength="53" x="26" y="51.4951">Layout</text><!--cluster View::HighLevel--><polygon fill="#FFFFFF" filter="url(#favylu7yh462s)" points="825,24,959,24,966,46.2969,1382,46.2969,1382,538,825,538,825,24" style="stroke: #000000; stroke-width: 1.5;"/><line style="stroke: #000000; stroke-width: 1.5;" x1="825" x2="966" y1="46.2969" y2="46.2969"/><text fill="#000000" font-family="sans-serif" font-size="14" font-weight="bold" lengthAdjust="spacingAndGlyphs" textLength="128" x="829" y="38.9951">View::HighLevel</text><!--class Geometry::GlobalPosition;--><rect fill="#FEFECE" filter="url(#favylu7yh462s)" height="48" id="Geometry::GlobalPosition;" style="stroke: #A80036; stroke-width: 1.5;" width="193" x="591.5" y="455"/><ellipse cx="606.5" cy="471" fill="#ADD1B2" rx="11" ry="11" style="stroke: #A80036; stroke-width: 1.0;"/><path d="M609.4688,476.6406 Q608.8906,476.9375 608.25,477.0781 Q607.6094,477.2344 606.9063,477.2344 Q604.4063,477.2344 603.0781,475.5938 Q601.7656,473.9375 601.7656,470.8125 Q601.7656,467.6875 603.0781,466.0313 Q604.4063,464.375 606.9063,464.375 Q607.6094,464.375 608.25,464.5313 Q608.9063,464.6875 609.4688,464.9844 L609.4688,467.7031 Q608.8438,467.125 608.25,466.8594 Q607.6563,466.5781 607.0313,466.5781 Q605.6875,466.5781 605,467.6563 Q604.3125,468.7188 604.3125,470.8125 Q604.3125,472.9063 605,473.9844 Q605.6875,475.0469 607.0313,475.0469 Q607.6563,475.0469 608.25,474.7813 Q608.8438,474.5 609.4688,473.9219 L609.4688,476.6406 Z "/><text fill="#000000" font-family="sans-serif" font-size="12" lengthAdjust="spacingAndGlyphs" textLength="161" x="620.5" y="475.1543">Geometry::GlobalPosition;</text><line style="stroke: #A80036; stroke-width: 1.5;" x1="592.5" x2="783.5" y1="487" y2="487"/><line style="stroke: #A80036; stroke-width: 1.5;" x1="592.5" x2="783.5" y1="495" y2="495"/><!--class Geometry::BoundingRect--><rect fill="#FEFECE" filter="url(#favylu7yh462s)" height="86.4141" id="Geometry::BoundingRect" style="stroke: #A80036; stroke-width: 1.5;" width="207" x="349.5" y="436"/><ellipse cx="373.5" cy="452" fill="#ADD1B2" rx="11" ry="11" style="stroke: #A80036; stroke-width: 1.0;"/><path d="M376.4688,457.6406 Q375.8906,457.9375 375.25,458.0781 Q374.6094,458.2344 373.9063,458.2344 Q371.4063,458.2344 370.0781,456.5938 Q368.7656,454.9375 368.7656,451.8125 Q368.7656,448.6875 370.0781,447.0313 Q371.4063,445.375 373.9063,445.375 Q374.6094,445.375 375.25,445.5313 Q375.9063,445.6875 376.4688,445.9844 L376.4688,448.7031 Q375.8438,448.125 375.25,447.8594 Q374.6563,447.5781 374.0313,447.5781 Q372.6875,447.5781 372,448.6563 Q371.3125,449.7188 371.3125,451.8125 Q371.3125,453.9063 372,454.9844 Q372.6875,456.0469 374.0313,456.0469 Q374.6563,456.0469 375.25,455.7813 Q375.8438,455.5 376.4688,454.9219 L376.4688,457.6406 Z "/><text fill="#000000" font-family="sans-serif" font-size="12" lengthAdjust="spacingAndGlyphs" textLength="155" x="389.5" y="456.1543">Geometry::BoundingRect</text><line style="stroke: #A80036; stroke-width: 1.5;" x1="350.5" x2="555.5" y1="468" y2="468"/><text fill="#000000" font-family="sans-serif" font-size="11" lengthAdjust="spacingAndGlyphs" textLength="195" x="355.5" y="482.2104">Geometry::GlobalPosition top_left;</text><text fill="#000000" font-family="sans-serif" font-size="11" lengthAdjust="spacingAndGlyphs" textLength="108" x="355.5" y="495.0151">PositiveNum width;</text><text fill="#000000" font-family="sans-serif" font-size="11" lengthAdjust="spacingAndGlyphs" textLength="113" x="355.5" y="507.8198">PositiveNum height;</text><line style="stroke: #A80036; stroke-width: 1.5;" x1="350.5" x2="555.5" y1="514.4141" y2="514.4141"/><!--class Render::Context--><rect fill="#FEFECE" filter="url(#favylu7yh462s)" height="73.6094" id="Render::Context" style="stroke: #A80036; stroke-width: 1.5;" width="257" x="486.5" y="256"/><ellipse cx="560.25" cy="272" fill="#ADD1B2" rx="11" ry="11" style="stroke: #A80036; stroke-width: 1.0;"/><path d="M563.2188,277.6406 Q562.6406,277.9375 562,278.0781 Q561.3594,278.2344 560.6563,278.2344 Q558.1563,278.2344 556.8281,276.5938 Q555.5156,274.9375 555.5156,271.8125 Q555.5156,268.6875 556.8281,267.0313 Q558.1563,265.375 560.6563,265.375 Q561.3594,265.375 562,265.5313 Q562.6563,265.6875 563.2188,265.9844 L563.2188,268.7031 Q562.5938,268.125 562,267.8594 Q561.4063,267.5781 560.7813,267.5781 Q559.4375,267.5781 558.75,268.6563 Q558.0625,269.7188 558.0625,271.8125 Q558.0625,273.9063 558.75,274.9844 Q559.4375,276.0469 560.7813,276.0469 Q561.4063,276.0469 562,275.7813 Q562.5938,275.5 563.2188,274.9219 L563.2188,277.6406 Z "/><text fill="#000000" font-family="sans-serif" font-size="12" lengthAdjust="spacingAndGlyphs" textLength="101" x="580.75" y="276.1543">Render::Context</text><line style="stroke: #A80036; stroke-width: 1.5;" x1="487.5" x2="742.5" y1="288" y2="288"/><text fill="#000000" font-family="sans-serif" font-size="11" lengthAdjust="spacingAndGlyphs" textLength="245" x="492.5" y="302.2104">Geometry::BoundingRect viewport_bounds;</text><text fill="#000000" font-family="sans-serif" font-size="11" lengthAdjust="spacingAndGlyphs" textLength="74" x="492.5" y="315.0151">ZoomType z;</text><line style="stroke: #A80036; stroke-width: 1.5;" x1="487.5" x2="742.5" y1="321.6094" y2="321.6094"/><!--class Role::Layoutable--><rect fill="#FEFECE" filter="url(#favylu7yh462s)" height="73.6094" id="Role::Layoutable" style="stroke: #A80036; stroke-width: 1.5;" width="203" x="177.5" y="71.5"/><ellipse cx="223.25" cy="87.5" fill="#B4A7E5" rx="11" ry="11" style="stroke: #A80036; stroke-width: 1.0;"/><path d="M219.1719,83.2656 L219.1719,81.1094 L226.5625,81.1094 L226.5625,83.2656 L224.0938,83.2656 L224.0938,91.3438 L226.5625,91.3438 L226.5625,93.5 L219.1719,93.5 L219.1719,91.3438 L221.6406,91.3438 L221.6406,83.2656 L219.1719,83.2656 Z "/><text fill="#000000" font-family="sans-serif" font-size="12" font-style="italic" lengthAdjust="spacingAndGlyphs" textLength="103" x="243.75" y="91.6543">Role::Layoutable</text><line style="stroke: #A80036; stroke-width: 1.5;" x1="178.5" x2="379.5" y1="103.5" y2="103.5"/><text fill="#000000" font-family="sans-serif" font-size="11" lengthAdjust="spacingAndGlyphs" textLength="191" x="183.5" y="117.7104">Geometry::BoundingRect bounds;</text><text fill="#000000" font-family="sans-serif" font-size="11" lengthAdjust="spacingAndGlyphs" textLength="108" x="183.5" y="130.5151">Render::Context lc;</text><line style="stroke: #A80036; stroke-width: 1.5;" x1="178.5" x2="379.5" y1="137.1094" y2="137.1094"/><!--class Layout::Grid--><rect fill="#FEFECE" filter="url(#favylu7yh462s)" height="86.4141" id="Layout::Grid" style="stroke: #A80036; stroke-width: 1.5;" width="193" x="38.5" y="250"/><ellipse cx="93.75" cy="266" fill="#ADD1B2" rx="11" ry="11" style="stroke: #A80036; stroke-width: 1.0;"/><path d="M96.7188,271.6406 Q96.1406,271.9375 95.5,272.0781 Q94.8594,272.2344 94.1563,272.2344 Q91.6563,272.2344 90.3281,270.5938 Q89.0156,268.9375 89.0156,265.8125 Q89.0156,262.6875 90.3281,261.0313 Q91.6563,259.375 94.1563,259.375 Q94.8594,259.375 95.5,259.5313 Q96.1563,259.6875 96.7188,259.9844 L96.7188,262.7031 Q96.0938,262.125 95.5,261.8594 Q94.9063,261.5781 94.2813,261.5781 Q92.9375,261.5781 92.25,262.6563 Q91.5625,263.7188 91.5625,265.8125 Q91.5625,267.9063 92.25,268.9844 Q92.9375,270.0469 94.2813,270.0469 Q94.9063,270.0469 95.5,269.7813 Q96.0938,269.5 96.7188,268.9219 L96.7188,271.6406 Z "/><text fill="#000000" font-family="sans-serif" font-size="12" lengthAdjust="spacingAndGlyphs" textLength="74" x="114.25" y="270.1543">Layout::Grid</text><line style="stroke: #A80036; stroke-width: 1.5;" x1="39.5" x2="230.5" y1="282" y2="282"/><text fill="#000000" font-family="sans-serif" font-size="11" lengthAdjust="spacingAndGlyphs" textLength="83" x="44.5" y="296.2104">GridOptions g;</text><text fill="#000000" font-family="sans-serif" font-size="11" lengthAdjust="spacingAndGlyphs" textLength="119" x="44.5" y="309.0151">Layout @sublayouts;</text><line style="stroke: #A80036; stroke-width: 1.5;" x1="39.5" x2="230.5" y1="315.6094" y2="315.6094"/><text fill="#000000" font-family="sans-serif" font-size="11" lengthAdjust="spacingAndGlyphs" textLength="181" x="44.5" y="329.8198">SizeRequest get_size_request();</text><!--class Layout::Page--><rect fill="#FEFECE" filter="url(#favylu7yh462s)" height="60.8047" id="Layout::Page" style="stroke: #A80036; stroke-width: 1.5;" width="113" x="266.5" y="262.5"/><ellipse cx="281.5" cy="278.5" fill="#ADD1B2" rx="11" ry="11" style="stroke: #A80036; stroke-width: 1.0;"/><path d="M284.4688,284.1406 Q283.8906,284.4375 283.25,284.5781 Q282.6094,284.7344 281.9063,284.7344 Q279.4063,284.7344 278.0781,283.0938 Q276.7656,281.4375 276.7656,278.3125 Q276.7656,275.1875 278.0781,273.5313 Q279.4063,271.875 281.9063,271.875 Q282.6094,271.875 283.25,272.0313 Q283.9063,272.1875 284.4688,272.4844 L284.4688,275.2031 Q283.8438,274.625 283.25,274.3594 Q282.6563,274.0781 282.0313,274.0781 Q280.6875,274.0781 280,275.1563 Q279.3125,276.2188 279.3125,278.3125 Q279.3125,280.4063 280,281.4844 Q280.6875,282.5469 282.0313,282.5469 Q282.6563,282.5469 283.25,282.2813 Q283.8438,282 284.4688,281.4219 L284.4688,284.1406 Z "/><text fill="#000000" font-family="sans-serif" font-size="12" lengthAdjust="spacingAndGlyphs" textLength="81" x="295.5" y="282.6543">Layout::Page</text><line style="stroke: #A80036; stroke-width: 1.5;" x1="267.5" x2="378.5" y1="294.5" y2="294.5"/><text fill="#000000" font-family="sans-serif" font-size="11" lengthAdjust="spacingAndGlyphs" textLength="43" x="272.5" y="308.7104">Page p;</text><line style="stroke: #A80036; stroke-width: 1.5;" x1="267.5" x2="378.5" y1="315.3047" y2="315.3047"/><!--class ViewOptions--><rect fill="#FEFECE" filter="url(#favylu7yh462s)" height="99.2188" id="ViewOptions" style="stroke: #A80036; stroke-width: 1.5;" width="108" x="1076" y="59"/><ellipse cx="1091" cy="75" fill="#ADD1B2" rx="11" ry="11" style="stroke: #A80036; stroke-width: 1.0;"/><path d="M1093.9688,80.6406 Q1093.3906,80.9375 1092.75,81.0781 Q1092.1094,81.2344 1091.4063,81.2344 Q1088.9063,81.2344 1087.5781,79.5938 Q1086.2656,77.9375 1086.2656,74.8125 Q1086.2656,71.6875 1087.5781,70.0313 Q1088.9063,68.375 1091.4063,68.375 Q1092.1094,68.375 1092.75,68.5313 Q1093.4063,68.6875 1093.9688,68.9844 L1093.9688,71.7031 Q1093.3438,71.125 1092.75,70.8594 Q1092.1563,70.5781 1091.5313,70.5781 Q1090.1875,70.5781 1089.5,71.6563 Q1088.8125,72.7188 1088.8125,74.8125 Q1088.8125,76.9063 1089.5,77.9844 Q1090.1875,79.0469 1091.5313,79.0469 Q1092.1563,79.0469 1092.75,78.7813 Q1093.3438,78.5 1093.9688,77.9219 L1093.9688,80.6406 Z "/><text fill="#000000" font-family="sans-serif" font-size="12" lengthAdjust="spacingAndGlyphs" textLength="76" x="1105" y="79.1543">ViewOptions</text><line style="stroke: #A80036; stroke-width: 1.5;" x1="1077" x2="1183" y1="91" y2="91"/><text fill="#000000" font-family="sans-serif" font-size="11" lengthAdjust="spacingAndGlyphs" textLength="72" x="1082" y="105.2104">Document d;</text><text fill="#000000" font-family="sans-serif" font-size="11" lengthAdjust="spacingAndGlyphs" textLength="83" x="1082" y="118.0151">GridOptions g;</text><text fill="#000000" font-family="sans-serif" font-size="11" lengthAdjust="spacingAndGlyphs" textLength="91" x="1082" y="130.8198">ZoomOptions z;</text><text fill="#000000" font-family="sans-serif" font-size="11" lengthAdjust="spacingAndGlyphs" textLength="94" x="1082" y="143.6245">OffsetOptions o;</text><line style="stroke: #A80036; stroke-width: 1.5;" x1="1077" x2="1183" y1="150.2188" y2="150.2188"/><!--class GridOptions--><rect fill="#FEFECE" filter="url(#favylu7yh462s)" height="73.6094" id="GridOptions" style="stroke: #A80036; stroke-width: 1.5;" width="170" x="841" y="256"/><ellipse cx="885.25" cy="272" fill="#ADD1B2" rx="11" ry="11" style="stroke: #A80036; stroke-width: 1.0;"/><path d="M888.2188,277.6406 Q887.6406,277.9375 887,278.0781 Q886.3594,278.2344 885.6563,278.2344 Q883.1563,278.2344 881.8281,276.5938 Q880.5156,274.9375 880.5156,271.8125 Q880.5156,268.6875 881.8281,267.0313 Q883.1563,265.375 885.6563,265.375 Q886.3594,265.375 887,265.5313 Q887.6563,265.6875 888.2188,265.9844 L888.2188,268.7031 Q887.5938,268.125 887,267.8594 Q886.4063,267.5781 885.7813,267.5781 Q884.4375,267.5781 883.75,268.6563 Q883.0625,269.7188 883.0625,271.8125 Q883.0625,273.9063 883.75,274.9844 Q884.4375,276.0469 885.7813,276.0469 Q886.4063,276.0469 887,275.7813 Q887.5938,275.5 888.2188,274.9219 L888.2188,277.6406 Z "/><text fill="#000000" font-family="sans-serif" font-size="12" lengthAdjust="spacingAndGlyphs" textLength="73" x="905.75" y="276.1543">GridOptions</text><line style="stroke: #A80036; stroke-width: 1.5;" x1="842" x2="1010" y1="288" y2="288"/><text fill="#000000" font-family="sans-serif" font-size="11" lengthAdjust="spacingAndGlyphs" textLength="138" x="847" y="302.2104">Maybe[PositiveInt] rows;</text><text fill="#000000" font-family="sans-serif" font-size="11" lengthAdjust="spacingAndGlyphs" textLength="158" x="847" y="315.0151">Maybe[PositiveInt] columns;</text><line style="stroke: #A80036; stroke-width: 1.5;" x1="842" x2="1010" y1="321.6094" y2="321.6094"/><!--class ZoomOptions--><rect fill="#FEFECE" filter="url(#favylu7yh462s)" height="73.6094" id="ZoomOptions" style="stroke: #A80036; stroke-width: 1.5;" width="167" x="1046.5" y="256"/><ellipse cx="1084.45" cy="272" fill="#ADD1B2" rx="11" ry="11" style="stroke: #A80036; stroke-width: 1.0;"/><path d="M1087.4188,277.6406 Q1086.8406,277.9375 1086.2,278.0781 Q1085.5594,278.2344 1084.8563,278.2344 Q1082.3563,278.2344 1081.0281,276.5938 Q1079.7156,274.9375 1079.7156,271.8125 Q1079.7156,268.6875 1081.0281,267.0313 Q1082.3563,265.375 1084.8563,265.375 Q1085.5594,265.375 1086.2,265.5313 Q1086.8563,265.6875 1087.4188,265.9844 L1087.4188,268.7031 Q1086.7938,268.125 1086.2,267.8594 Q1085.6063,267.5781 1084.9813,267.5781 Q1083.6375,267.5781 1082.95,268.6563 Q1082.2625,269.7188 1082.2625,271.8125 Q1082.2625,273.9063 1082.95,274.9844 Q1083.6375,276.0469 1084.9813,276.0469 Q1085.6063,276.0469 1086.2,275.7813 Q1086.7938,275.5 1087.4188,274.9219 L1087.4188,277.6406 Z "/><text fill="#000000" font-family="sans-serif" font-size="12" lengthAdjust="spacingAndGlyphs" textLength="84" x="1103.55" y="276.1543">ZoomOptions</text><line style="stroke: #A80036; stroke-width: 1.5;" x1="1047.5" x2="1212.5" y1="288" y2="288"/><text fill="#000000" font-family="sans-serif" font-size="11" lengthAdjust="spacingAndGlyphs" textLength="74" x="1066.5" y="302.2104">ZoomType z;</text><rect fill="none" height="6" style="stroke: #C82930; stroke-width: 1.0;" width="6" x="1054.5" y="309.707"/><text fill="#000000" font-family="sans-serif" font-size="11" lengthAdjust="spacingAndGlyphs" textLength="141" x="1066.5" y="315.0151">Float _zoom_percentage;</text><line style="stroke: #A80036; stroke-width: 1.5;" x1="1047.5" x2="1212.5" y1="321.6094" y2="321.6094"/><!--class OffsetOptions--><rect fill="#FEFECE" filter="url(#favylu7yh462s)" height="48" id="OffsetOptions" style="stroke: #A80036; stroke-width: 1.5;" width="117" x="1248.5" y="269"/><ellipse cx="1263.5" cy="285" fill="#ADD1B2" rx="11" ry="11" style="stroke: #A80036; stroke-width: 1.0;"/><path d="M1266.4688,290.6406 Q1265.8906,290.9375 1265.25,291.0781 Q1264.6094,291.2344 1263.9063,291.2344 Q1261.4063,291.2344 1260.0781,289.5938 Q1258.7656,287.9375 1258.7656,284.8125 Q1258.7656,281.6875 1260.0781,280.0313 Q1261.4063,278.375 1263.9063,278.375 Q1264.6094,278.375 1265.25,278.5313 Q1265.9063,278.6875 1266.4688,278.9844 L1266.4688,281.7031 Q1265.8438,281.125 1265.25,280.8594 Q1264.6563,280.5781 1264.0313,280.5781 Q1262.6875,280.5781 1262,281.6563 Q1261.3125,282.7188 1261.3125,284.8125 Q1261.3125,286.9063 1262,287.9844 Q1262.6875,289.0469 1264.0313,289.0469 Q1264.6563,289.0469 1265.25,288.7813 Q1265.8438,288.5 1266.4688,287.9219 L1266.4688,290.6406 Z "/><text fill="#000000" font-family="sans-serif" font-size="12" lengthAdjust="spacingAndGlyphs" textLength="85" x="1277.5" y="289.1543">OffsetOptions</text><line style="stroke: #A80036; stroke-width: 1.5;" x1="1249.5" x2="1364.5" y1="301" y2="301"/><line style="stroke: #A80036; stroke-width: 1.5;" x1="1249.5" x2="1364.5" y1="309" y2="309"/><!--class ZoomType--><rect fill="#FEFECE" filter="url(#favylu7yh462s)" height="86.4141" id="ZoomType" style="stroke: #A80036; stroke-width: 1.5;" width="97" x="1081.5" y="436"/><ellipse cx="1096.5" cy="452" fill="#EB937F" rx="11" ry="11" style="stroke: #A80036; stroke-width: 1.0;"/><path d="M1100.6094,458 L1092.8906,458 L1092.8906,445.6094 L1100.6094,445.6094 L1100.6094,447.7656 L1095.3438,447.7656 L1095.3438,450.4375 L1100.1094,450.4375 L1100.1094,452.5938 L1095.3438,452.5938 L1095.3438,455.8438 L1100.6094,455.8438 L1100.6094,458 Z "/><text fill="#000000" font-family="sans-serif" font-size="12" lengthAdjust="spacingAndGlyphs" textLength="65" x="1110.5" y="456.1543">ZoomType</text><line style="stroke: #A80036; stroke-width: 1.5;" x1="1082.5" x2="1177.5" y1="468" y2="468"/><text fill="#000000" font-family="sans-serif" font-size="11" lengthAdjust="spacingAndGlyphs" textLength="78" x="1087.5" y="482.2104">PERCENTAGE;</text><text fill="#000000" font-family="sans-serif" font-size="11" lengthAdjust="spacingAndGlyphs" textLength="61" x="1087.5" y="495.0151">FIT_WIDTH;</text><text fill="#000000" font-family="sans-serif" font-size="11" lengthAdjust="spacingAndGlyphs" textLength="68" x="1087.5" y="507.8198">FIT_HEIGHT;</text><line style="stroke: #A80036; stroke-width: 1.5;" x1="1082.5" x2="1177.5" y1="514.4141" y2="514.4141"/><!--link Render::Context to Geometry::BoundingRect--><path d="M574.177,340.366 C548.317,369.738 515.141,407.42 490.042,435.927 " fill="none" id="Render::Context-Geometry::BoundingRect" style="stroke: #A80036; stroke-width: 1.0;"/><polygon fill="#A80036" points="582.994,330.352,576.027,332.2123,575.0645,339.3589,582.0316,337.4986,582.994,330.352" style="stroke: #A80036; stroke-width: 1.0;"/><!--link Role::Layoutable to Render::Context--><path d="M382.221,150.788 C407.741,162.006 434.716,174.746 459,188 C496.143,208.273 535.791,234.775 565.821,255.952 " fill="none" id="Role::Layoutable-Render::Context" style="stroke: #A80036; stroke-width: 1.0;"/><polygon fill="#A80036" points="370.222,145.576,374.1312,151.6356,381.2281,150.3577,377.319,144.2981,370.222,145.576" style="stroke: #A80036; stroke-width: 1.0;"/><!--link Role::Layoutable to Geometry::BoundingRect--><path d="M344.302,153.896 C363.972,170.307 383.814,190.469 397,213 C438.328,283.615 449.347,380.661 452.165,435.586 " fill="none" id="Role::Layoutable-Geometry::BoundingRect" style="stroke: #A80036; stroke-width: 1.0;"/><polygon fill="#A80036" points="334.068,145.664,336.2356,152.5416,343.4178,153.186,341.2503,146.3084,334.068,145.664" style="stroke: #A80036; stroke-width: 1.0;"/><!--link Role::Layoutable to Layout::Grid--><path d="M238.161,161.257 C216.022,189.315 189.013,223.546 168.185,249.943 " fill="none" id="Role::Layoutable-Layout::Grid" style="stroke: #A80036; stroke-width: 1.0; stroke-dasharray: 7.0,7.0;"/><polygon fill="none" points="232.666,156.921,250.55,145.556,243.657,165.593,232.666,156.921" style="stroke: #A80036; stroke-width: 1.0;"/><!--link Role::Layoutable to Layout::Page--><path d="M292.472,165.377 C300.181,197.353 309.543,236.185 315.851,262.347 " fill="none" id="Role::Layoutable-Layout::Page" style="stroke: #A80036; stroke-width: 1.0; stroke-dasharray: 7.0,7.0;"/><polygon fill="none" points="285.576,166.64,287.693,145.556,299.186,163.358,285.576,166.64" style="stroke: #A80036; stroke-width: 1.0;"/><!--link ViewOptions to GridOptions--><path d="M1065.98,166.775 C1033.43,195.892 994.864,230.394 966.463,255.802 " fill="none" id="ViewOptions-GridOptions" style="stroke: #A80036; stroke-width: 1.0;"/><polygon fill="#A80036" points="1075.87,157.928,1068.7315,158.9489,1066.9283,165.9309,1074.0668,164.91,1075.87,157.928" style="stroke: #A80036; stroke-width: 1.0;"/><text fill="#000000" font-family="sans-serif" font-size="13" lengthAdjust="spacingAndGlyphs" textLength="54" x="1042" y="201.0669">contains</text><text fill="#000000" font-family="sans-serif" font-size="13" lengthAdjust="spacingAndGlyphs" textLength="8" x="964.958" y="244.9537">1</text><!--link ViewOptions to ZoomOptions--><path d="M1130,171.421 C1130,199.576 1130,231.901 1130,255.99 " fill="none" id="ViewOptions-ZoomOptions" style="stroke: #A80036; stroke-width: 1.0;"/><polygon fill="#A80036" points="1130,158.407,1126,164.407,1130,170.407,1134,164.407,1130,158.407" style="stroke: #A80036; stroke-width: 1.0;"/><text fill="#000000" font-family="sans-serif" font-size="13" lengthAdjust="spacingAndGlyphs" textLength="54" x="1131" y="201.0669">contains</text><text fill="#000000" font-family="sans-serif" font-size="13" lengthAdjust="spacingAndGlyphs" textLength="8" x="1121.2625" y="244.8986">1</text><!--link ViewOptions to OffsetOptions--><path d="M1186.9,167.66 C1201.31,182.429 1216.74,198.283 1231,213 C1249.14,231.725 1269.63,253.034 1284.76,268.798 " fill="none" id="ViewOptions-OffsetOptions" style="stroke: #A80036; stroke-width: 1.0;"/><polygon fill="#A80036" points="1177.6,158.133,1178.9295,165.2205,1185.9831,166.7192,1184.6536,159.6317,1177.6,158.133" style="stroke: #A80036; stroke-width: 1.0;"/><text fill="#000000" font-family="sans-serif" font-size="13" lengthAdjust="spacingAndGlyphs" textLength="54" x="1223" y="201.0669">contains</text><text fill="#000000" font-family="sans-serif" font-size="13" lengthAdjust="spacingAndGlyphs" textLength="8" x="1270.036" y="257.7583">1</text><!--link ZoomOptions to ZoomType--><path d="M1130,343.474 C1130,372.36 1130,408.416 1130,435.927 " fill="none" id="ZoomOptions-ZoomType" style="stroke: #A80036; stroke-width: 1.0;"/><polygon fill="#A80036" points="1130,330.352,1126,336.352,1130,342.352,1134,336.352,1130,330.352" style="stroke: #A80036; stroke-width: 1.0;"/><text fill="#000000" font-family="sans-serif" font-size="13" lengthAdjust="spacingAndGlyphs" textLength="54" x="1131" y="381.0669">contains</text><text fill="#000000" font-family="sans-serif" font-size="13" lengthAdjust="spacingAndGlyphs" textLength="8" x="1121.3625" y="424.9114">1</text><!--
@startuml
package Geometry {
    class Geometry::GlobalPosition;
    class Geometry::BoundingRect
}

class Geometry::BoundingRect {
    Geometry::GlobalPosition top_left;
    PositiveNum width;
    PositiveNum height;
}

package Render {
    class Render::Context
}

class Render::Context {
    Geometry::BoundingRect viewport_bounds;
    ZoomType z;
}
Render::Context *- - Geometry::BoundingRect

package Layout {
    class Role::Layoutable
    class Layout::Grid
    class Layout::Page
}

interface Role::Layoutable {
    Geometry::BoundingRect bounds;
    Render::Context lc;
}
Role::Layoutable *- - Render::Context
Role::Layoutable *- - Geometry::BoundingRect

class Layout::Grid implements Role::Layoutable {
    GridOptions g;
    Layout @sublayouts;
    SizeRequest get_size_request();
}

class Layout::Page implements Role::Layoutable {
    Page p;
}

package View::HighLevel {
    ViewOptions *- - "1" GridOptions: contains
    ViewOptions *- - "1" ZoomOptions: contains
    ViewOptions *- - "1" OffsetOptions: contains
    ZoomOptions *- - "1" ZoomType: contains
}

class ViewOptions {
    Document d;
    GridOptions g;
    ZoomOptions z;
    OffsetOptions o;
}

class ZoomOptions {
    ZoomType z;
    -Float _zoom_percentage;
}

enum ZoomType {
    PERCENTAGE;
    FIT_WIDTH;
    FIT_HEIGHT;
}

class GridOptions {
    Maybe[PositiveInt] rows;
    Maybe[PositiveInt] columns;
}
@enduml

PlantUML version 1.2018.06(Mon May 21 10:34:53 GMT 2018)
(GPL source distribution)
Java Runtime: OpenJDK Runtime Environment
JVM: OpenJDK 64-Bit Server VM
Java Version: 11.0.2+9
Operating System: Linux
OS Version: 4.15.0-1028-gcp
Default Encoding: UTF-8
Language: en
Country: US
--></g></svg>