<?xml version="1.0" encoding="UTF-8" standalone="no"?><svg xmlns="http://www.w3.org/2000/svg" xmlns:xlink="http://www.w3.org/1999/xlink" contentScriptType="application/ecmascript" contentStyleType="text/css" height="259px" preserveAspectRatio="none" style="width:340px;height:259px;" version="1.1" viewBox="0 0 340 259" width="340px" zoomAndPan="magnify"><defs><filter height="300%" id="f4p8fk8j0pa9f" width="300%" x="-1" y="-1"><feGaussianBlur result="blurOut" stdDeviation="2.0"/><feColorMatrix in="blurOut" result="blurOut2" type="matrix" values="0 0 0 0 0 0 0 0 0 0 0 0 0 0 0 0 0 0 .4 0"/><feOffset dx="4.0" dy="4.0" in="blurOut2" result="blurOut3"/><feBlend in="SourceGraphic" in2="blurOut3" mode="normal"/></filter></defs><g><line style="stroke: #A80036; stroke-width: 1.0; stroke-dasharray: 5.0,5.0;" x1="58" x2="58" y1="67.5938" y2="188.9922"/><line style="stroke: #A80036; stroke-width: 1.0; stroke-dasharray: 5.0,5.0;" x1="169" x2="169" y1="67.5938" y2="188.9922"/><line style="stroke: #A80036; stroke-width: 1.0; stroke-dasharray: 5.0,5.0;" x1="277" x2="277" y1="67.5938" y2="188.9922"/><text fill="#000000" font-family="sans-serif" font-size="14" font-style="italic" lengthAdjust="spacingAndGlyphs" textLength="85" x="12.5" y="49">«Controller»</text><text fill="#000000" font-family="sans-serif" font-size="14" lengthAdjust="spacingAndGlyphs" textLength="94" x="8" y="65.2969">AppController</text><ellipse cx="58" cy="19" fill="#FEFECE" filter="url(#f4p8fk8j0pa9f)" rx="12" ry="12" style="stroke: #A80036; stroke-width: 2.0;"/><polygon fill="#A80036" points="54,7,60,2,58,7,60,12,54,7" style="stroke: #A80036; stroke-width: 1.0;"/><text fill="#000000" font-family="sans-serif" font-size="14" font-style="italic" lengthAdjust="spacingAndGlyphs" textLength="85" x="12.5" y="201.9922">«Controller»</text><text fill="#000000" font-family="sans-serif" font-size="14" lengthAdjust="spacingAndGlyphs" textLength="94" x="8" y="218.2891">AppController</text><ellipse cx="58" cy="236.5859" fill="#FEFECE" filter="url(#f4p8fk8j0pa9f)" rx="12" ry="12" style="stroke: #A80036; stroke-width: 2.0;"/><polygon fill="#A80036" points="54,224.5859,60,219.5859,58,224.5859,60,229.5859,54,224.5859" style="stroke: #A80036; stroke-width: 1.0;"/><text fill="#000000" font-family="sans-serif" font-size="14" font-style="italic" lengthAdjust="spacingAndGlyphs" textLength="97" x="118" y="49">«View Model»</text><text fill="#000000" font-family="sans-serif" font-size="14" lengthAdjust="spacingAndGlyphs" textLength="92" x="120.5" y="65.2969">ViewManager</text><ellipse cx="169.5" cy="19" fill="#FEFECE" filter="url(#f4p8fk8j0pa9f)" rx="12" ry="12" style="stroke: #A80036; stroke-width: 2.0;"/><polygon fill="#A80036" points="165.5,7,171.5,2,169.5,7,171.5,12,165.5,7" style="stroke: #A80036; stroke-width: 1.0;"/><text fill="#000000" font-family="sans-serif" font-size="14" font-style="italic" lengthAdjust="spacingAndGlyphs" textLength="97" x="118" y="201.9922">«View Model»</text><text fill="#000000" font-family="sans-serif" font-size="14" lengthAdjust="spacingAndGlyphs" textLength="92" x="120.5" y="218.2891">ViewManager</text><ellipse cx="169.5" cy="236.5859" fill="#FEFECE" filter="url(#f4p8fk8j0pa9f)" rx="12" ry="12" style="stroke: #A80036; stroke-width: 2.0;"/><polygon fill="#A80036" points="165.5,224.5859,171.5,219.5859,169.5,224.5859,171.5,229.5859,165.5,224.5859" style="stroke: #A80036; stroke-width: 1.0;"/><text fill="#000000" font-family="sans-serif" font-size="14" font-style="italic" lengthAdjust="spacingAndGlyphs" textLength="51" x="248.5" y="49">«View»</text><text fill="#000000" font-family="sans-serif" font-size="14" lengthAdjust="spacingAndGlyphs" textLength="86" x="231" y="65.2969">MainWindow</text><ellipse cx="277" cy="19" fill="#FEFECE" filter="url(#f4p8fk8j0pa9f)" rx="12" ry="12" style="stroke: #A80036; stroke-width: 2.0;"/><polygon fill="#A80036" points="273,7,279,2,277,7,279,12,273,7" style="stroke: #A80036; stroke-width: 1.0;"/><text fill="#000000" font-family="sans-serif" font-size="14" font-style="italic" lengthAdjust="spacingAndGlyphs" textLength="51" x="248.5" y="201.9922">«View»</text><text fill="#000000" font-family="sans-serif" font-size="14" lengthAdjust="spacingAndGlyphs" textLength="86" x="231" y="218.2891">MainWindow</text><ellipse cx="277" cy="236.5859" fill="#FEFECE" filter="url(#f4p8fk8j0pa9f)" rx="12" ry="12" style="stroke: #A80036; stroke-width: 2.0;"/><polygon fill="#A80036" points="273,224.5859,279,219.5859,277,224.5859,279,229.5859,273,224.5859" style="stroke: #A80036; stroke-width: 1.0;"/><rect fill="#EEEEEE" filter="url(#f4p8fk8j0pa9f)" height="3" style="stroke: #EEEEEE; stroke-width: 1.0;" width="325" x="3" y="98.1602"/><line style="stroke: #000000; stroke-width: 1.0;" x1="3" x2="328" y1="98.1602" y2="98.1602"/><line style="stroke: #000000; stroke-width: 1.0;" x1="3" x2="328" y1="101.1602" y2="101.1602"/><rect fill="#EEEEEE" filter="url(#f4p8fk8j0pa9f)" height="23.1328" style="stroke: #000000; stroke-width: 2.0;" width="42" x="144.5" y="87.5938"/><text fill="#000000" font-family="sans-serif" font-size="13" font-weight="bold" lengthAdjust="spacingAndGlyphs" textLength="23" x="150.5" y="103.6606">init</text><polygon fill="#A80036" points="157.5,137.8594,167.5,141.8594,157.5,145.8594,161.5,141.8594" style="stroke: #A80036; stroke-width: 1.0;"/><line style="stroke: #A80036; stroke-width: 1.0;" x1="58" x2="163.5" y1="141.8594" y2="141.8594"/><text fill="#000000" font-family="sans-serif" font-size="13" lengthAdjust="spacingAndGlyphs" textLength="35" x="65" y="136.7935">new()</text><polygon fill="#A80036" points="265,166.9922,275,170.9922,265,174.9922,269,170.9922" style="stroke: #A80036; stroke-width: 1.0;"/><line style="stroke: #A80036; stroke-width: 1.0;" x1="58" x2="271" y1="170.9922" y2="170.9922"/><text fill="#000000" font-family="sans-serif" font-size="13" lengthAdjust="spacingAndGlyphs" textLength="35" x="65" y="165.9263">new()</text><!--
@startuml
control "AppController" as C << Controller >>
control "ViewManager"   as VM << View Model >>
control "MainWindow" as MW << View >>

== init ==

C -> VM : new()
C -> MW : new()
@enduml

PlantUML version 1.2018.06(Mon May 21 10:34:53 GMT 2018)
(GPL source distribution)
Java Runtime: Java(TM) SE Runtime Environment
JVM: Java HotSpot(TM) 64-Bit Server VM
Java Version: 1.8.0_151-b12
Operating System: Linux
OS Version: 4.14.12-041412-generic
Default Encoding: UTF-8
Language: en
Country: US
--></g></svg>