<?xml version="1.0" encoding="UTF-8" standalone="no"?><svg xmlns="http://www.w3.org/2000/svg" xmlns:xlink="http://www.w3.org/1999/xlink" contentScriptType="application/ecmascript" contentStyleType="text/css" height="551px" preserveAspectRatio="none" style="width:1389px;height:551px;" version="1.1" viewBox="0 0 1389 551" width="1389px" zoomAndPan="magnify"><defs><filter height="300%" id="fsndbobs0ji8c" width="300%" x="-1" y="-1"><feGaussianBlur result="blurOut" stdDeviation="2.0"/><feColorMatrix in="blurOut" result="blurOut2" type="matrix" values="0 0 0 0 0 0 0 0 0 0 0 0 0 0 0 0 0 0 .4 0"/><feOffset dx="4.0" dy="4.0" in="blurOut2" result="blurOut3"/><feBlend in="SourceGraphic" in2="blurOut3" mode="normal"/></filter></defs><g><!--cluster Geometry--><polygon fill="#FFFFFF" filter="url(#fsndbobs0ji8c)" points="333,406,417,406,424,428.2969,801,428.2969,801,544,333,544,333,406" style="stroke: #000000; stroke-width: 2.0;"/><line style="stroke: #000000; stroke-width: 2.0;" x1="333" x2="424" y1="428.2969" y2="428.2969"/><text fill="#000000" font-family="sans-serif" font-size="14" font-weight="bold" lengthAdjust="spacingAndGlyphs" textLength="78" x="337" y="420.9951">Geometry</text><!--cluster Render--><polygon fill="#FFFFFF" filter="url(#fsndbobs0ji8c)" points="470,224,533,224,540,246.2969,760,246.2969,760,350,470,350,470,224" style="stroke: #000000; stroke-width: 2.0;"/><line style="stroke: #000000; stroke-width: 2.0;" x1="470" x2="540" y1="246.2969" y2="246.2969"/><text fill="#000000" font-family="sans-serif" font-size="14" font-weight="bold" lengthAdjust="spacingAndGlyphs" textLength="57" x="474" y="238.9951">Render</text><!--cluster Layout--><polygon fill="#FFFFFF" filter="url(#fsndbobs0ji8c)" points="22,37,81,37,88,59.2969,396,59.2969,396,356,22,356,22,37" style="stroke: #000000; stroke-width: 2.0;"/><line style="stroke: #000000; stroke-width: 2.0;" x1="22" x2="88" y1="59.2969" y2="59.2969"/><text fill="#000000" font-family="sans-serif" font-size="14" font-weight="bold" lengthAdjust="spacingAndGlyphs" textLength="53" x="26" y="51.9951">Layout</text><!--cluster View::HighLevel--><polygon fill="#FFFFFF" filter="url(#fsndbobs0ji8c)" points="825,24,959,24,966,46.2969,1382,46.2969,1382,544,825,544,825,24" style="stroke: #000000; stroke-width: 2.0;"/><line style="stroke: #000000; stroke-width: 2.0;" x1="825" x2="966" y1="46.2969" y2="46.2969"/><text fill="#000000" font-family="sans-serif" font-size="14" font-weight="bold" lengthAdjust="spacingAndGlyphs" textLength="128" x="829" y="38.9951">View::HighLevel</text><!--class Geometry::GlobalPosition;--><rect fill="#FEFECE" filter="url(#fsndbobs0ji8c)" height="48" id="Geometry::GlobalPosition;" style="stroke: #A80036; stroke-width: 1.5;" width="193" x="591.75" y="461"/><ellipse cx="606.75" cy="477" fill="#ADD1B2" rx="11" ry="11" style="stroke: #A80036; stroke-width: 1.0;"/><path d="M609.7188,482.6406 Q609.1406,482.9375 608.5,483.0859 Q607.8594,483.2344 607.1563,483.2344 Q604.6563,483.2344 603.3359,481.5859 Q602.0156,479.9375 602.0156,476.8125 Q602.0156,473.6875 603.3359,472.0313 Q604.6563,470.375 607.1563,470.375 Q607.8594,470.375 608.5078,470.5313 Q609.1563,470.6875 609.7188,470.9844 L609.7188,473.7031 Q609.0938,473.125 608.5,472.8516 Q607.9063,472.5781 607.2813,472.5781 Q605.9375,472.5781 605.25,473.6484 Q604.5625,474.7188 604.5625,476.8125 Q604.5625,478.9063 605.25,479.9766 Q605.9375,481.0469 607.2813,481.0469 Q607.9063,481.0469 608.5,480.7734 Q609.0938,480.5 609.7188,479.9219 L609.7188,482.6406 Z "/><text fill="#000000" font-family="sans-serif" font-size="12" lengthAdjust="spacingAndGlyphs" textLength="161" x="620.75" y="481.1543">Geometry::GlobalPosition;</text><line style="stroke: #A80036; stroke-width: 1.5;" x1="592.75" x2="783.75" y1="493" y2="493"/><line style="stroke: #A80036; stroke-width: 1.5;" x1="592.75" x2="783.75" y1="501" y2="501"/><!--class Geometry::BoundingRect--><rect fill="#FEFECE" filter="url(#fsndbobs0ji8c)" height="86.4141" id="Geometry::BoundingRect" style="stroke: #A80036; stroke-width: 1.5;" width="207" x="349.75" y="442"/><ellipse cx="373.75" cy="458" fill="#ADD1B2" rx="11" ry="11" style="stroke: #A80036; stroke-width: 1.0;"/><path d="M376.7188,463.6406 Q376.1406,463.9375 375.5,464.0859 Q374.8594,464.2344 374.1563,464.2344 Q371.6563,464.2344 370.3359,462.5859 Q369.0156,460.9375 369.0156,457.8125 Q369.0156,454.6875 370.3359,453.0313 Q371.6563,451.375 374.1563,451.375 Q374.8594,451.375 375.5078,451.5313 Q376.1563,451.6875 376.7188,451.9844 L376.7188,454.7031 Q376.0938,454.125 375.5,453.8516 Q374.9063,453.5781 374.2813,453.5781 Q372.9375,453.5781 372.25,454.6484 Q371.5625,455.7188 371.5625,457.8125 Q371.5625,459.9063 372.25,460.9766 Q372.9375,462.0469 374.2813,462.0469 Q374.9063,462.0469 375.5,461.7734 Q376.0938,461.5 376.7188,460.9219 L376.7188,463.6406 Z "/><text fill="#000000" font-family="sans-serif" font-size="12" lengthAdjust="spacingAndGlyphs" textLength="155" x="389.75" y="462.1543">Geometry::BoundingRect</text><line style="stroke: #A80036; stroke-width: 1.5;" x1="350.75" x2="555.75" y1="474" y2="474"/><text fill="#000000" font-family="sans-serif" font-size="11" lengthAdjust="spacingAndGlyphs" textLength="195" x="355.75" y="488.2104">Geometry::GlobalPosition top_left;</text><text fill="#000000" font-family="sans-serif" font-size="11" lengthAdjust="spacingAndGlyphs" textLength="108" x="355.75" y="501.0151">PositiveNum width;</text><text fill="#000000" font-family="sans-serif" font-size="11" lengthAdjust="spacingAndGlyphs" textLength="113" x="355.75" y="513.8198">PositiveNum height;</text><line style="stroke: #A80036; stroke-width: 1.5;" x1="350.75" x2="555.75" y1="520.4141" y2="520.4141"/><!--class Render::Context--><rect fill="#FEFECE" filter="url(#fsndbobs0ji8c)" height="73.6094" id="Render::Context" style="stroke: #A80036; stroke-width: 1.5;" width="257" x="486.75" y="260"/><ellipse cx="560.5" cy="276" fill="#ADD1B2" rx="11" ry="11" style="stroke: #A80036; stroke-width: 1.0;"/><path d="M563.4688,281.6406 Q562.8906,281.9375 562.25,282.0859 Q561.6094,282.2344 560.9063,282.2344 Q558.4063,282.2344 557.0859,280.5859 Q555.7656,278.9375 555.7656,275.8125 Q555.7656,272.6875 557.0859,271.0313 Q558.4063,269.375 560.9063,269.375 Q561.6094,269.375 562.2578,269.5313 Q562.9063,269.6875 563.4688,269.9844 L563.4688,272.7031 Q562.8438,272.125 562.25,271.8516 Q561.6563,271.5781 561.0313,271.5781 Q559.6875,271.5781 559,272.6484 Q558.3125,273.7188 558.3125,275.8125 Q558.3125,277.9063 559,278.9766 Q559.6875,280.0469 561.0313,280.0469 Q561.6563,280.0469 562.25,279.7734 Q562.8438,279.5 563.4688,278.9219 L563.4688,281.6406 Z "/><text fill="#000000" font-family="sans-serif" font-size="12" lengthAdjust="spacingAndGlyphs" textLength="101" x="581" y="280.1543">Render::Context</text><line style="stroke: #A80036; stroke-width: 1.5;" x1="487.75" x2="742.75" y1="292" y2="292"/><text fill="#000000" font-family="sans-serif" font-size="11" lengthAdjust="spacingAndGlyphs" textLength="245" x="492.75" y="306.2104">Geometry::BoundingRect viewport_bounds;</text><text fill="#000000" font-family="sans-serif" font-size="11" lengthAdjust="spacingAndGlyphs" textLength="74" x="492.75" y="319.0151">ZoomType z;</text><line style="stroke: #A80036; stroke-width: 1.5;" x1="487.75" x2="742.75" y1="325.6094" y2="325.6094"/><!--class Role::Layoutable--><rect fill="#FEFECE" filter="url(#fsndbobs0ji8c)" height="73.6094" id="Role::Layoutable" style="stroke: #A80036; stroke-width: 1.5;" width="203" x="177.75" y="73"/><ellipse cx="222.5" cy="89" fill="#B4A7E5" rx="11" ry="11" style="stroke: #A80036; stroke-width: 1.0;"/><path d="M218.4219,84.7656 L218.4219,82.6094 L225.8125,82.6094 L225.8125,84.7656 L223.3438,84.7656 L223.3438,92.8438 L225.8125,92.8438 L225.8125,95 L218.4219,95 L218.4219,92.8438 L220.8906,92.8438 L220.8906,84.7656 L218.4219,84.7656 Z "/><text fill="#000000" font-family="sans-serif" font-size="12" font-style="italic" lengthAdjust="spacingAndGlyphs" textLength="105" x="243" y="93.1543">Role::Layoutable</text><line style="stroke: #A80036; stroke-width: 1.5;" x1="178.75" x2="379.75" y1="105" y2="105"/><text fill="#000000" font-family="sans-serif" font-size="11" lengthAdjust="spacingAndGlyphs" textLength="191" x="183.75" y="119.2104">Geometry::BoundingRect bounds;</text><text fill="#000000" font-family="sans-serif" font-size="11" lengthAdjust="spacingAndGlyphs" textLength="108" x="183.75" y="132.0151">Render::Context lc;</text><line style="stroke: #A80036; stroke-width: 1.5;" x1="178.75" x2="379.75" y1="138.6094" y2="138.6094"/><!--class Layout::Grid--><rect fill="#FEFECE" filter="url(#fsndbobs0ji8c)" height="86.4141" id="Layout::Grid" style="stroke: #A80036; stroke-width: 1.5;" width="193" x="38.75" y="254"/><ellipse cx="94" cy="270" fill="#ADD1B2" rx="11" ry="11" style="stroke: #A80036; stroke-width: 1.0;"/><path d="M96.9688,275.6406 Q96.3906,275.9375 95.75,276.0859 Q95.1094,276.2344 94.4063,276.2344 Q91.9063,276.2344 90.5859,274.5859 Q89.2656,272.9375 89.2656,269.8125 Q89.2656,266.6875 90.5859,265.0313 Q91.9063,263.375 94.4063,263.375 Q95.1094,263.375 95.7578,263.5313 Q96.4063,263.6875 96.9688,263.9844 L96.9688,266.7031 Q96.3438,266.125 95.75,265.8516 Q95.1563,265.5781 94.5313,265.5781 Q93.1875,265.5781 92.5,266.6484 Q91.8125,267.7188 91.8125,269.8125 Q91.8125,271.9063 92.5,272.9766 Q93.1875,274.0469 94.5313,274.0469 Q95.1563,274.0469 95.75,273.7734 Q96.3438,273.5 96.9688,272.9219 L96.9688,275.6406 Z "/><text fill="#000000" font-family="sans-serif" font-size="12" lengthAdjust="spacingAndGlyphs" textLength="74" x="114.5" y="274.1543">Layout::Grid</text><line style="stroke: #A80036; stroke-width: 1.5;" x1="39.75" x2="230.75" y1="286" y2="286"/><text fill="#000000" font-family="sans-serif" font-size="11" lengthAdjust="spacingAndGlyphs" textLength="83" x="44.75" y="300.2104">GridOptions g;</text><text fill="#000000" font-family="sans-serif" font-size="11" lengthAdjust="spacingAndGlyphs" textLength="119" x="44.75" y="313.0151">Layout @sublayouts;</text><line style="stroke: #A80036; stroke-width: 1.5;" x1="39.75" x2="230.75" y1="319.6094" y2="319.6094"/><text fill="#000000" font-family="sans-serif" font-size="11" lengthAdjust="spacingAndGlyphs" textLength="181" x="44.75" y="333.8198">SizeRequest get_size_request();</text><!--class Layout::Page--><rect fill="#FEFECE" filter="url(#fsndbobs0ji8c)" height="60.8047" id="Layout::Page" style="stroke: #A80036; stroke-width: 1.5;" width="113" x="266.75" y="266.5"/><ellipse cx="281.75" cy="282.5" fill="#ADD1B2" rx="11" ry="11" style="stroke: #A80036; stroke-width: 1.0;"/><path d="M284.7188,288.1406 Q284.1406,288.4375 283.5,288.5859 Q282.8594,288.7344 282.1563,288.7344 Q279.6563,288.7344 278.3359,287.0859 Q277.0156,285.4375 277.0156,282.3125 Q277.0156,279.1875 278.3359,277.5313 Q279.6563,275.875 282.1563,275.875 Q282.8594,275.875 283.5078,276.0313 Q284.1563,276.1875 284.7188,276.4844 L284.7188,279.2031 Q284.0938,278.625 283.5,278.3516 Q282.9063,278.0781 282.2813,278.0781 Q280.9375,278.0781 280.25,279.1484 Q279.5625,280.2188 279.5625,282.3125 Q279.5625,284.4063 280.25,285.4766 Q280.9375,286.5469 282.2813,286.5469 Q282.9063,286.5469 283.5,286.2734 Q284.0938,286 284.7188,285.4219 L284.7188,288.1406 Z "/><text fill="#000000" font-family="sans-serif" font-size="12" lengthAdjust="spacingAndGlyphs" textLength="81" x="295.75" y="286.6543">Layout::Page</text><line style="stroke: #A80036; stroke-width: 1.5;" x1="267.75" x2="378.75" y1="298.5" y2="298.5"/><text fill="#000000" font-family="sans-serif" font-size="11" lengthAdjust="spacingAndGlyphs" textLength="43" x="272.75" y="312.7104">Page p;</text><line style="stroke: #A80036; stroke-width: 1.5;" x1="267.75" x2="378.75" y1="319.3047" y2="319.3047"/><!--class ViewOptions--><rect fill="#FEFECE" filter="url(#fsndbobs0ji8c)" height="99.2188" id="ViewOptions" style="stroke: #A80036; stroke-width: 1.5;" width="108" x="1076" y="60.5"/><ellipse cx="1091" cy="76.5" fill="#ADD1B2" rx="11" ry="11" style="stroke: #A80036; stroke-width: 1.0;"/><path d="M1093.9688,82.1406 Q1093.3906,82.4375 1092.75,82.5859 Q1092.1094,82.7344 1091.4063,82.7344 Q1088.9063,82.7344 1087.5859,81.0859 Q1086.2656,79.4375 1086.2656,76.3125 Q1086.2656,73.1875 1087.5859,71.5313 Q1088.9063,69.875 1091.4063,69.875 Q1092.1094,69.875 1092.7578,70.0313 Q1093.4063,70.1875 1093.9688,70.4844 L1093.9688,73.2031 Q1093.3438,72.625 1092.75,72.3516 Q1092.1563,72.0781 1091.5313,72.0781 Q1090.1875,72.0781 1089.5,73.1484 Q1088.8125,74.2188 1088.8125,76.3125 Q1088.8125,78.4063 1089.5,79.4766 Q1090.1875,80.5469 1091.5313,80.5469 Q1092.1563,80.5469 1092.75,80.2734 Q1093.3438,80 1093.9688,79.4219 L1093.9688,82.1406 Z "/><text fill="#000000" font-family="sans-serif" font-size="12" lengthAdjust="spacingAndGlyphs" textLength="76" x="1105" y="80.6543">ViewOptions</text><line style="stroke: #A80036; stroke-width: 1.5;" x1="1077" x2="1183" y1="92.5" y2="92.5"/><text fill="#000000" font-family="sans-serif" font-size="11" lengthAdjust="spacingAndGlyphs" textLength="72" x="1082" y="106.7104">Document d;</text><text fill="#000000" font-family="sans-serif" font-size="11" lengthAdjust="spacingAndGlyphs" textLength="83" x="1082" y="119.5151">GridOptions g;</text><text fill="#000000" font-family="sans-serif" font-size="11" lengthAdjust="spacingAndGlyphs" textLength="91" x="1082" y="132.3198">ZoomOptions z;</text><text fill="#000000" font-family="sans-serif" font-size="11" lengthAdjust="spacingAndGlyphs" textLength="94" x="1082" y="145.1245">OffsetOptions o;</text><line style="stroke: #A80036; stroke-width: 1.5;" x1="1077" x2="1183" y1="151.7188" y2="151.7188"/><!--class GridOptions--><rect fill="#FEFECE" filter="url(#fsndbobs0ji8c)" height="73.6094" id="GridOptions" style="stroke: #A80036; stroke-width: 1.5;" width="170" x="841" y="260"/><ellipse cx="885.25" cy="276" fill="#ADD1B2" rx="11" ry="11" style="stroke: #A80036; stroke-width: 1.0;"/><path d="M888.2188,281.6406 Q887.6406,281.9375 887,282.0859 Q886.3594,282.2344 885.6563,282.2344 Q883.1563,282.2344 881.8359,280.5859 Q880.5156,278.9375 880.5156,275.8125 Q880.5156,272.6875 881.8359,271.0313 Q883.1563,269.375 885.6563,269.375 Q886.3594,269.375 887.0078,269.5313 Q887.6563,269.6875 888.2188,269.9844 L888.2188,272.7031 Q887.5938,272.125 887,271.8516 Q886.4063,271.5781 885.7813,271.5781 Q884.4375,271.5781 883.75,272.6484 Q883.0625,273.7188 883.0625,275.8125 Q883.0625,277.9063 883.75,278.9766 Q884.4375,280.0469 885.7813,280.0469 Q886.4063,280.0469 887,279.7734 Q887.5938,279.5 888.2188,278.9219 L888.2188,281.6406 Z "/><text fill="#000000" font-family="sans-serif" font-size="12" lengthAdjust="spacingAndGlyphs" textLength="73" x="905.75" y="280.1543">GridOptions</text><line style="stroke: #A80036; stroke-width: 1.5;" x1="842" x2="1010" y1="292" y2="292"/><text fill="#000000" font-family="sans-serif" font-size="11" lengthAdjust="spacingAndGlyphs" textLength="138" x="847" y="306.2104">Maybe[PositiveInt] rows;</text><text fill="#000000" font-family="sans-serif" font-size="11" lengthAdjust="spacingAndGlyphs" textLength="158" x="847" y="319.0151">Maybe[PositiveInt] columns;</text><line style="stroke: #A80036; stroke-width: 1.5;" x1="842" x2="1010" y1="325.6094" y2="325.6094"/><!--class ZoomOptions--><rect fill="#FEFECE" filter="url(#fsndbobs0ji8c)" height="73.6094" id="ZoomOptions" style="stroke: #A80036; stroke-width: 1.5;" width="167" x="1046.75" y="260"/><ellipse cx="1084.7" cy="276" fill="#ADD1B2" rx="11" ry="11" style="stroke: #A80036; stroke-width: 1.0;"/><path d="M1087.6688,281.6406 Q1087.0906,281.9375 1086.45,282.0859 Q1085.8094,282.2344 1085.1063,282.2344 Q1082.6063,282.2344 1081.2859,280.5859 Q1079.9656,278.9375 1079.9656,275.8125 Q1079.9656,272.6875 1081.2859,271.0313 Q1082.6063,269.375 1085.1063,269.375 Q1085.8094,269.375 1086.4578,269.5313 Q1087.1063,269.6875 1087.6688,269.9844 L1087.6688,272.7031 Q1087.0438,272.125 1086.45,271.8516 Q1085.8563,271.5781 1085.2313,271.5781 Q1083.8875,271.5781 1083.2,272.6484 Q1082.5125,273.7188 1082.5125,275.8125 Q1082.5125,277.9063 1083.2,278.9766 Q1083.8875,280.0469 1085.2313,280.0469 Q1085.8563,280.0469 1086.45,279.7734 Q1087.0438,279.5 1087.6688,278.9219 L1087.6688,281.6406 Z "/><text fill="#000000" font-family="sans-serif" font-size="12" lengthAdjust="spacingAndGlyphs" textLength="84" x="1103.8" y="280.1543">ZoomOptions</text><line style="stroke: #A80036; stroke-width: 1.5;" x1="1047.75" x2="1212.75" y1="292" y2="292"/><text fill="#000000" font-family="sans-serif" font-size="11" lengthAdjust="spacingAndGlyphs" textLength="74" x="1066.75" y="306.2104">ZoomType z;</text><rect fill="none" height="6" style="stroke: #C82930; stroke-width: 1.0;" width="6" x="1054.75" y="313.707"/><text fill="#000000" font-family="sans-serif" font-size="11" lengthAdjust="spacingAndGlyphs" textLength="141" x="1066.75" y="319.0151">Float _zoom_percentage;</text><line style="stroke: #A80036; stroke-width: 1.5;" x1="1047.75" x2="1212.75" y1="325.6094" y2="325.6094"/><!--class OffsetOptions--><rect fill="#FEFECE" filter="url(#fsndbobs0ji8c)" height="48" id="OffsetOptions" style="stroke: #A80036; stroke-width: 1.5;" width="117" x="1248.75" y="273"/><ellipse cx="1263.75" cy="289" fill="#ADD1B2" rx="11" ry="11" style="stroke: #A80036; stroke-width: 1.0;"/><path d="M1266.7188,294.6406 Q1266.1406,294.9375 1265.5,295.0859 Q1264.8594,295.2344 1264.1563,295.2344 Q1261.6563,295.2344 1260.3359,293.5859 Q1259.0156,291.9375 1259.0156,288.8125 Q1259.0156,285.6875 1260.3359,284.0313 Q1261.6563,282.375 1264.1563,282.375 Q1264.8594,282.375 1265.5078,282.5313 Q1266.1563,282.6875 1266.7188,282.9844 L1266.7188,285.7031 Q1266.0938,285.125 1265.5,284.8516 Q1264.9063,284.5781 1264.2813,284.5781 Q1262.9375,284.5781 1262.25,285.6484 Q1261.5625,286.7188 1261.5625,288.8125 Q1261.5625,290.9063 1262.25,291.9766 Q1262.9375,293.0469 1264.2813,293.0469 Q1264.9063,293.0469 1265.5,292.7734 Q1266.0938,292.5 1266.7188,291.9219 L1266.7188,294.6406 Z "/><text fill="#000000" font-family="sans-serif" font-size="12" lengthAdjust="spacingAndGlyphs" textLength="85" x="1277.75" y="293.1543">OffsetOptions</text><line style="stroke: #A80036; stroke-width: 1.5;" x1="1249.75" x2="1364.75" y1="305" y2="305"/><line style="stroke: #A80036; stroke-width: 1.5;" x1="1249.75" x2="1364.75" y1="313" y2="313"/><!--class ZoomType--><rect fill="#FEFECE" filter="url(#fsndbobs0ji8c)" height="86.4141" id="ZoomType" style="stroke: #A80036; stroke-width: 1.5;" width="97" x="1081.75" y="442"/><ellipse cx="1096.75" cy="458" fill="#EB937F" rx="11" ry="11" style="stroke: #A80036; stroke-width: 1.0;"/><path d="M1100.8594,464 L1093.1406,464 L1093.1406,451.6094 L1100.8594,451.6094 L1100.8594,453.7656 L1095.5938,453.7656 L1095.5938,456.4375 L1100.3594,456.4375 L1100.3594,458.5938 L1095.5938,458.5938 L1095.5938,461.8438 L1100.8594,461.8438 L1100.8594,464 Z "/><text fill="#000000" font-family="sans-serif" font-size="12" lengthAdjust="spacingAndGlyphs" textLength="65" x="1110.75" y="462.1543">ZoomType</text><line style="stroke: #A80036; stroke-width: 1.5;" x1="1082.75" x2="1177.75" y1="474" y2="474"/><text fill="#000000" font-family="sans-serif" font-size="11" lengthAdjust="spacingAndGlyphs" textLength="78" x="1087.75" y="488.2104">PERCENTAGE;</text><text fill="#000000" font-family="sans-serif" font-size="11" lengthAdjust="spacingAndGlyphs" textLength="61" x="1087.75" y="501.0151">FIT_WIDTH;</text><text fill="#000000" font-family="sans-serif" font-size="11" lengthAdjust="spacingAndGlyphs" textLength="68" x="1087.75" y="513.8198">FIT_HEIGHT;</text><line style="stroke: #A80036; stroke-width: 1.5;" x1="1082.75" x2="1177.75" y1="520.4141" y2="520.4141"/><!--link Render::Context to Geometry::BoundingRect--><path d="M574.507,344.492 C548.461,374.397 514.89,412.942 489.637,441.935 " fill="none" id="Render::Context-Geometry::BoundingRect" style="stroke: #A80036; stroke-width: 1.0;"/><polygon fill="#A80036" points="583.38,334.304,576.4229,336.2011,575.4983,343.3527,582.4554,341.4556,583.38,334.304" style="stroke: #A80036; stroke-width: 1.0;"/><!--link Role::Layoutable to Render::Context--><path d="M381.884,152.28 C407.522,163.616 434.637,176.525 459,190 C496.679,210.84 536.811,238.239 566.934,259.96 " fill="none" id="Role::Layoutable-Render::Context" style="stroke: #A80036; stroke-width: 1.0;"/><polygon fill="#A80036" points="369.83,147.017,373.7275,153.0841,380.8269,151.8198,376.9294,145.7528,369.83,147.017" style="stroke: #A80036; stroke-width: 1.0;"/><!--link Role::Layoutable to Geometry::BoundingRect--><path d="M342.946,155.639 C362.702,172.427 382.732,193.066 396,216 C437.567,287.85 448.951,386.27 451.986,441.654 " fill="none" id="Role::Layoutable-Geometry::BoundingRect" style="stroke: #A80036; stroke-width: 1.0;"/><polygon fill="#A80036" points="332.678,147.22,334.7815,154.1175,341.9574,154.8287,339.8539,147.9312,332.678,147.22" style="stroke: #A80036; stroke-width: 1.0;"/><!--link Role::Layoutable to Layout::Grid--><path d="M238.42,163.134 C216.105,191.803 188.781,226.906 167.824,253.83 " fill="none" id="Role::Layoutable-Layout::Grid" style="stroke: #A80036; stroke-width: 1.0; stroke-dasharray: 7.0,7.0;"/><polygon fill="none" points="233.085,158.592,250.894,147.109,244.133,167.191,233.085,158.592" style="stroke: #A80036; stroke-width: 1.0;"/><!--link Role::Layoutable to Layout::Page--><path d="M292.286,166.86 C300.073,199.601 309.597,239.647 315.956,266.383 " fill="none" id="Role::Layoutable-Layout::Page" style="stroke: #A80036; stroke-width: 1.0; stroke-dasharray: 7.0,7.0;"/><polygon fill="none" points="285.406,168.186,287.588,147.109,299.026,164.947,285.406,168.186" style="stroke: #A80036; stroke-width: 1.0;"/><!--link ViewOptions to GridOptions--><path d="M1066.4,168.675 C1033.48,198.534 994.297,234.064 965.704,259.994 " fill="none" id="ViewOptions-GridOptions" style="stroke: #A80036; stroke-width: 1.0;"/><polygon fill="#A80036" points="1076.4,159.607,1069.269,160.6785,1067.5154,167.6732,1074.6464,166.6016,1076.4,159.607" style="stroke: #A80036; stroke-width: 1.0;"/><text fill="#000000" font-family="sans-serif" font-size="13" lengthAdjust="spacingAndGlyphs" textLength="54" x="1042" y="203.0669">contains</text><text fill="#000000" font-family="sans-serif" font-size="13" lengthAdjust="spacingAndGlyphs" textLength="8" x="962.2349" y="248.8501">1</text><!--link ViewOptions to ZoomOptions--><path d="M1130,172.958 C1130,201.882 1130,235.293 1130,259.994 " fill="none" id="ViewOptions-ZoomOptions" style="stroke: #A80036; stroke-width: 1.0;"/><polygon fill="#A80036" points="1130,159.607,1126,165.607,1130,171.607,1134,165.607,1130,159.607" style="stroke: #A80036; stroke-width: 1.0;"/><text fill="#000000" font-family="sans-serif" font-size="13" lengthAdjust="spacingAndGlyphs" textLength="54" x="1131" y="203.0669">contains</text><text fill="#000000" font-family="sans-serif" font-size="13" lengthAdjust="spacingAndGlyphs" textLength="8" x="1120.1633" y="248.8501">1</text><!--link ViewOptions to OffsetOptions--><path d="M1186.24,169.336 C1200.83,184.511 1216.52,200.852 1231,216 C1249.27,235.11 1269.93,256.864 1285.09,272.858 " fill="none" id="ViewOptions-OffsetOptions" style="stroke: #A80036; stroke-width: 1.0;"/><polygon fill="#A80036" points="1176.83,159.556,1178.1066,166.6532,1185.1489,168.2045,1183.8723,161.1073,1176.83,159.556" style="stroke: #A80036; stroke-width: 1.0;"/><text fill="#000000" font-family="sans-serif" font-size="13" lengthAdjust="spacingAndGlyphs" textLength="54" x="1223" y="203.0669">contains</text><text fill="#000000" font-family="sans-serif" font-size="13" lengthAdjust="spacingAndGlyphs" textLength="8" x="1270.1487" y="261.799">1</text><!--link ZoomOptions to ZoomType--><path d="M1130,347.657 C1130,377.078 1130,413.955 1130,441.935 " fill="none" id="ZoomOptions-ZoomType" style="stroke: #A80036; stroke-width: 1.0;"/><polygon fill="#A80036" points="1130,334.304,1126,340.304,1130,346.304,1134,340.304,1130,334.304" style="stroke: #A80036; stroke-width: 1.0;"/><text fill="#000000" font-family="sans-serif" font-size="13" lengthAdjust="spacingAndGlyphs" textLength="54" x="1131" y="385.0669">contains</text><text fill="#000000" font-family="sans-serif" font-size="13" lengthAdjust="spacingAndGlyphs" textLength="8" x="1120.2945" y="431.054">1</text><!--
@startuml
' ./uml-38942ea14e053f4850fc3f6edd4b8dad0cfaa8fd.svg
package Geometry {
    class Geometry::GlobalPosition;
    class Geometry::BoundingRect
}

class Geometry::BoundingRect {
    Geometry::GlobalPosition top_left;
    PositiveNum width;
    PositiveNum height;
}

package Render {
    class Render::Context
}

class Render::Context {
    Geometry::BoundingRect viewport_bounds;
    ZoomType z;
}
Render::Context *- - Geometry::BoundingRect

package Layout {
    class Role::Layoutable
    class Layout::Grid
    class Layout::Page
}

interface Role::Layoutable {
    Geometry::BoundingRect bounds;
    Render::Context lc;
}
Role::Layoutable *- - Render::Context
Role::Layoutable *- - Geometry::BoundingRect

class Layout::Grid implements Role::Layoutable {
    GridOptions g;
    Layout @sublayouts;
    SizeRequest get_size_request();
}

class Layout::Page implements Role::Layoutable {
    Page p;
}

package View::HighLevel {
    ViewOptions *- - "1" GridOptions: contains
    ViewOptions *- - "1" ZoomOptions: contains
    ViewOptions *- - "1" OffsetOptions: contains
    ZoomOptions *- - "1" ZoomType: contains
}

class ViewOptions {
    Document d;
    GridOptions g;
    ZoomOptions z;
    OffsetOptions o;
}

class ZoomOptions {
    ZoomType z;
    -Float _zoom_percentage;
}

enum ZoomType {
    PERCENTAGE;
    FIT_WIDTH;
    FIT_HEIGHT;
}

class GridOptions {
    Maybe[PositiveInt] rows;
    Maybe[PositiveInt] columns;
}
@enduml

PlantUML version 1.2017.12(Wed Apr 26 16:06:36 GMT 2017)
(GPL source distribution)
Java Runtime: Java(TM) SE Runtime Environment
JVM: Java HotSpot(TM) 64-Bit Server VM
Java Version: 1.8.0_131-b11
Operating System: Linux
OS Version: 4.4.0-81-generic
Default Encoding: UTF-8
Language: en
Country: US
--></g></svg>