<?xml version="1.0" encoding="UTF-8" standalone="no"?><svg xmlns="http://www.w3.org/2000/svg" xmlns:xlink="http://www.w3.org/1999/xlink" contentScriptType="application/ecmascript" contentStyleType="text/css" height="939px" preserveAspectRatio="none" style="width:638px;height:939px;" version="1.1" viewBox="0 0 638 939" width="638px" zoomAndPan="magnify"><defs><filter height="300%" id="ftd1jh8df5vxj" width="300%" x="-1" y="-1"><feGaussianBlur result="blurOut" stdDeviation="2.0"/><feColorMatrix in="blurOut" result="blurOut2" type="matrix" values="0 0 0 0 0 0 0 0 0 0 0 0 0 0 0 0 0 0 .4 0"/><feOffset dx="4.0" dy="4.0" in="blurOut2" result="blurOut3"/><feBlend in="SourceGraphic" in2="blurOut3" mode="normal"/></filter></defs><g><text fill="#000000" font-family="sans-serif" font-size="14" font-style="italic" lengthAdjust="spacingAndGlyphs" textLength="60" x="263" y="212.1563">«Model»</text><text fill="#000000" font-family="sans-serif" font-size="14" lengthAdjust="spacingAndGlyphs" textLength="32" x="277" y="228.4531">View</text><ellipse cx="296" cy="182.1563" fill="#FEFECE" filter="url(#ftd1jh8df5vxj)" rx="12" ry="12" style="stroke: #A80036; stroke-width: 2.0;"/><line style="stroke: #A80036; stroke-width: 2.0;" x1="284" x2="308" y1="196.1563" y2="196.1563"/><text fill="#000000" font-family="sans-serif" font-size="14" font-style="italic" lengthAdjust="spacingAndGlyphs" textLength="60" x="428.5" y="286.75">«Model»</text><text fill="#000000" font-family="sans-serif" font-size="14" lengthAdjust="spacingAndGlyphs" textLength="73" x="422" y="303.0469">Document</text><ellipse cx="461.5" cy="256.75" fill="#FEFECE" filter="url(#ftd1jh8df5vxj)" rx="12" ry="12" style="stroke: #A80036; stroke-width: 2.0;"/><line style="stroke: #A80036; stroke-width: 2.0;" x1="449.5" x2="473.5" y1="270.75" y2="270.75"/><text fill="#000000" font-family="sans-serif" font-size="14" font-style="italic" lengthAdjust="spacingAndGlyphs" textLength="60" x="533" y="361.3438">«Model»</text><text fill="#000000" font-family="sans-serif" font-size="14" lengthAdjust="spacingAndGlyphs" textLength="104" x="511" y="377.6406">Transformation</text><ellipse cx="566" cy="331.3438" fill="#FEFECE" filter="url(#ftd1jh8df5vxj)" rx="12" ry="12" style="stroke: #A80036; stroke-width: 2.0;"/><line style="stroke: #A80036; stroke-width: 2.0;" x1="554" x2="578" y1="345.3438" y2="345.3438"/><line style="stroke: #A80036; stroke-width: 1.0; stroke-dasharray: 5.0,5.0;" x1="44" x2="44" y1="83.8906" y2="852.5313"/><line style="stroke: #A80036; stroke-width: 1.0; stroke-dasharray: 5.0,5.0;" x1="167.5" x2="167.5" y1="83.8906" y2="852.5313"/><line style="stroke: #A80036; stroke-width: 1.0; stroke-dasharray: 5.0,5.0;" x1="296" x2="296" y1="213.4531" y2="852.5313"/><line style="stroke: #A80036; stroke-width: 1.0; stroke-dasharray: 5.0,5.0;" x1="461" x2="461" y1="288.0469" y2="852.5313"/><line style="stroke: #A80036; stroke-width: 1.0; stroke-dasharray: 5.0,5.0;" x1="566" x2="566" y1="362.6406" y2="852.5313"/><text fill="#000000" font-family="sans-serif" font-size="14" font-style="italic" lengthAdjust="spacingAndGlyphs" textLength="66" x="8" y="65.2969">«Widget»</text><text fill="#000000" font-family="sans-serif" font-size="14" lengthAdjust="spacingAndGlyphs" textLength="24" x="29" y="81.5938">GUI</text><ellipse cx="44" cy="35.2969" fill="#FEFECE" filter="url(#ftd1jh8df5vxj)" rx="12" ry="12" style="stroke: #A80036; stroke-width: 2.0;"/><polygon fill="#A80036" points="40,23.2969,46,18.2969,44,23.2969,46,28.2969,40,23.2969" style="stroke: #A80036; stroke-width: 1.0;"/><text fill="#000000" font-family="sans-serif" font-size="14" font-style="italic" lengthAdjust="spacingAndGlyphs" textLength="66" x="8" y="865.5313">«Widget»</text><text fill="#000000" font-family="sans-serif" font-size="14" lengthAdjust="spacingAndGlyphs" textLength="24" x="29" y="881.8281">GUI</text><ellipse cx="44" cy="900.125" fill="#FEFECE" filter="url(#ftd1jh8df5vxj)" rx="12" ry="12" style="stroke: #A80036; stroke-width: 2.0;"/><polygon fill="#A80036" points="40,888.125,46,883.125,44,888.125,46,893.125,40,888.125" style="stroke: #A80036; stroke-width: 1.0;"/><text fill="#000000" font-family="sans-serif" font-size="14" font-style="italic" lengthAdjust="spacingAndGlyphs" textLength="66" x="132" y="49">«Widget»</text><text fill="#000000" font-family="sans-serif" font-size="14" lengthAdjust="spacingAndGlyphs" textLength="95" x="117.5" y="65.2969">Page Drawing</text><text fill="#000000" font-family="sans-serif" font-size="14" lengthAdjust="spacingAndGlyphs" textLength="82" x="124" y="81.5938">Component</text><ellipse cx="168" cy="19" fill="#FEFECE" filter="url(#ftd1jh8df5vxj)" rx="12" ry="12" style="stroke: #A80036; stroke-width: 2.0;"/><polygon fill="#A80036" points="164,7,170,2,168,7,170,12,164,7" style="stroke: #A80036; stroke-width: 1.0;"/><text fill="#000000" font-family="sans-serif" font-size="14" font-style="italic" lengthAdjust="spacingAndGlyphs" textLength="66" x="132" y="865.5313">«Widget»</text><text fill="#000000" font-family="sans-serif" font-size="14" lengthAdjust="spacingAndGlyphs" textLength="95" x="117.5" y="881.8281">Page Drawing</text><text fill="#000000" font-family="sans-serif" font-size="14" lengthAdjust="spacingAndGlyphs" textLength="82" x="124" y="898.125">Component</text><ellipse cx="168" cy="916.4219" fill="#FEFECE" filter="url(#ftd1jh8df5vxj)" rx="12" ry="12" style="stroke: #A80036; stroke-width: 2.0;"/><polygon fill="#A80036" points="164,904.4219,170,899.4219,168,904.4219,170,909.4219,164,904.4219" style="stroke: #A80036; stroke-width: 1.0;"/><text fill="#000000" font-family="sans-serif" font-size="14" font-style="italic" lengthAdjust="spacingAndGlyphs" textLength="60" x="263" y="865.5313">«Model»</text><text fill="#000000" font-family="sans-serif" font-size="14" lengthAdjust="spacingAndGlyphs" textLength="32" x="277" y="881.8281">View</text><ellipse cx="296" cy="900.125" fill="#FEFECE" filter="url(#ftd1jh8df5vxj)" rx="12" ry="12" style="stroke: #A80036; stroke-width: 2.0;"/><line style="stroke: #A80036; stroke-width: 2.0;" x1="284" x2="308" y1="914.125" y2="914.125"/><text fill="#000000" font-family="sans-serif" font-size="14" font-style="italic" lengthAdjust="spacingAndGlyphs" textLength="60" x="428.5" y="865.5313">«Model»</text><text fill="#000000" font-family="sans-serif" font-size="14" lengthAdjust="spacingAndGlyphs" textLength="73" x="422" y="881.8281">Document</text><ellipse cx="461.5" cy="900.125" fill="#FEFECE" filter="url(#ftd1jh8df5vxj)" rx="12" ry="12" style="stroke: #A80036; stroke-width: 2.0;"/><line style="stroke: #A80036; stroke-width: 2.0;" x1="449.5" x2="473.5" y1="914.125" y2="914.125"/><text fill="#000000" font-family="sans-serif" font-size="14" font-style="italic" lengthAdjust="spacingAndGlyphs" textLength="60" x="533" y="865.5313">«Model»</text><text fill="#000000" font-family="sans-serif" font-size="14" lengthAdjust="spacingAndGlyphs" textLength="104" x="511" y="881.8281">Transformation</text><ellipse cx="566" cy="900.125" fill="#FEFECE" filter="url(#ftd1jh8df5vxj)" rx="12" ry="12" style="stroke: #A80036; stroke-width: 2.0;"/><line style="stroke: #A80036; stroke-width: 2.0;" x1="554" x2="578" y1="914.125" y2="914.125"/><rect fill="#EEEEEE" filter="url(#ftd1jh8df5vxj)" height="3" style="stroke: #EEEEEE; stroke-width: 1.0;" width="623" x="3" y="114.457"/><line style="stroke: #000000; stroke-width: 1.0;" x1="3" x2="626" y1="114.457" y2="114.457"/><line style="stroke: #000000; stroke-width: 1.0;" x1="3" x2="626" y1="117.457" y2="117.457"/><rect fill="#EEEEEE" filter="url(#ftd1jh8df5vxj)" height="23.1328" style="stroke: #000000; stroke-width: 2.0;" width="108" x="260.5" y="103.8906"/><text fill="#000000" font-family="sans-serif" font-size="13" font-weight="bold" lengthAdjust="spacingAndGlyphs" textLength="89" x="266.5" y="119.9575">Initialisation</text><polygon fill="#A80036" points="156,154.1563,166,158.1563,156,162.1563,160,158.1563" style="stroke: #A80036; stroke-width: 1.0;"/><line style="stroke: #A80036; stroke-width: 1.0;" x1="44" x2="162" y1="158.1563" y2="158.1563"/><text fill="#000000" font-family="sans-serif" font-size="13" lengthAdjust="spacingAndGlyphs" textLength="19" x="51" y="153.0903">init</text><polygon fill="#A80036" points="251,183.2891,261,187.2891,251,191.2891,255,187.2891" style="stroke: #A80036; stroke-width: 1.0;"/><line style="stroke: #A80036; stroke-width: 1.0;" x1="168" x2="257" y1="187.2891" y2="187.2891"/><text fill="#000000" font-family="sans-serif" font-size="13" lengthAdjust="spacingAndGlyphs" textLength="52" x="175" y="182.2231">set-view</text><text fill="#000000" font-family="sans-serif" font-size="14" font-style="italic" lengthAdjust="spacingAndGlyphs" textLength="60" x="263" y="212.1563">«Model»</text><text fill="#000000" font-family="sans-serif" font-size="14" lengthAdjust="spacingAndGlyphs" textLength="32" x="277" y="228.4531">View</text><ellipse cx="296" cy="182.1563" fill="#FEFECE" filter="url(#ftd1jh8df5vxj)" rx="12" ry="12" style="stroke: #A80036; stroke-width: 2.0;"/><line style="stroke: #A80036; stroke-width: 2.0;" x1="284" x2="308" y1="196.1563" y2="196.1563"/><polygon fill="#A80036" points="410,257.8828,420,261.8828,410,265.8828,414,261.8828" style="stroke: #A80036; stroke-width: 1.0;"/><line style="stroke: #A80036; stroke-width: 1.0;" x1="296" x2="416" y1="261.8828" y2="261.8828"/><text fill="#000000" font-family="sans-serif" font-size="13" lengthAdjust="spacingAndGlyphs" textLength="102" x="303" y="256.8169">open-document</text><text fill="#000000" font-family="sans-serif" font-size="14" font-style="italic" lengthAdjust="spacingAndGlyphs" textLength="60" x="428.5" y="286.75">«Model»</text><text fill="#000000" font-family="sans-serif" font-size="14" lengthAdjust="spacingAndGlyphs" textLength="73" x="422" y="303.0469">Document</text><ellipse cx="461.5" cy="256.75" fill="#FEFECE" filter="url(#ftd1jh8df5vxj)" rx="12" ry="12" style="stroke: #A80036; stroke-width: 2.0;"/><line style="stroke: #A80036; stroke-width: 2.0;" x1="449.5" x2="473.5" y1="270.75" y2="270.75"/><polygon fill="#A80036" points="499,332.4766,509,336.4766,499,340.4766,503,336.4766" style="stroke: #A80036; stroke-width: 1.0;"/><line style="stroke: #A80036; stroke-width: 1.0;" x1="296" x2="505" y1="336.4766" y2="336.4766"/><text fill="#000000" font-family="sans-serif" font-size="13" lengthAdjust="spacingAndGlyphs" textLength="120" x="303" y="331.4106">set-transformation</text><text fill="#000000" font-family="sans-serif" font-size="14" font-style="italic" lengthAdjust="spacingAndGlyphs" textLength="60" x="533" y="361.3438">«Model»</text><text fill="#000000" font-family="sans-serif" font-size="14" lengthAdjust="spacingAndGlyphs" textLength="104" x="511" y="377.6406">Transformation</text><ellipse cx="566" cy="331.3438" fill="#FEFECE" filter="url(#ftd1jh8df5vxj)" rx="12" ry="12" style="stroke: #A80036; stroke-width: 2.0;"/><line style="stroke: #A80036; stroke-width: 2.0;" x1="554" x2="578" y1="345.3438" y2="345.3438"/><rect fill="#EEEEEE" filter="url(#ftd1jh8df5vxj)" height="3" style="stroke: #EEEEEE; stroke-width: 1.0;" width="623" x="3" y="410.5039"/><line style="stroke: #000000; stroke-width: 1.0;" x1="3" x2="626" y1="410.5039" y2="410.5039"/><line style="stroke: #000000; stroke-width: 1.0;" x1="3" x2="626" y1="413.5039" y2="413.5039"/><rect fill="#EEEEEE" filter="url(#ftd1jh8df5vxj)" height="23.1328" style="stroke: #000000; stroke-width: 2.0;" width="125" x="252" y="399.9375"/><text fill="#000000" font-family="sans-serif" font-size="13" font-weight="bold" lengthAdjust="spacingAndGlyphs" textLength="106" x="258" y="416.0044">Calculate view</text><polygon fill="#A80036" points="156,450.2031,166,454.2031,156,458.2031,160,454.2031" style="stroke: #A80036; stroke-width: 1.0;"/><line style="stroke: #A80036; stroke-width: 1.0;" x1="44" x2="162" y1="454.2031" y2="454.2031"/><text fill="#000000" font-family="sans-serif" font-size="13" lengthAdjust="spacingAndGlyphs" textLength="100" x="51" y="449.1372">configure-event</text><polygon fill="#A80036" points="284,479.3359,294,483.3359,284,487.3359,288,483.3359" style="stroke: #A80036; stroke-width: 1.0;"/><line style="stroke: #A80036; stroke-width: 1.0;" x1="168" x2="290" y1="483.3359" y2="483.3359"/><text fill="#000000" font-family="sans-serif" font-size="13" lengthAdjust="spacingAndGlyphs" textLength="87" x="175" y="478.27">view-changed</text><polygon fill="#A80036" points="449.5,533.4688,459.5,537.4688,449.5,541.4688,453.5,537.4688" style="stroke: #A80036; stroke-width: 1.0;"/><line style="stroke: #A80036; stroke-width: 1.0;" x1="296" x2="455.5" y1="537.4688" y2="537.4688"/><text fill="#000000" font-family="sans-serif" font-size="13" lengthAdjust="spacingAndGlyphs" textLength="128" x="303" y="532.4028">get-bounding-boxes</text><polygon fill="#A80036" points="307,562.6016,297,566.6016,307,570.6016,303,566.6016" style="stroke: #A80036; stroke-width: 1.0;"/><line style="stroke: #A80036; stroke-width: 1.0;" x1="301" x2="460.5" y1="566.6016" y2="566.6016"/><text fill="#000000" font-family="sans-serif" font-size="13" lengthAdjust="spacingAndGlyphs" textLength="135" x="313" y="561.5356">bounding-box-results</text><polygon fill="#A80036" points="554,616.7344,564,620.7344,554,624.7344,558,620.7344" style="stroke: #A80036; stroke-width: 1.0;"/><line style="stroke: #A80036; stroke-width: 1.0;" x1="296" x2="560" y1="620.7344" y2="620.7344"/><text fill="#000000" font-family="sans-serif" font-size="13" lengthAdjust="spacingAndGlyphs" textLength="134" x="303" y="615.6685">apply-transformation</text><polygon fill="#A80036" points="307,645.8672,297,649.8672,307,653.8672,303,649.8672" style="stroke: #A80036; stroke-width: 1.0;"/><line style="stroke: #A80036; stroke-width: 1.0;" x1="301" x2="565" y1="649.8672" y2="649.8672"/><text fill="#000000" font-family="sans-serif" font-size="13" lengthAdjust="spacingAndGlyphs" textLength="143" x="313" y="644.8013">transformation-results</text><polygon fill="#A80036" points="179,700,169,704,179,708,175,704" style="stroke: #A80036; stroke-width: 1.0;"/><line style="stroke: #A80036; stroke-width: 1.0;" x1="173" x2="295" y1="704" y2="704"/><text fill="#000000" font-family="sans-serif" font-size="13" lengthAdjust="spacingAndGlyphs" textLength="104" x="185" y="698.9341">set-size-request</text><rect fill="#EEEEEE" filter="url(#ftd1jh8df5vxj)" height="3" style="stroke: #EEEEEE; stroke-width: 1.0;" width="623" x="3" y="732.5664"/><line style="stroke: #000000; stroke-width: 1.0;" x1="3" x2="626" y1="732.5664" y2="732.5664"/><line style="stroke: #000000; stroke-width: 1.0;" x1="3" x2="626" y1="735.5664" y2="735.5664"/><rect fill="#EEEEEE" filter="url(#ftd1jh8df5vxj)" height="23.1328" style="stroke: #000000; stroke-width: 2.0;" width="100" x="264.5" y="722"/><text fill="#000000" font-family="sans-serif" font-size="13" font-weight="bold" lengthAdjust="spacingAndGlyphs" textLength="81" x="270.5" y="738.0669">Draw page</text><polygon fill="#A80036" points="156,772.2656,166,776.2656,156,780.2656,160,776.2656" style="stroke: #A80036; stroke-width: 1.0;"/><line style="stroke: #A80036; stroke-width: 1.0;" x1="44" x2="162" y1="776.2656" y2="776.2656"/><text fill="#000000" font-family="sans-serif" font-size="13" lengthAdjust="spacingAndGlyphs" textLength="88" x="51" y="771.1997">queue-redraw</text><polygon fill="#A80036" points="284,801.3984,294,805.3984,284,809.3984,288,805.3984" style="stroke: #A80036; stroke-width: 1.0;"/><line style="stroke: #A80036; stroke-width: 1.0;" x1="168" x2="290" y1="805.3984" y2="805.3984"/><text fill="#000000" font-family="sans-serif" font-size="13" lengthAdjust="spacingAndGlyphs" textLength="98" x="175" y="800.3325">get-view-actors</text><polygon fill="#A80036" points="449.5,830.5313,459.5,834.5313,449.5,838.5313,453.5,834.5313" style="stroke: #A80036; stroke-width: 1.0;"/><line style="stroke: #A80036; stroke-width: 1.0;" x1="296" x2="455.5" y1="834.5313" y2="834.5313"/><text fill="#000000" font-family="sans-serif" font-size="13" lengthAdjust="spacingAndGlyphs" textLength="65" x="303" y="829.4653">get-pages</text><!--
@startuml
control "GUI" as GUIComp << Widget >>
control "Page Drawing\nComponent" as PDComp << Widget >>

entity "View" as VM << Model >>
entity "Document" as DM << Model >>
entity "Transformation" as TM << Model >>

== Initialisation ==

GUIComp -> PDComp : init

create VM
PDComp -> VM : set-view

create DM
VM -> DM: open-document
create TM
VM -> TM: set-transformation

== Calculate view ==

GUIComp -> PDComp : configure-event

PDComp -> VM : view-changed
|||
VM -> DM : get-bounding-boxes
VM <- DM : bounding-box-results
|||
VM -> TM : apply-transformation
TM -> VM : transformation-results
|||
VM -> PDComp : set-size-request

== Draw page ==

GUIComp -> PDComp : queue-redraw

PDComp -> VM : get-view-actors

VM -> DM : get-pages
@enduml

PlantUML version 1.2018.06(Mon May 21 10:34:53 GMT 2018)
(GPL source distribution)
Java Runtime: OpenJDK Runtime Environment
JVM: OpenJDK 64-Bit Server VM
Java Version: 11.0.2+9
Operating System: Linux
OS Version: 4.15.0-1077-gcp
Default Encoding: UTF-8
Language: en
Country: US
--></g></svg>