<?xml version="1.0" encoding="UTF-8" standalone="no"?><svg xmlns="http://www.w3.org/2000/svg" xmlns:xlink="http://www.w3.org/1999/xlink" contentScriptType="application/ecmascript" contentStyleType="text/css" height="939px" preserveAspectRatio="none" style="width:638px;height:939px;" version="1.1" viewBox="0 0 638 939" width="638px" zoomAndPan="magnify"><defs><filter height="300%" id="ftd1jh8df5vxj" width="300%" x="-1" y="-1"><feGaussianBlur result="blurOut" stdDeviation="2.0"/><feColorMatrix in="blurOut" result="blurOut2" type="matrix" values="0 0 0 0 0 0 0 0 0 0 0 0 0 0 0 0 0 0 .4 0"/><feOffset dx="4.0" dy="4.0" in="blurOut2" result="blurOut3"/><feBlend in="SourceGraphic" in2="blurOut3" mode="normal"/></filter></defs><g><text fill="#000000" font-family="sans-serif" font-size="14" font-style="italic" lengthAdjust="spacingAndGlyphs" textLength="60" x="263.5" y="212.1563">«Model»</text><text fill="#000000" font-family="sans-serif" font-size="14" lengthAdjust="spacingAndGlyphs" textLength="32" x="277.5" y="228.4531">View</text><ellipse cx="296.5" cy="182.1563" fill="#FEFECE" filter="url(#ftd1jh8df5vxj)" rx="12" ry="12" style="stroke: #A80036; stroke-width: 2.0;"/><line style="stroke: #A80036; stroke-width: 2.0;" x1="284.5" x2="308.5" y1="196.1563" y2="196.1563"/><text fill="#000000" font-family="sans-serif" font-size="14" font-style="italic" lengthAdjust="spacingAndGlyphs" textLength="60" x="429" y="286.75">«Model»</text><text fill="#000000" font-family="sans-serif" font-size="14" lengthAdjust="spacingAndGlyphs" textLength="73" x="422.5" y="303.0469">Document</text><ellipse cx="462" cy="256.75" fill="#FEFECE" filter="url(#ftd1jh8df5vxj)" rx="12" ry="12" style="stroke: #A80036; stroke-width: 2.0;"/><line style="stroke: #A80036; stroke-width: 2.0;" x1="450" x2="474" y1="270.75" y2="270.75"/><text fill="#000000" font-family="sans-serif" font-size="14" font-style="italic" lengthAdjust="spacingAndGlyphs" textLength="60" x="533.5" y="361.3438">«Model»</text><text fill="#000000" font-family="sans-serif" font-size="14" lengthAdjust="spacingAndGlyphs" textLength="104" x="511.5" y="377.6406">Transformation</text><ellipse cx="566.5" cy="331.3438" fill="#FEFECE" filter="url(#ftd1jh8df5vxj)" rx="12" ry="12" style="stroke: #A80036; stroke-width: 2.0;"/><line style="stroke: #A80036; stroke-width: 2.0;" x1="554.5" x2="578.5" y1="345.3438" y2="345.3438"/><line style="stroke: #A80036; stroke-width: 1.0; stroke-dasharray: 5.0,5.0;" x1="44" x2="44" y1="83.8906" y2="852.5313"/><line style="stroke: #A80036; stroke-width: 1.0; stroke-dasharray: 5.0,5.0;" x1="168" x2="168" y1="83.8906" y2="852.5313"/><line style="stroke: #A80036; stroke-width: 1.0; stroke-dasharray: 5.0,5.0;" x1="296.5" x2="296.5" y1="213.4531" y2="852.5313"/><line style="stroke: #A80036; stroke-width: 1.0; stroke-dasharray: 5.0,5.0;" x1="461.5" x2="461.5" y1="288.0469" y2="852.5313"/><line style="stroke: #A80036; stroke-width: 1.0; stroke-dasharray: 5.0,5.0;" x1="566.5" x2="566.5" y1="362.6406" y2="852.5313"/><text fill="#000000" font-family="sans-serif" font-size="14" font-style="italic" lengthAdjust="spacingAndGlyphs" textLength="67" x="8" y="65.2969">«Widget»</text><text fill="#000000" font-family="sans-serif" font-size="14" lengthAdjust="spacingAndGlyphs" textLength="24" x="29.5" y="81.5938">GUI</text><ellipse cx="44.5" cy="35.2969" fill="#FEFECE" filter="url(#ftd1jh8df5vxj)" rx="12" ry="12" style="stroke: #A80036; stroke-width: 2.0;"/><polygon fill="#A80036" points="40.5,23.2969,46.5,18.2969,44.5,23.2969,46.5,28.2969,40.5,23.2969" style="stroke: #A80036; stroke-width: 1.0;"/><text fill="#000000" font-family="sans-serif" font-size="14" font-style="italic" lengthAdjust="spacingAndGlyphs" textLength="67" x="8" y="865.5313">«Widget»</text><text fill="#000000" font-family="sans-serif" font-size="14" lengthAdjust="spacingAndGlyphs" textLength="24" x="29.5" y="881.8281">GUI</text><ellipse cx="44.5" cy="900.125" fill="#FEFECE" filter="url(#ftd1jh8df5vxj)" rx="12" ry="12" style="stroke: #A80036; stroke-width: 2.0;"/><polygon fill="#A80036" points="40.5,888.125,46.5,883.125,44.5,888.125,46.5,893.125,40.5,888.125" style="stroke: #A80036; stroke-width: 1.0;"/><text fill="#000000" font-family="sans-serif" font-size="14" font-style="italic" lengthAdjust="spacingAndGlyphs" textLength="67" x="132" y="49">«Widget»</text><text fill="#000000" font-family="sans-serif" font-size="14" lengthAdjust="spacingAndGlyphs" textLength="95" x="118" y="65.2969">Page Drawing</text><text fill="#000000" font-family="sans-serif" font-size="14" lengthAdjust="spacingAndGlyphs" textLength="82" x="124.5" y="81.5938">Component</text><ellipse cx="168.5" cy="19" fill="#FEFECE" filter="url(#ftd1jh8df5vxj)" rx="12" ry="12" style="stroke: #A80036; stroke-width: 2.0;"/><polygon fill="#A80036" points="164.5,7,170.5,2,168.5,7,170.5,12,164.5,7" style="stroke: #A80036; stroke-width: 1.0;"/><text fill="#000000" font-family="sans-serif" font-size="14" font-style="italic" lengthAdjust="spacingAndGlyphs" textLength="67" x="132" y="865.5313">«Widget»</text><text fill="#000000" font-family="sans-serif" font-size="14" lengthAdjust="spacingAndGlyphs" textLength="95" x="118" y="881.8281">Page Drawing</text><text fill="#000000" font-family="sans-serif" font-size="14" lengthAdjust="spacingAndGlyphs" textLength="82" x="124.5" y="898.125">Component</text><ellipse cx="168.5" cy="916.4219" fill="#FEFECE" filter="url(#ftd1jh8df5vxj)" rx="12" ry="12" style="stroke: #A80036; stroke-width: 2.0;"/><polygon fill="#A80036" points="164.5,904.4219,170.5,899.4219,168.5,904.4219,170.5,909.4219,164.5,904.4219" style="stroke: #A80036; stroke-width: 1.0;"/><text fill="#000000" font-family="sans-serif" font-size="14" font-style="italic" lengthAdjust="spacingAndGlyphs" textLength="60" x="263.5" y="865.5313">«Model»</text><text fill="#000000" font-family="sans-serif" font-size="14" lengthAdjust="spacingAndGlyphs" textLength="32" x="277.5" y="881.8281">View</text><ellipse cx="296.5" cy="900.125" fill="#FEFECE" filter="url(#ftd1jh8df5vxj)" rx="12" ry="12" style="stroke: #A80036; stroke-width: 2.0;"/><line style="stroke: #A80036; stroke-width: 2.0;" x1="284.5" x2="308.5" y1="914.125" y2="914.125"/><text fill="#000000" font-family="sans-serif" font-size="14" font-style="italic" lengthAdjust="spacingAndGlyphs" textLength="60" x="429" y="865.5313">«Model»</text><text fill="#000000" font-family="sans-serif" font-size="14" lengthAdjust="spacingAndGlyphs" textLength="73" x="422.5" y="881.8281">Document</text><ellipse cx="462" cy="900.125" fill="#FEFECE" filter="url(#ftd1jh8df5vxj)" rx="12" ry="12" style="stroke: #A80036; stroke-width: 2.0;"/><line style="stroke: #A80036; stroke-width: 2.0;" x1="450" x2="474" y1="914.125" y2="914.125"/><text fill="#000000" font-family="sans-serif" font-size="14" font-style="italic" lengthAdjust="spacingAndGlyphs" textLength="60" x="533.5" y="865.5313">«Model»</text><text fill="#000000" font-family="sans-serif" font-size="14" lengthAdjust="spacingAndGlyphs" textLength="104" x="511.5" y="881.8281">Transformation</text><ellipse cx="566.5" cy="900.125" fill="#FEFECE" filter="url(#ftd1jh8df5vxj)" rx="12" ry="12" style="stroke: #A80036; stroke-width: 2.0;"/><line style="stroke: #A80036; stroke-width: 2.0;" x1="554.5" x2="578.5" y1="914.125" y2="914.125"/><rect fill="#EEEEEE" filter="url(#ftd1jh8df5vxj)" height="3" style="stroke: #EEEEEE; stroke-width: 1.0;" width="623.5" x="3" y="114.457"/><line style="stroke: #000000; stroke-width: 1.0;" x1="3" x2="626.5" y1="114.457" y2="114.457"/><line style="stroke: #000000; stroke-width: 1.0;" x1="3" x2="626.5" y1="117.457" y2="117.457"/><rect fill="#EEEEEE" filter="url(#ftd1jh8df5vxj)" height="23.1328" style="stroke: #000000; stroke-width: 2.0;" width="108" x="260.75" y="103.8906"/><text fill="#000000" font-family="sans-serif" font-size="13" font-weight="bold" lengthAdjust="spacingAndGlyphs" textLength="89" x="266.75" y="119.9575">Initialisation</text><polygon fill="#A80036" points="156.5,154.1563,166.5,158.1563,156.5,162.1563,160.5,158.1563" style="stroke: #A80036; stroke-width: 1.0;"/><line style="stroke: #A80036; stroke-width: 1.0;" x1="44.5" x2="162.5" y1="158.1563" y2="158.1563"/><text fill="#000000" font-family="sans-serif" font-size="13" lengthAdjust="spacingAndGlyphs" textLength="19" x="51.5" y="153.0903">init</text><polygon fill="#A80036" points="251.5,183.2891,261.5,187.2891,251.5,191.2891,255.5,187.2891" style="stroke: #A80036; stroke-width: 1.0;"/><line style="stroke: #A80036; stroke-width: 1.0;" x1="168.5" x2="257.5" y1="187.2891" y2="187.2891"/><text fill="#000000" font-family="sans-serif" font-size="13" lengthAdjust="spacingAndGlyphs" textLength="52" x="175.5" y="182.2231">set-view</text><text fill="#000000" font-family="sans-serif" font-size="14" font-style="italic" lengthAdjust="spacingAndGlyphs" textLength="60" x="263.5" y="212.1563">«Model»</text><text fill="#000000" font-family="sans-serif" font-size="14" lengthAdjust="spacingAndGlyphs" textLength="32" x="277.5" y="228.4531">View</text><ellipse cx="296.5" cy="182.1563" fill="#FEFECE" filter="url(#ftd1jh8df5vxj)" rx="12" ry="12" style="stroke: #A80036; stroke-width: 2.0;"/><line style="stroke: #A80036; stroke-width: 2.0;" x1="284.5" x2="308.5" y1="196.1563" y2="196.1563"/><polygon fill="#A80036" points="410.5,257.8828,420.5,261.8828,410.5,265.8828,414.5,261.8828" style="stroke: #A80036; stroke-width: 1.0;"/><line style="stroke: #A80036; stroke-width: 1.0;" x1="296.5" x2="416.5" y1="261.8828" y2="261.8828"/><text fill="#000000" font-family="sans-serif" font-size="13" lengthAdjust="spacingAndGlyphs" textLength="102" x="303.5" y="256.8169">open-document</text><text fill="#000000" font-family="sans-serif" font-size="14" font-style="italic" lengthAdjust="spacingAndGlyphs" textLength="60" x="429" y="286.75">«Model»</text><text fill="#000000" font-family="sans-serif" font-size="14" lengthAdjust="spacingAndGlyphs" textLength="73" x="422.5" y="303.0469">Document</text><ellipse cx="462" cy="256.75" fill="#FEFECE" filter="url(#ftd1jh8df5vxj)" rx="12" ry="12" style="stroke: #A80036; stroke-width: 2.0;"/><line style="stroke: #A80036; stroke-width: 2.0;" x1="450" x2="474" y1="270.75" y2="270.75"/><polygon fill="#A80036" points="499.5,332.4766,509.5,336.4766,499.5,340.4766,503.5,336.4766" style="stroke: #A80036; stroke-width: 1.0;"/><line style="stroke: #A80036; stroke-width: 1.0;" x1="296.5" x2="505.5" y1="336.4766" y2="336.4766"/><text fill="#000000" font-family="sans-serif" font-size="13" lengthAdjust="spacingAndGlyphs" textLength="120" x="303.5" y="331.4106">set-transformation</text><text fill="#000000" font-family="sans-serif" font-size="14" font-style="italic" lengthAdjust="spacingAndGlyphs" textLength="60" x="533.5" y="361.3438">«Model»</text><text fill="#000000" font-family="sans-serif" font-size="14" lengthAdjust="spacingAndGlyphs" textLength="104" x="511.5" y="377.6406">Transformation</text><ellipse cx="566.5" cy="331.3438" fill="#FEFECE" filter="url(#ftd1jh8df5vxj)" rx="12" ry="12" style="stroke: #A80036; stroke-width: 2.0;"/><line style="stroke: #A80036; stroke-width: 2.0;" x1="554.5" x2="578.5" y1="345.3438" y2="345.3438"/><rect fill="#EEEEEE" filter="url(#ftd1jh8df5vxj)" height="3" style="stroke: #EEEEEE; stroke-width: 1.0;" width="623.5" x="3" y="410.5039"/><line style="stroke: #000000; stroke-width: 1.0;" x1="3" x2="626.5" y1="410.5039" y2="410.5039"/><line style="stroke: #000000; stroke-width: 1.0;" x1="3" x2="626.5" y1="413.5039" y2="413.5039"/><rect fill="#EEEEEE" filter="url(#ftd1jh8df5vxj)" height="23.1328" style="stroke: #000000; stroke-width: 2.0;" width="125" x="252.25" y="399.9375"/><text fill="#000000" font-family="sans-serif" font-size="13" font-weight="bold" lengthAdjust="spacingAndGlyphs" textLength="106" x="258.25" y="416.0044">Calculate view</text><polygon fill="#A80036" points="156.5,450.2031,166.5,454.2031,156.5,458.2031,160.5,454.2031" style="stroke: #A80036; stroke-width: 1.0;"/><line style="stroke: #A80036; stroke-width: 1.0;" x1="44.5" x2="162.5" y1="454.2031" y2="454.2031"/><text fill="#000000" font-family="sans-serif" font-size="13" lengthAdjust="spacingAndGlyphs" textLength="100" x="51.5" y="449.1372">configure-event</text><polygon fill="#A80036" points="284.5,479.3359,294.5,483.3359,284.5,487.3359,288.5,483.3359" style="stroke: #A80036; stroke-width: 1.0;"/><line style="stroke: #A80036; stroke-width: 1.0;" x1="168.5" x2="290.5" y1="483.3359" y2="483.3359"/><text fill="#000000" font-family="sans-serif" font-size="13" lengthAdjust="spacingAndGlyphs" textLength="87" x="175.5" y="478.27">view-changed</text><polygon fill="#A80036" points="450,533.4688,460,537.4688,450,541.4688,454,537.4688" style="stroke: #A80036; stroke-width: 1.0;"/><line style="stroke: #A80036; stroke-width: 1.0;" x1="296.5" x2="456" y1="537.4688" y2="537.4688"/><text fill="#000000" font-family="sans-serif" font-size="13" lengthAdjust="spacingAndGlyphs" textLength="128" x="303.5" y="532.4028">get-bounding-boxes</text><polygon fill="#A80036" points="307.5,562.6016,297.5,566.6016,307.5,570.6016,303.5,566.6016" style="stroke: #A80036; stroke-width: 1.0;"/><line style="stroke: #A80036; stroke-width: 1.0;" x1="301.5" x2="461" y1="566.6016" y2="566.6016"/><text fill="#000000" font-family="sans-serif" font-size="13" lengthAdjust="spacingAndGlyphs" textLength="135" x="313.5" y="561.5356">bounding-box-results</text><polygon fill="#A80036" points="554.5,616.7344,564.5,620.7344,554.5,624.7344,558.5,620.7344" style="stroke: #A80036; stroke-width: 1.0;"/><line style="stroke: #A80036; stroke-width: 1.0;" x1="296.5" x2="560.5" y1="620.7344" y2="620.7344"/><text fill="#000000" font-family="sans-serif" font-size="13" lengthAdjust="spacingAndGlyphs" textLength="134" x="303.5" y="615.6685">apply-transformation</text><polygon fill="#A80036" points="307.5,645.8672,297.5,649.8672,307.5,653.8672,303.5,649.8672" style="stroke: #A80036; stroke-width: 1.0;"/><line style="stroke: #A80036; stroke-width: 1.0;" x1="301.5" x2="565.5" y1="649.8672" y2="649.8672"/><text fill="#000000" font-family="sans-serif" font-size="13" lengthAdjust="spacingAndGlyphs" textLength="143" x="313.5" y="644.8013">transformation-results</text><polygon fill="#A80036" points="179.5,700,169.5,704,179.5,708,175.5,704" style="stroke: #A80036; stroke-width: 1.0;"/><line style="stroke: #A80036; stroke-width: 1.0;" x1="173.5" x2="295.5" y1="704" y2="704"/><text fill="#000000" font-family="sans-serif" font-size="13" lengthAdjust="spacingAndGlyphs" textLength="104" x="185.5" y="698.9341">set-size-request</text><rect fill="#EEEEEE" filter="url(#ftd1jh8df5vxj)" height="3" style="stroke: #EEEEEE; stroke-width: 1.0;" width="623.5" x="3" y="732.5664"/><line style="stroke: #000000; stroke-width: 1.0;" x1="3" x2="626.5" y1="732.5664" y2="732.5664"/><line style="stroke: #000000; stroke-width: 1.0;" x1="3" x2="626.5" y1="735.5664" y2="735.5664"/><rect fill="#EEEEEE" filter="url(#ftd1jh8df5vxj)" height="23.1328" style="stroke: #000000; stroke-width: 2.0;" width="100" x="264.75" y="722"/><text fill="#000000" font-family="sans-serif" font-size="13" font-weight="bold" lengthAdjust="spacingAndGlyphs" textLength="81" x="270.75" y="738.0669">Draw page</text><polygon fill="#A80036" points="156.5,772.2656,166.5,776.2656,156.5,780.2656,160.5,776.2656" style="stroke: #A80036; stroke-width: 1.0;"/><line style="stroke: #A80036; stroke-width: 1.0;" x1="44.5" x2="162.5" y1="776.2656" y2="776.2656"/><text fill="#000000" font-family="sans-serif" font-size="13" lengthAdjust="spacingAndGlyphs" textLength="88" x="51.5" y="771.1997">queue-redraw</text><polygon fill="#A80036" points="284.5,801.3984,294.5,805.3984,284.5,809.3984,288.5,805.3984" style="stroke: #A80036; stroke-width: 1.0;"/><line style="stroke: #A80036; stroke-width: 1.0;" x1="168.5" x2="290.5" y1="805.3984" y2="805.3984"/><text fill="#000000" font-family="sans-serif" font-size="13" lengthAdjust="spacingAndGlyphs" textLength="98" x="175.5" y="800.3325">get-view-actors</text><polygon fill="#A80036" points="450,830.5313,460,834.5313,450,838.5313,454,834.5313" style="stroke: #A80036; stroke-width: 1.0;"/><line style="stroke: #A80036; stroke-width: 1.0;" x1="296.5" x2="456" y1="834.5313" y2="834.5313"/><text fill="#000000" font-family="sans-serif" font-size="13" lengthAdjust="spacingAndGlyphs" textLength="65" x="303.5" y="829.4653">get-pages</text><!--
@startuml
control "GUI" as GUIComp << Widget >>
control "Page Drawing\nComponent" as PDComp << Widget >>

entity "View" as VM << Model >>
entity "Document" as DM << Model >>
entity "Transformation" as TM << Model >>

== Initialisation ==

GUIComp -> PDComp : init

create VM
PDComp -> VM : set-view

create DM
VM -> DM: open-document
create TM
VM -> TM: set-transformation

== Calculate view ==

GUIComp -> PDComp : configure-event

PDComp -> VM : view-changed
|||
VM -> DM : get-bounding-boxes
VM <- DM : bounding-box-results
|||
VM -> TM : apply-transformation
TM -> VM : transformation-results
|||
VM -> PDComp : set-size-request

== Draw page ==

GUIComp -> PDComp : queue-redraw

PDComp -> VM : get-view-actors

VM -> DM : get-pages
@enduml

PlantUML version 1.2018.06(Mon May 21 10:34:53 GMT 2018)
(GPL source distribution)
Java Runtime: Java(TM) SE Runtime Environment
JVM: Java HotSpot(TM) 64-Bit Server VM
Java Version: 1.8.0_151-b12
Operating System: Linux
OS Version: 4.14.12-041412-generic
Default Encoding: UTF-8
Language: en
Country: US
--></g></svg>